<?xml version="1.0" standalone="no"?>
<!DOCTYPE svg PUBLIC "-//W3C//DTD SVG 1.1//EN" "http://www.w3.org/Graphics/SVG/1.1/DTD/svg11.dtd" >
<svg>
<metadata>
Created by FontForge 20090914 at Mon Feb 24 07:34:05 2014
 By www-data
&#194;&#169; 1993-99 Apple Computer, Inc.
</metadata>
<defs>
<font id="Skia-Regular" horiz-adv-x="1200" >
  <font-face 
    font-family="Skia"
    font-weight="5"
    font-stretch="normal"
    units-per-em="2048"
    panose-1="2 13 5 2 2 2 4 2 2 4"
    ascent="1624"
    descent="-424"
    x-height="1002"
    cap-height="1339"
    bbox="-1024 -802.994 2765 1896"
    underline-thickness="0"
    underline-position="20"
    unicode-range="U+0008-U+FB04"
  />
<missing-glyph horiz-adv-x="1488" 
d="M161 0v1469h1166v-1469h-1166zM1143 184v1101h-798v-1101h798z" />
    <glyph glyph-name="ff" unicode="ff" horiz-adv-x="1408" 
d="M1418 1339l-22.4961 -0.00292969h-28.5c-62.667 0 -112 -5.66699 -148 -17s-68.333 -30.666 -97 -57.999c-22 -20.667 -38.833 -49.167 -50.5 -85.5s-17.5 -76.833 -17.5 -121.5v-45c9.33301 0 46.333 -0.5 111 -1.5s140.667 -0.5 228 1.5v-115
c-52.667 0.666992 -120 0.833984 -202 0.500977s-127.667 -0.5 -137 -0.5c0 -216.667 0.5 -417.667 1.5 -603s1.5 -283.333 1.5 -294h-159c0 10.667 0.666992 104.5 2 281.5s2 382.167 2 615.5c-8 0 -43.5 0.166992 -106.5 0.5s-109.833 0.5 -140.5 0.5
c-44 0 -95 -0.166992 -153 -0.5s-92.333 -0.5 -103 -0.5c0 -216.667 0.5 -417.667 1.5 -603s1.5 -283.333 1.5 -294h-158c0 10.667 0.666992 104.5 2 281.5s2 382.167 2 615.5l-197 -2v117h197v49c0 58.667 7.66699 111.167 23 157.5s42.333 89.833 81 130.5
c33.333 34.667 77.666 63 132.999 85s123.333 33 204 33h30.5h23.5l19 -128h-22h-28c-62.667 0 -112 -5.66699 -148 -17s-68.333 -30.666 -97 -57.999c-22 -20.667 -38.833 -49.167 -50.5 -85.5s-17.5 -76.833 -17.5 -121.5v-45c9.33301 0 39.666 -0.166992 90.999 -0.5
s105 -0.5 161 -0.5c43.333 0 93.666 0.166992 150.999 0.5s90.666 0.5 99.999 0.5v49c0 58.667 7.5 111.167 22.5 157.5s41.833 89.833 80.5 130.5c33.333 34.667 78 63 134 85s124.333 33 205 33h31h24z" />
    <glyph glyph-name="fi" unicode="fi" horiz-adv-x="1238" 
d="M1073 1206h-176v172h176v-172zM1056 0l-158 -0.000976562c0 10.667 0.666992 49.5 2 116.5s2 180.833 2 341.5v184c0 77.333 -0.666992 162.333 -2 255c-4.66699 0 -39.5 0.166992 -104.5 0.5s-116.167 0.5 -153.5 0.5c-42 0 -91.667 -0.166992 -149 -0.5
s-88.666 -0.5 -93.999 -0.5c0 -216.667 0.5 -417.667 1.5 -603s1.5 -283.333 1.5 -294h-159c0 10.667 0.666992 104.5 2 281.5s2 382.167 2 615.5l-196 -2v117h196v49c0 58.667 7.5 111.167 22.5 157.5s41.833 89.833 80.5 130.5c33.333 34.667 78 63 134 85
s124.333 33 205 33h26h21l19 -128h-19h-24c-62.667 0 -112 -5.66699 -148 -17s-68.333 -30.666 -97 -57.999c-22 -20.667 -38.833 -49.167 -50.5 -85.5s-17.5 -76.833 -17.5 -121.5v-45c3.33301 0 40 -0.166992 110 -0.5s136.333 -0.5 199 -0.5
c61.333 0 133.666 0.166992 216.999 0.5s127 0.5 131 0.5c-1.33301 -132 -2.5 -240.333 -3.5 -325s-1.5 -158.334 -1.5 -221.001c0 -163.333 0.833008 -279.166 2.5 -347.499s2.5 -107.833 2.5 -118.5z" />
    <glyph glyph-name="fl" unicode="fl" horiz-adv-x="1270" 
d="M752 1339l-17.001 -0.000976562h-23c-62.667 0 -112 -5.66699 -148 -17s-68.333 -30.666 -97 -57.999c-22 -20.667 -38.833 -49.167 -50.5 -85.5s-17.5 -76.833 -17.5 -121.5v-45h350v-115h-350c0 -216.667 0.5 -417.667 1.5 -603s1.5 -283.333 1.5 -294h-158
c0 10.667 0.5 104.5 1.5 281.5s1.83301 382.167 2.5 615.5l-197 -2v117h197v49c0 58.667 7.5 111.167 22.5 157.5s41.833 89.833 80.5 130.5c33.333 34.667 77.833 63 133.5 85s123.834 33 204.501 33h25h19zM1077 -0.000976562l-158 -0.000976562
c0.666992 8 1.5 105.5 2.5 292.5s1.5 342.167 1.5 465.5c0 79.333 -0.166992 179.5 -0.5 300.5s-1.5 256.833 -3.5 407.5h158c-1.33301 -102.667 -2.33301 -221.5 -3 -356.5s-1 -248.833 -1 -341.5c0 -202 0.666992 -378.667 2 -530s2 -230.666 2 -237.999z" />
    <glyph glyph-name="ffi" unicode="ffi" horiz-adv-x="1895" 
d="M1729 1206h-176v172h176v-172zM1711 0l-158.002 -0.00195312c0 10.667 0.666992 49.5 2 116.5s2 180.833 2 341.5v184c0 77.333 -0.666992 162.333 -2 255c-10.667 0 -47 0.166992 -109 0.5s-111.667 0.5 -149 0.5c-42 0 -91 -0.166992 -147 -0.5s-88 -0.5 -96 -0.5
c0 -216.667 0.5 -417.667 1.5 -603s1.5 -283.333 1.5 -294h-159c0 10.667 0.666992 104.5 2 281.5s2 382.167 2 615.5c-9.33301 0 -45.166 0.166992 -107.499 0.5s-108.833 0.5 -139.5 0.5c-44 0 -95.667 -0.166992 -155 -0.5s-93 -0.5 -101 -0.5
c0 -216.667 0.5 -417.667 1.5 -603s1.5 -283.333 1.5 -294h-158c0 10.667 0.666992 104.5 2 281.5s2 382.167 2 615.5l-197 -2v117h197v49c0 58.667 7.66699 111.167 23 157.5s42.333 89.833 81 130.5c33.333 34.667 77.666 63 132.999 85s123.333 33 204 33h30.5h23.5
l19 -128h-22h-28c-62.667 0 -112 -5.66699 -148 -17s-68.333 -30.666 -97 -57.999c-22 -20.667 -38.833 -49.167 -50.5 -85.5s-17.5 -76.833 -17.5 -121.5v-45c10.667 0 41.334 -0.166992 92.001 -0.5s104 -0.5 160 -0.5c43.333 0 92 0.166992 146 0.5s89 0.5 105 0.5v49
c0 58.667 7.5 111.167 22.5 157.5s41.833 89.833 80.5 130.5c33.333 34.667 78 63 134 85s124.333 33 205 33h26.5h20.5l19 -128h-18.5h-24.5c-62.667 0 -112 -5.66699 -148 -17s-68.333 -30.666 -97 -57.999c-22 -20.667 -38.833 -49.167 -50.5 -85.5
s-17.5 -76.833 -17.5 -121.5v-45c8 0 45.833 -0.166992 113.5 -0.5s132.834 -0.5 195.501 -0.5c61.333 0 132.333 0.166992 213 0.5s125.667 0.5 135 0.5c-1.33301 -132 -2.5 -240.333 -3.5 -325s-1.5 -158.334 -1.5 -221.001c0 -163.333 0.833008 -279.166 2.5 -347.499
s2.5 -107.833 2.5 -118.5z" />
    <glyph glyph-name="ffl" unicode="ffl" horiz-adv-x="1924" 
d="M1731 0l-158 -0.00292969c0 10.667 0.666992 76.834 2 198.501s2 301.5 2 539.5c0 79.333 -0.166992 182.833 -0.5 310.5s-1.5 266.834 -3.5 417.501h158c-1.33301 -108 -2.33301 -223 -3 -345s-1 -246.333 -1 -373c0 -205.333 0.666992 -378.666 2 -519.999
s2 -217.333 2 -228zM1410 1339l-18.4971 -0.00292969h-24.5c-62.667 0 -112 -5.66699 -148 -17s-68.333 -30.666 -97 -57.999c-22 -20.667 -38.833 -49.167 -50.5 -85.5s-17.5 -76.833 -17.5 -121.5v-45c6.66699 0 51.334 -0.5 134.001 -1.5s154.334 -0.5 215.001 1.5v-115
c-53.333 0.666992 -121.833 0.833984 -205.5 0.500977s-131.5 -0.5 -143.5 -0.5c0 -216.667 0.5 -417.667 1.5 -603s1.5 -283.333 1.5 -294h-159c0 10.667 0.666992 104.5 2 281.5s2 382.167 2 615.5c-6.66699 0 -41.834 0.166992 -105.501 0.5s-110.834 0.5 -141.501 0.5
c-44 0 -96 -0.166992 -156 -0.5s-93.333 -0.5 -100 -0.5c0 -216.667 0.5 -417.667 1.5 -603s1.5 -283.333 1.5 -294h-158c0 10.667 0.666992 104.5 2 281.5s2 382.167 2 615.5l-197 -2v117h197v49c0 58.667 7.66699 111.167 23 157.5s42.333 89.833 81 130.5
c33.333 34.667 77.666 63 132.999 85s123.333 33 204 33h30.5h23.5l19 -128h-22h-28c-62.667 0 -112 -5.66699 -148 -17s-68.333 -30.666 -97 -57.999c-22 -20.667 -38.833 -49.167 -50.5 -85.5s-17.5 -76.833 -17.5 -121.5v-45c8 0 38 -0.166992 90 -0.5s106 -0.5 162 -0.5
c43.333 0 93.666 0.166992 150.999 0.5s90.666 0.5 99.999 0.5v49c0 58.667 7.5 111.167 22.5 157.5s41.833 89.833 80.5 130.5c33.333 34.667 78 63 134 85s124.333 33 205 33h26.5h20.5z" />
    <glyph glyph-name="fj" unicode="fj" horiz-adv-x="1236" 
d="M1073 1206h-176v172h176v-172zM1055 6c0 -73.333 -10.167 -136.503 -30.5 -189.503s-49.833 -97.5 -88.5 -133.5c-36.667 -34 -85.167 -63.167 -145.5 -87.5s-135.5 -40.833 -225.5 -49.5l-35 123c70.667 6.66699 129.167 17.334 175.5 32.001s83.5 34.667 111.5 60
c30 27.333 51.667 62 65 104s20 99.333 20 172c0 163.333 -0.5 345.833 -1.5 547.5s-1.5 305.834 -1.5 312.501c-8 0 -43.667 0.166992 -107 0.5s-113.333 0.5 -150 0.5c-42 0 -91.5 -0.166992 -148.5 -0.5s-88.5 -0.5 -94.5 -0.5c0 -216.667 0.5 -417.667 1.5 -603
s1.5 -283.333 1.5 -294h-159c0 10.667 0.666992 104.5 2 281.5s2 382.167 2 615.5l-196 -2v117h196v49c0 58.667 7.5 111.167 22.5 157.5s41.833 89.833 80.5 130.5c33.333 34.667 78 63 134 85s124.333 33 205 33h26.5h20.5l19 -128h-18.5h-24.5
c-62.667 0 -112 -5.66699 -148 -17s-68.333 -30.666 -97 -57.999c-22 -20.667 -38.833 -49.167 -50.5 -85.5s-17.5 -76.833 -17.5 -121.5v-45c5.33301 0 42.5 -0.166992 111.5 -0.5s134.833 -0.5 197.5 -0.5c60 0 118.667 0.166992 176 0.5s114.333 0.5 171 0.5
c0 -8.66699 -0.333008 -60.167 -1 -154.5s-1 -206.5 -1 -336.5c0 -84 0.333008 -172.167 1 -264.5s1 -175.833 1 -250.5z" />
    <glyph glyph-name="ft" unicode="ft" horiz-adv-x="1453" 
d="M1382 124l-17.999 -127.003c-6 -0.666992 -17.833 -1.33398 -35.5 -2.00098s-33.167 -1 -46.5 -1c-136.667 0 -240 28.5 -310 85.5s-105 144.5 -105 262.5c0 74 0.5 153.333 1.5 238s1.5 190.334 1.5 317.001c-7.33301 0 -34.166 0.166992 -80.499 0.5
s-92.833 0.5 -139.5 0.5c-43.333 0 -94.833 -0.166992 -154.5 -0.5s-91.834 -0.5 -96.501 -0.5c0 -216.667 0.5 -417.667 1.5 -603s1.5 -283.333 1.5 -294h-158c0 10.667 0.666992 104.5 2 281.5s2 382.167 2 615.5l-197 -2v117h197v49c0 58.667 7.66699 111.167 23 157.5
s42.333 89.833 81 130.5c33.333 34.667 77.666 63 132.999 85s123.333 33 204 33h30.5h23.5l19 -128h-22h-28c-62.667 0 -112 -5.66699 -148 -17s-68.333 -30.666 -97 -57.999c-22 -20.667 -38.833 -49.167 -50.5 -85.5s-17.5 -76.833 -17.5 -121.5v-45
c8 0 37.5 -0.166992 88.5 -0.5s104.5 -0.5 160.5 -0.5c43.333 0 90.833 0.166992 142.5 0.5s81.167 0.5 88.5 0.5v237h145v-237h358v-117l-358 2c0 -13.333 -0.5 -55.166 -1.5 -125.499s-1.5 -122.166 -1.5 -155.499v-103v-145c0 -86.667 23.333 -149.167 70 -187.5
s118.667 -57.5 216 -57.5c12 0 26.5 0.166992 43.5 0.5s27.5 0.5 31.5 0.5z" />
    <glyph glyph-name=".notdef" horiz-adv-x="1488" 
d="M161 0v1469h1166v-1469h-1166zM1143 184v1101h-798v-1101h798z" />
    <glyph glyph-name=".null" horiz-adv-x="0" 
 />
    <glyph glyph-name=".null" horiz-adv-x="0" 
 />
    <glyph glyph-name=".null" horiz-adv-x="0" 
 />
    <glyph glyph-name="space" unicode="&#x9;" horiz-adv-x="512" 
 />
    <glyph glyph-name="space" unicode=" " horiz-adv-x="512" 
 />
    <glyph glyph-name="nonmarkingreturn" unicode="&#xd;" horiz-adv-x="512" 
 />
    <glyph glyph-name="exclam" unicode="!" horiz-adv-x="950" 
d="M571 1339c-4 -352.667 -7.5 -584.5 -10.5 -695.5l-5.5 -203.5h-139c-0.666992 24.667 -2.66699 92.5 -6 203.5s-7 342.833 -11 695.5h172zM582 0h-193v201h193v-201z" />
    <glyph glyph-name="quotedbl" unicode="&#x22;" horiz-adv-x="760" 
d="M619 1422l-18 -497h-115l-16 497h149zM293 1422l-18 -497h-115l-16 497h149z" />
    <glyph glyph-name="numbersign" unicode="#" horiz-adv-x="1800" 
d="M1494 711l-314.001 -0.000976562l-44 -133l-45 -133h280v-114h-315l-82 -251.5c-22 -68.333 -33.667 -104.833 -35 -109.5l-95 39c2.66699 7.33301 14.334 42.333 35.001 105l72 217h-261l-82 -252.5c-21.333 -67 -33 -103.167 -35 -108.5l-95 39
c2 5.33301 13.667 40 35 104l72 218h-277v114h313c16.667 51.333 31.5 94.833 44.5 130.5s27.833 80.834 44.5 135.501h-278v114h314l78.5 239l35.5 109l95 -35c-2 -6.66699 -13.5 -41 -34.5 -103l-70.5 -210h262l78 236l36 112l95 -35c-2 -6.66699 -13.5 -41 -34.5 -103
l-70.5 -210h278v-114zM1076 710.999l-262 -0.000976562l-44 -133l-45 -133h262c16.667 51.333 31.5 94.833 44.5 130.5s27.833 80.834 44.5 135.501z" />
    <glyph glyph-name="dollar" unicode="$" 
d="M1013 402c0 -67.333 -16.332 -127.666 -48.999 -180.999s-76 -96.666 -130 -129.999c-48.667 -30.667 -110.167 -54.5 -184.5 -71.5s-148.5 -27.167 -222.5 -30.5c-13.333 0 -24.666 -0.333008 -33.999 -1s-20.666 -1 -33.999 -1l4 -352h-125l2.5 121.5
c1 49 1.5 85.167 1.5 108.5c-0.666992 58.667 -1.33398 110.167 -2.00098 154.5s-1 79.166 -1 104.499h25h70c91.333 0 167.333 4.83301 228 14.5s113.667 26.167 159 49.5c46.667 25.333 78.834 52 96.501 80s26.5 59.667 26.5 95c0 40 -10 75.167 -30 105.5
s-55.333 57.833 -106 82.5c-30.667 15.333 -78.167 35 -142.5 59s-115.833 46.667 -154.5 68c-63.333 34.667 -110.666 74.5 -141.999 119.5s-47 99.5 -47 163.5c0 60.667 13.333 113.834 40 159.501s60.667 84.167 102 115.5c42.667 33.333 98.667 59 168 77
s140.666 29 213.999 33c16.667 1.33301 27.5 2 32.5 2s14.167 0.333008 27.5 1l-4 269h125c-0.666992 -32 -1.33398 -62.333 -2.00098 -91s-1 -56.334 -1 -83.001c0 -52.667 0.333008 -102.5 1 -149.5s1 -74.833 1 -83.5h-31.5h-75.5c-70.667 0 -135.667 -5.33301 -195 -16
s-104.666 -26.334 -135.999 -47.001c-26 -16 -48.667 -37.167 -68 -63.5s-29 -58.166 -29 -95.499c0 -38.667 11.667 -71.667 35 -99s58.333 -53 105 -77c31.333 -16.667 73.666 -34.834 126.999 -54.501s104.666 -41.5 153.999 -65.5c65.333 -32 115.166 -72 149.499 -120
s51.5 -105 51.5 -171z" />
    <glyph glyph-name="percent" unicode="%" horiz-adv-x="2048" 
d="M793 947c0 -46.667 -7.66992 -104.002 -23.0029 -172.002s-39.666 -120.667 -72.999 -158c-34 -37.333 -70.667 -63.833 -110 -79.5s-85.333 -23.5 -138 -23.5c-55.333 0 -102.5 8.5 -141.5 25.5s-74.167 42.833 -105.5 77.5c-36 42 -60.833 95.167 -74.5 159.5
s-20.5 120.833 -20.5 169.5c0 54 6.66699 111.5 20 172.5s38.666 113.167 75.999 156.5c30.667 36 65.834 62 105.501 78s86.5 24 140.5 24c54.667 0 101.834 -8.16699 141.501 -24.5s74.834 -42.166 105.501 -77.499c35.333 -39.333 60.333 -91.666 75 -156.999
s22 -122.333 22 -171zM655.997 945.998c0 30.667 -4.33203 69.833 -12.999 117.5s-22 87.5 -40 119.5c-16.667 29.333 -36.334 51.5 -59.001 66.5s-54.334 22.5 -95.001 22.5c-39.333 0 -70.833 -7.66699 -94.5 -23s-43.834 -37.333 -60.501 -66
c-20 -34.667 -33.833 -73.667 -41.5 -117s-11.5 -83 -11.5 -119c0 -34 4 -73.833 12 -119.5s21.667 -86.167 41 -121.5c16 -28 35.333 -49.5 58 -64.5s55 -22.5 97 -22.5c38.667 0 70.334 8 95.001 24s44.334 37 59.001 63c18 32.667 31.333 71 40 115s13 85.667 13 125z
M1502 1319l-238 -358.5l-228 -349.5l-286 -446.5l-130 -206.5l-97 71c10 14 54 80.333 132 199l288 442l226.5 350.5l235.5 368.5zM1925 414.997c0 -46.667 -7.66992 -104.002 -23.0029 -172.002s-39.666 -120.667 -72.999 -158c-34 -37.333 -70.667 -63.833 -110 -79.5
s-85.333 -23.5 -138 -23.5c-55.333 0 -102.5 8.5 -141.5 25.5s-74.167 42.833 -105.5 77.5c-36 42 -60.833 95.167 -74.5 159.5s-20.5 120.833 -20.5 169.5c0 54 6.66699 111.5 20 172.5s38.666 113.167 75.999 156.5c30.667 36 65.834 62 105.501 78s86.5 24 140.5 24
c54.667 0 101.834 -8.16699 141.501 -24.5s74.834 -42.166 105.501 -77.499c35.333 -39.333 60.333 -91.666 75 -156.999s22 -122.333 22 -171zM1788 413.995c0 30.667 -4.33203 69.833 -12.999 117.5s-22 87.5 -40 119.5c-16.667 29.333 -36.334 51.5 -59.001 66.5
s-54.334 22.5 -95.001 22.5c-39.333 0 -70.833 -7.66699 -94.5 -23s-43.834 -37.333 -60.501 -66c-20 -34.667 -33.833 -73.667 -41.5 -117s-11.5 -83 -11.5 -119c0 -34 4 -73.833 12 -119.5s21.667 -86.167 41 -121.5c16 -28 35.333 -49.5 58 -64.5s55 -22.5 97 -22.5
c38.667 0 70.334 8 95.001 24s44.334 37 59.001 63c18 32.667 31.333 71 40 115s13 85.667 13 125z" />
    <glyph glyph-name="ampersand" unicode="&#x26;" horiz-adv-x="1497" 
d="M1463 97l-85.999 -116l-330 252h-2c-85.333 -95.333 -164.666 -163.166 -237.999 -203.499s-153.333 -60.5 -240 -60.5c-123.333 0 -225.5 34 -306.5 102s-121.5 159 -121.5 273c0 78 23.333 152.167 70 222.5s103.667 131.5 171 183.5v2
c-50.667 41.333 -88.834 85.333 -114.501 132s-38.5 98 -38.5 154c0 96.667 41.167 177.167 123.5 241.5s175.166 96.5 278.499 96.5c117.333 0 212.5 -30.333 285.5 -91s109.5 -142 109.5 -244c0 -71.333 -20.5 -139.833 -61.5 -205.5s-105.5 -136.167 -193.5 -211.5v-2
l145.5 -115.5l110.5 -86.5h2c68 91.333 130.333 183.166 187 275.499l92 149.5l123 -80l-121 -173.5c-70 -99.667 -130 -181.5 -180 -245.5v-2zM867.001 1025c0 68 -21.499 122.499 -64.499 163.499s-101.5 61.5 -175.5 61.5c-68 0 -125.167 -19.667 -171.5 -59
s-69.5 -90 -69.5 -152c0 -51.333 24.167 -102.666 72.5 -153.999s120.833 -114 217.5 -188h2c71.333 59.333 120.666 115 147.999 167s41 105.667 41 161zM942.002 305.999v2.00098l-209 163l-258 204h-2c-71.333 -68 -117.333 -126.333 -138 -175
s-31 -100.334 -31 -155.001c0 -74.667 26 -134 78 -178s115 -66 189 -66c76.667 0 144.5 18.5 203.5 55.5s114.833 86.833 167.5 149.5z" />
    <glyph glyph-name="quotesingle" unicode="'" horiz-adv-x="430" 
d="M290 1422l-18 -497h-115l-16 497h149z" />
    <glyph glyph-name="parenleft" unicode="(" horiz-adv-x="850" 
d="M825 -321l-52.0029 -109.996c-76 20 -154.5 56.167 -235.5 108.5s-151.167 114.833 -210.5 187.5c-61.333 75.333 -110.666 160.833 -147.999 256.5s-56 199.5 -56 311.5c0 101.333 16.333 199.833 49 295.5s76.334 184.167 131.001 265.5
c58.667 86 131.667 164.167 219 234.5s171 123.166 251 158.499l52 -105c-80.667 -38.667 -156.167 -88.167 -226.5 -148.5s-130.166 -127.833 -179.499 -202.5c-44 -66.667 -79.5 -142.334 -106.5 -227.001s-40.5 -171.667 -40.5 -261
c0 -98.667 15.333 -190.334 46 -275.001s72 -160 124 -226c46 -58.667 105.167 -111.834 177.5 -159.501s140.833 -82.167 205.5 -103.5z" />
    <glyph glyph-name="parenright" unicode=")" horiz-adv-x="850" 
d="M727 521c0 -100 -16.6689 -199.164 -50.002 -297.497s-76.666 -186.166 -129.999 -263.499c-61.333 -88.667 -135.166 -167.834 -221.499 -237.501s-169.166 -121.167 -248.499 -154.5l-52 104c77.333 37.333 152.5 86.833 225.5 148.5s133.167 129.167 180.5 202.5
c46.667 73.333 82.834 151.166 108.501 233.499s38.5 167.166 38.5 254.499c0 99.333 -15.333 191.333 -46 276s-72 159.667 -124 225c-47.333 60 -106.5 113.333 -177.5 160s-139.5 81 -205.5 103l52 111c75.333 -20 153.666 -56.333 234.999 -109
s151.666 -115.334 210.999 -188.001c62 -76.667 111.5 -162 148.5 -256s55.5 -198 55.5 -312z" />
    <glyph glyph-name="asterisk" unicode="*" horiz-adv-x="744" 
d="M448 1376l-15 -222h-121l-15 222h151zM680 997l-222 15v117l222 15v-147zM287 1012l-223 -15v147l223 -15v-117zM448 764h-151l15 223h121z" />
    <glyph glyph-name="plus" unicode="+" horiz-adv-x="1800" 
d="M1432 519h-475v-475h-116v475h-473v117h473v473h116v-473h475v-117z" />
    <glyph glyph-name="comma" unicode="," horiz-adv-x="600" 
d="M452 200v-8.00098l-260 -493l-105 47c6 11.333 32.667 68.833 80 172.5s96 218.834 146 345.501z" />
    <glyph glyph-name="hyphen" unicode="-" horiz-adv-x="728" 
d="M651 626l-102 0.5c-68 0.333008 -130 0.5 -186 0.5s-117.5 -0.166992 -184.5 -0.5l-100.5 -0.5v136l100.5 -0.5c67 -0.333008 128.5 -0.5 184.5 -0.5s118 0.166992 186 0.5l102 0.5v-136z" />
    <glyph glyph-name="period" unicode="." horiz-adv-x="600" 
d="M401 0h-201v213h201v-213z" />
    <glyph glyph-name="slash" unicode="/" horiz-adv-x="683" 
d="M716 1340l-161.5 -430l-155.5 -422l-217.5 -611c-61.667 -178.667 -97.167 -280.667 -106.5 -306l-127 47l112.5 305.5l218.5 600.5l154.5 427.5l155.5 434.5z" />
    <glyph glyph-name="zero" unicode="0" 
d="M1090 669c0 -96 -11.501 -195.335 -34.501 -298.002s-57.833 -183.667 -104.5 -243c-46 -57.333 -95.667 -99.5 -149 -126.5s-120.666 -40.5 -201.999 -40.5c-78.667 0 -145.667 13.667 -201 41s-105.333 69.333 -150 126c-38 48.667 -70.667 121 -98 217
s-41 203.333 -41 322c0 106.667 12.833 210.334 38.5 311.001s59.167 177.667 100.5 231c43.333 56 93 97.833 149 125.5s123.333 41.5 202 41.5c77.333 0 144 -13.667 200 -41s106.333 -69.333 151 -126c42.667 -54 76.5 -130.667 101.5 -230s37.5 -202.666 37.5 -309.999z
M922.999 666.998c0 81.333 -6.66797 158.999 -20.001 232.999s-32 136 -56 186c-24.667 50 -56.667 88.833 -96 116.5s-89.666 41.5 -150.999 41.5c-60.667 0 -110.834 -14 -150.501 -42s-71.834 -66.667 -96.501 -116c-30 -60 -50.167 -129.167 -60.5 -207.5
s-15.5 -148.166 -15.5 -209.499c0 -57.333 5.5 -126.5 16.5 -207.5s30.833 -151.167 59.5 -210.5c24.667 -50.667 56.334 -89.667 95.001 -117s89.334 -41 152.001 -41c58.667 0 108.5 13.833 149.5 41.5s73.5 66.5 97.5 116.5c29.333 60.667 49.333 129 60 205
s16 146.333 16 211z" />
    <glyph glyph-name="one" unicode="1" 
d="M771 0l-165.001 -0.000976562c0 11.333 0.833008 72 2.5 182s2.5 264.667 2.5 464v219c0 130.667 -0.666992 242.334 -2 335.001l-3 1c-19.333 -11.333 -64.166 -41.5 -134.499 -90.5l-225.5 -151.5l-64 96l285.5 202l174.5 125l128 -86
c-1.33301 -102.667 -2.33301 -221.5 -3 -356.5s-1 -215.833 -1 -242.5c0 -73.333 0.833008 -205.333 2.5 -396s2.5 -291 2.5 -301z" />
    <glyph glyph-name="two" unicode="2" 
d="M1133 2c-8.66699 0 -71.665 0.166016 -188.998 0.499023s-212.333 0.5 -285 0.5c-84.667 0 -189.334 -0.166992 -314.001 -0.5s-192.667 -0.5 -204 -0.5l-38 118c68.667 32.667 148.167 80.667 238.5 144s163.5 121.333 219.5 174c80 78 136.667 147.833 170 209.5
s50 126.5 50 194.5c0 72 -13.833 130.667 -41.5 176s-64.834 82.666 -111.501 111.999c-48.667 30.667 -105.167 52.667 -169.5 66s-135.166 20 -212.499 20h-44.5h-33.5l14 140c10 0 22.167 0.166992 36.5 0.5s32.166 0.5 53.499 0.5
c94.667 0 181.167 -9.16699 259.5 -27.5s146.833 -45.166 205.5 -80.499c74.667 -44.667 129.5 -99.5 164.5 -164.5s52.5 -141.167 52.5 -228.5c0 -77.333 -18.833 -153.166 -56.5 -227.499s-92.167 -144.833 -163.5 -211.5c-70.667 -65.333 -139.667 -121.833 -207 -169.5
s-126.333 -86.167 -177 -115.5l2 -5c36.667 3.33301 84 5.5 142 6.5s114 1.83301 168 2.5c81.333 1.33301 177.333 2.5 288 3.5s171.667 1.5 183 1.5v-139z" />
    <glyph glyph-name="three" unicode="3" 
d="M1036 408c0 -68 -19.0029 -130.998 -57.0029 -188.998s-94.333 -106.333 -169 -145c-62.667 -32 -143 -55.833 -241 -71.5s-200 -23.5 -306 -23.5c-16.667 0 -34.167 0.333008 -52.5 1s-32.833 1 -43.5 1l-26 136c10 0 27.667 -0.333008 53 -1s46 -1 62 -1
c73.333 0.666992 148.333 5.33398 225 14.001s137.334 21.334 182.001 38.001c66 24 116.333 54.667 151 92s52 84 52 140c0 45.333 -15.833 84.166 -47.5 116.499s-72.167 57.166 -121.5 74.499c-34.667 12 -72.667 19.5 -114 22.5s-81.333 4.5 -120 4.5
c-22.667 0 -41.667 -0.5 -57 -1.5s-30.666 -1.83301 -45.999 -2.5l-22 122c20 2.66699 52 6.66699 96 12s84.333 13.666 121 24.999c72 22.667 126.333 51.167 163 85.5s55 77.166 55 128.499c0 50 -13.333 89 -40 117s-67 52.667 -121 74c-32 12 -78.333 21.667 -139 29
s-116.667 11 -168 11h-54.5h-37.5l24 141h23.5h28.5c77.333 0 153.333 -3.83301 228 -11.5s146.334 -26.167 215.001 -55.5c58.667 -24.667 108.5 -59.667 149.5 -105s61.5 -101.333 61.5 -168c0 -70.667 -23 -132 -69 -184s-111.333 -92 -196 -120v-9
c109.333 -10.667 196.333 -41.5 261 -92.5s97 -119.167 97 -204.5z" />
    <glyph glyph-name="four" unicode="4" 
d="M1187 491c-80.667 1.33301 -148.501 2.16797 -203.501 2.50098s-103.833 0.5 -146.5 0.5c-1.33301 -130 -1.33301 -242.167 0 -336.5s2 -146.833 2 -157.5h-158c0 10.667 0.5 66 1.5 166s2.16699 209.333 3.5 328l-571 -3l-71 130l438.5 495.5
c141 160.333 217.833 248.166 230.5 263.499l128 -74c-2.66699 -114.667 -4 -253.167 -4 -415.5v-271.5c13.333 0 58.333 0.333008 135 1s148.334 1.66699 215.001 3v-132zM687.999 1178l-2 1l-482 -558l1 -2c12 0 36.833 -0.166992 74.5 -0.5s90.167 -0.5 157.5 -0.5h105
c44 0 92 0.333008 144 1v264.5c0 82.333 0.666992 180.5 2 294.5z" />
    <glyph glyph-name="five" unicode="5" 
d="M1047 1197c-12 0 -90.665 0.668945 -235.998 2.00195s-279 2 -401 2v-408c74 -2 148.167 -8.66699 222.5 -20s135.166 -27.666 182.499 -48.999c69.333 -31.333 120.5 -71.833 153.5 -121.5s49.5 -108.167 49.5 -175.5c0 -71.333 -20 -136.333 -60 -195
s-97.333 -108 -172 -148c-56 -28.667 -126.667 -51.834 -212 -69.501s-176.333 -28.167 -273 -31.5c-15.333 -0.666992 -34.166 -1.33398 -56.499 -2.00098s-37.833 -1 -46.5 -1l-18 137c10 0 22.5 0.333008 37.5 1s30.833 1.33398 47.5 2.00098
c80 3.33301 160.833 11.333 242.5 24s144.5 30.334 188.5 53.001c49.333 25.333 86.333 54.833 111 88.5s37 77.5 37 131.5c0 48 -14.333 89.167 -43 123.5s-74.667 62.166 -138 83.499c-38.667 12.667 -92.334 22 -161.001 28s-150 9 -244 9c0 12 0.166992 64.333 0.5 157
s0.5 155.667 0.5 189c0 49.333 -0.166992 113.666 -0.5 192.999s-0.5 124.666 -0.5 135.999c8.66699 0 59.5 -0.166992 152.5 -0.5s180.167 -0.5 261.5 -0.5c64 0 140.167 0.166992 228.5 0.5s137.166 0.5 146.499 0.5v-139z" />
    <glyph glyph-name="six" unicode="6" 
d="M1099 435c0 -66.667 -13.167 -129.5 -39.5 -188.5s-60.833 -108.5 -103.5 -148.5c-46 -44 -98.167 -77.833 -156.5 -101.5s-122.833 -35.5 -193.5 -35.5c-69.333 0 -135.166 10.833 -197.499 32.5s-118.5 56.167 -168.5 103.5c-39.333 37.333 -71 83.5 -95 138.5
s-36 117.833 -36 188.5c0 75.333 16.333 151.166 49 227.499s90.667 165.5 174 267.5c68 80.667 141.667 163.334 221 248.001l201 218l109 -97l-153 -160l-193 -202v-2c43.333 -8 93.833 -19 151.5 -33s116.167 -37.333 175.5 -70
c81.333 -44.667 144.166 -99.167 188.499 -163.5s66.5 -138.5 66.5 -222.5zM931 425c0 58.667 -17.335 114.667 -52.002 168s-92 99.666 -172 138.999c-39.333 20 -88 36.333 -146 49s-101 20 -129 22c-50.667 -53.333 -89.167 -111.666 -115.5 -174.999
s-39.5 -130 -39.5 -200c0 -52 9.33301 -99.833 28 -143.5s42.334 -79.167 71.001 -106.5c30.667 -28.667 65.667 -50 105 -64s81 -21 125 -21c46.667 0 90.334 7.66699 131.001 23s74.334 37 101.001 65c31.333 32 54.666 68.833 69.999 110.5s23 86.167 23 133.5z" />
    <glyph glyph-name="seven" unicode="7" 
d="M1102 1224l-453.002 -847l-224 -423l-139 61l408.5 757.5c124.333 239 197.166 380.833 218.499 425.5l-1 2h-115.5h-114.5c-116 0 -235.667 -0.666992 -359 -2s-193.666 -2 -210.999 -2v140c8.66699 0 53.834 -0.333008 135.501 -1s183.5 -1 305.5 -1
c78 0 172.333 0.333008 283 1s173.334 1 188.001 1z" />
    <glyph glyph-name="eight" unicode="8" 
d="M1084 357c0 -114 -47 -208.499 -141 -283.499s-207.667 -112.5 -341 -112.5c-136 0 -250.833 34.833 -344.5 104.5s-140.5 163.5 -140.5 281.5c0 62 20.333 122.5 61 181.5s105.667 119.5 195 181.5v2c-76 41.333 -130.167 85.833 -162.5 133.5s-48.5 105.5 -48.5 173.5
c0 102 43.333 187 130 255s190 102 310 102c132.667 0 240.167 -32.833 322.5 -98.5s123.5 -148.834 123.5 -249.501c0 -59.333 -18.333 -117.833 -55 -175.5s-91 -112.5 -163 -164.5v-2c86 -41.333 149.833 -87.5 191.5 -138.5s62.5 -114.5 62.5 -190.5zM881 997.001
c0 72.667 -24.999 132.165 -74.999 178.498s-117.667 69.5 -203 69.5c-77.333 0 -142.333 -20.667 -195 -62s-79 -96.666 -79 -165.999c0 -44 13.667 -81.667 41 -113s61 -57.666 101 -78.999c29.333 -15.333 63.166 -30.333 101.499 -45s83.5 -30 135.5 -46
c66.667 48 112.167 92.833 136.5 134.5s36.5 84.5 36.5 128.5zM917.001 340.999c0 44.667 -13.333 85.333 -40 122s-66.667 69.334 -120 98.001c-27.333 14 -66 30.667 -116 50s-99.333 36.666 -148 51.999c-49.333 -33.333 -96.5 -76 -141.5 -128s-67.5 -114 -67.5 -186
c0 -75.333 32.5 -137 97.5 -185s137.167 -72 216.5 -72c92.667 0 169 21 229 63s90 104 90 186z" />
    <glyph glyph-name="nine" unicode="9" 
d="M1090 916c0 -82.667 -15.167 -159.166 -45.5 -229.499s-75.166 -142.833 -134.499 -217.5c-54.667 -68.667 -142.5 -168.334 -263.5 -299.001l-201.5 -217l-109 96l180 187.5l168 175.5l-1 2c-68.667 9.33301 -136.834 25.166 -204.501 47.499
s-128.834 52.166 -183.501 89.499c-71.333 49.333 -121.666 104.166 -150.999 164.499s-44 123.833 -44 190.5c0 65.333 12.667 125.5 38 180.5s58 103.5 98 145.5c43.333 44.667 97 79.834 161 105.501s131 38.5 201 38.5c72 0 139.333 -10.667 202 -32
s116.667 -54.666 162 -99.999c38.667 -38.667 69.667 -85.167 93 -139.5s35 -117.166 35 -188.499zM922 909.001c0 49.333 -8.83301 95.6689 -26.5 139.002s-41.167 80 -70.5 110c-26.667 26.667 -61.167 47.667 -103.5 63s-84.833 23 -127.5 23
c-46 0 -89.667 -8.16699 -131 -24.5s-76 -38.5 -104 -66.5c-28 -28.667 -50.167 -63.667 -66.5 -105s-24.5 -85.333 -24.5 -132c0 -64.667 17.667 -122.834 53 -174.501s87.333 -94.834 156 -129.501c40 -20.667 87.667 -37.834 143 -51.501s104.333 -22.5 147 -26.5
c54 60.667 93.333 120.834 118 180.501s37 124.5 37 194.5z" />
    <glyph glyph-name="colon" unicode=":" horiz-adv-x="655" 
d="M428 797h-201v213h201v-213zM428 0h-201v213h201v-213z" />
    <glyph glyph-name="semicolon" unicode=";" horiz-adv-x="655" 
d="M438 797h-200v213h200v-213zM456 200v-8l-246 -459l-105 47c8 14.667 33.833 70 77.5 166s88.5 202 134.5 318z" />
    <glyph glyph-name="less" unicode="&#x3c;" horiz-adv-x="1800" 
d="M1381 195l-51 -110l-938 438v108l938 443l51 -112l-832 -382v-4z" />
    <glyph glyph-name="equal" unicode="=" horiz-adv-x="1800" 
d="M1422 703h-1044v117h1044v-117zM1422 343h-1044v117h1044v-117z" />
    <glyph glyph-name="greater" unicode="&#x3e;" horiz-adv-x="1800" 
d="M1408 523l-938 -438l-51 110l832 381v4l-832 382l51 112l938 -443v-108z" />
    <glyph glyph-name="question" unicode="?" horiz-adv-x="1143" 
d="M975 979c0 -60.667 -13.834 -114.666 -41.501 -161.999s-64.167 -89 -109.5 -125c-44 -34 -92.5 -65.5 -145.5 -94.5l-137.5 -75.5l2 -190h-148v270l139 64.5c56.667 26.333 101 51.5 133 75.5c50 37.333 86 73.166 108 107.499s33 74.166 33 119.499
c0 62 -18 109.833 -54 143.5s-85 57.834 -147 72.501c-46.667 11.333 -94.667 17.666 -144 18.999s-98.666 2 -147.999 2l19 143c2.66699 0 15.667 0.166992 39 0.5s45.666 0.5 66.999 0.5c62.667 0 119.834 -4.16699 171.501 -12.5s102.5 -24.166 152.5 -47.499
c63.333 -29.333 114.333 -69.5 153 -120.5s58 -114.5 58 -190.5zM574.999 0.000976562h-192v201h192v-201z" />
    <glyph glyph-name="at" unicode="@" horiz-adv-x="1842" 
d="M1721 574c0 -158.667 -56.999 -292.172 -170.999 -400.505s-266 -162.5 -456 -162.5c-56.667 0 -119.334 4.5 -188.001 13.5s-121.667 22.167 -159 39.5c-44 20.667 -81.167 49.334 -111.5 86.001s-45.5 82.334 -45.5 137.001c0 59.333 17.667 108.333 53 147
s81.666 70 138.999 94c52 22 111.333 37.833 178 47.5s125.667 16.5 177 20.5c-3.33301 42 -14.5 76.167 -33.5 102.5s-45.833 46.833 -80.5 61.5c-24.667 10.667 -51.667 18 -81 22s-65.333 6 -108 6c-23.333 0 -45.166 -0.666992 -65.499 -2
s-46.166 -2.66602 -77.499 -3.99902l14 125c7.33301 0.666992 24.833 1.83398 52.5 3.50098s63.5 2.5 107.5 2.5c69.333 0 129.666 -7 180.999 -21s95 -37.333 131 -70c34.667 -31.333 60 -70.666 76 -117.999s24 -109 24 -185v-217v-171
c90.667 16 166.167 65.5 226.5 148.5s90.5 182.167 90.5 297.5c0 171.333 -60.833 310.166 -182.5 416.499s-282.167 159.5 -481.5 159.5c-200.667 0 -362.667 -64 -486 -192s-185 -283 -185 -465c0 -211.333 74 -383.666 222 -516.999s337 -209 567 -227l-12 -117
c-272 21.333 -491.667 110.333 -659 267s-251 357.667 -251 603c0 221.333 77.5 405 232.5 551s344.5 219 568.5 219c234 0 424.833 -63 572.5 -189s221.5 -296.667 221.5 -512zM1138 313.995v69.998c0 27.333 -0.333008 60 -1 98
c-34 -1.33301 -78.333 -6.16602 -133 -14.499s-103.667 -20.833 -147 -37.5c-26 -10 -52 -26.5 -78 -49.5s-39 -51.833 -39 -86.5c0 -38 10 -68.5 30 -91.5s47 -40.167 81 -51.5c32 -10.667 64.167 -18.5 96.5 -23.5s65.5 -7.5 99.5 -7.5c12 0 28 0.166992 48 0.5
s34 0.833008 42 1.5c0 10.667 0.166992 32.834 0.5 66.501s0.5 75.5 0.5 125.5z" />
    <glyph glyph-name="A" unicode="A" horiz-adv-x="1358" 
d="M1346 53l-156 -80c-2.66699 7.33301 -23.5 57 -62.5 149l-154.5 355h-598l-162 -361c-38 -85.333 -59 -133 -63 -143l-134 72c17.333 34.667 88.833 187.5 214.5 458.5l391.5 854.5h130l393 -868zM916 605l-114 255l-126 278h-4l-123 -270.5l-119 -262.5l1 -1h484z" />
    <glyph glyph-name="B" unicode="B" horiz-adv-x="1308" 
d="M1183 394c0 -66.667 -17.1699 -126.665 -51.5029 -179.998s-84.166 -97 -149.499 -131c-58 -30 -121.667 -51.833 -191 -65.5s-148.666 -20.5 -237.999 -20.5c-66 0 -133.833 1.16699 -203.5 3.5s-108.5 3.83301 -116.5 4.5c2 128 3.33301 248.833 4 362.5
s1 222.167 1 325.5c0 196 -0.833008 351.167 -2.5 465.5s-2.5 173.833 -2.5 178.5c9.33301 0.666992 46.166 2.33398 110.499 5.00098s126.833 4 187.5 4c68.667 0 132 -4.5 190 -13.5s107 -21.5 147 -37.5c60.667 -24 108.334 -58.5 143.001 -103.5s52 -100.167 52 -165.5
c0 -68.667 -21.833 -129.5 -65.5 -182.5s-93.5 -89.167 -149.5 -108.5v-10c46 -4 90.667 -14.833 134 -32.5s81.333 -42.834 114 -75.501c28.667 -28.667 50.334 -60.334 65.001 -95.001s22 -77.334 22 -128.001zM1012 389.002c0 34 -5.99805 64.499 -17.998 91.499
s-30 52.833 -54 77.5c-22.667 22.667 -53.834 41 -93.501 55s-82.834 21 -129.501 21c-37.333 0 -67.5 -0.333008 -90.5 -1s-38.167 -1 -45.5 -1l-16 120c49.333 1.33301 92.833 7.16602 130.5 17.499s71.167 25.833 100.5 46.5c28 20 51 45.5 69 76.5s27 65.833 27 104.5
c0 40.667 -10 75.834 -30 105.501s-47.333 53.167 -82 70.5c-29.333 14 -65.333 24.5 -108 31.5s-88.334 10.5 -137.001 10.5c-31.333 0 -60.166 -0.5 -86.499 -1.5s-43.166 -1.5 -50.499 -1.5c-2 -97.333 -3.16699 -200.666 -3.5 -309.999s-0.5 -188.666 -0.5 -237.999
c0 -114.667 0.5 -229.834 1.5 -345.501s1.5 -177.5 1.5 -185.5c13.333 -0.666992 31.166 -1.5 53.499 -2.5s43.833 -1.5 64.5 -1.5c76.667 0 147.834 4 213.501 12s121.167 24.667 166.5 50c37.333 20.667 66.166 47.667 86.499 81s30.5 72.333 30.5 117z" />
    <glyph glyph-name="C" unicode="C" horiz-adv-x="1182" 
d="M1120 123l-5.5 -50.499c-3 -27.667 -5.83301 -57.834 -8.5 -90.501h-17.5h-17.5c-162.667 0 -307.334 20.5 -434.001 61.5s-230.667 100.5 -312 178.5c-56.667 54 -101.5 118.667 -134.5 194s-49.5 161.333 -49.5 258c0 86.667 16.333 165.834 49 237.501
s75.334 134.167 128.001 187.5c76.667 77.333 179.667 138.666 309 183.999s267.666 68 414.999 68h25h20c0.666992 -12 2 -31.167 4 -57.5s4.33301 -54.833 7 -85.5h-17h-17c-83.333 0 -169.666 -9.16699 -258.999 -27.5s-166.333 -45.833 -231 -82.5
c-84 -48 -148.667 -109.5 -194 -184.5s-68 -155.833 -68 -242.5c0 -90 20.333 -171.833 61 -245.5s105 -135.5 193 -185.5c72 -41.333 152.5 -71.333 241.5 -90s177.5 -28 265.5 -28h19c8.66699 0 18 0.333008 28 1z" />
    <glyph glyph-name="D" unicode="D" horiz-adv-x="1497" 
d="M1354 662c0 -117.333 -28.8301 -220.332 -86.4971 -308.999s-132.5 -160 -224.5 -214c-80 -47.333 -169.167 -83.333 -267.5 -108s-208.833 -37 -331.5 -37c-46.667 0 -92.334 0.666992 -137.001 2s-69.334 2 -74.001 2c0 3.33301 0.833008 80.166 2.5 230.499
s2.5 292.833 2.5 427.5c0 71.333 -0.166992 163 -0.5 275s-1.83301 248 -4.5 408c6.66699 0 37.167 0.333008 91.5 1s83.5 1 87.5 1c138 0 260.5 -12.333 367.5 -37s202.5 -63.667 286.5 -117c97.333 -62 169.666 -136.5 216.999 -223.5s71 -187.5 71 -301.5zM1183 663.001
c0 86.667 -18.667 165.331 -56 235.998s-96.333 131.334 -177 182.001c-75.333 47.333 -158.833 80.333 -250.5 99s-174.834 28 -249.501 28h-31h-21c-1.33301 -105.333 -2.16602 -192.666 -2.49902 -261.999s-0.5 -124.666 -0.5 -165.999
c0 -29.333 0.166992 -97.833 0.5 -205.5s0.833008 -256.834 1.5 -447.501h25.5h25.5c86.667 0 173.667 10.167 261 30.5s161 48.5 221 84.5c76 45.333 137.167 102.833 183.5 172.5s69.5 152.5 69.5 248.5z" />
    <glyph glyph-name="E" unicode="E" horiz-adv-x="1237" 
d="M1084 2c-6 0 -50.332 0.332031 -132.999 0.999023s-185 1 -307 1c-84.667 0 -162.167 -0.333008 -232.5 -1s-129.833 -1 -178.5 -1c1.33301 38.667 2.5 122.334 3.5 251.001s1.5 261.667 1.5 399c0 75.333 -0.333008 175 -1 299s-2 252.333 -4 385
c47.333 0 106.5 -0.333008 177.5 -1s144.167 -1 219.5 -1c127.333 0 231 0.333008 311 1s123.333 1 130 1v-139c-6.66699 0 -48.5 0.5 -125.5 1.5s-172.833 1.5 -287.5 1.5c-50 0 -99 -0.166992 -147 -0.5s-86 -0.5 -114 -0.5c0 -75.333 -0.666992 -150.5 -2 -225.5
s-2 -145.833 -2 -212.5c30 0 65.5 -0.166992 106.5 -0.5s77.5 -0.5 109.5 -0.5c117.333 0 222.166 0.5 314.499 1.5s141.5 1.5 147.5 1.5v-138c-5.33301 0 -60.333 0.5 -165 1.5s-200.334 1.5 -287.001 1.5c-32 0 -70.167 -0.166992 -114.5 -0.5s-81.5 -0.5 -111.5 -0.5
c0 -126 0.333008 -226 1 -300s1.33398 -136 2.00098 -186c39.333 -0.666992 87 -1.16699 143 -1.5s116.333 -0.5 181 -0.5c99.333 0 182.833 0.333008 250.5 1s105.5 1 113.5 1v-139z" />
    <glyph glyph-name="F" unicode="F" horiz-adv-x="1167" 
d="M1053 1197c-11.333 0 -55.001 0.500977 -131.001 1.50098s-169.333 1.5 -280 1.5c-50 0 -95.833 -0.166992 -137.5 -0.5s-77.167 -0.5 -106.5 -0.5c0 -75.333 -0.666992 -157 -2 -245s-2 -165.333 -2 -232c8 0 31 -0.166992 69 -0.5s74.333 -0.5 109 -0.5
c109.333 0 212.5 0.5 309.5 1.5s150.833 1.5 161.5 1.5v-138c-12.667 0 -74.167 0.5 -184.5 1.5s-209.166 1.5 -296.499 1.5c-27.333 0 -60 -0.166992 -98 -0.5s-61.333 -0.5 -70 -0.5c0 -118 0.5 -229.5 1.5 -334.5s1.83301 -189.5 2.5 -253.5h-165
c1.33301 40 2.5 111.167 3.5 213.5s1.5 249.5 1.5 441.5c0 75.333 -0.333008 174.666 -1 297.999s-2 251 -4 383c48.667 0 108.167 -0.333008 178.5 -1s144.5 -1 222.5 -1c116.667 0 213 0.333008 289 1s119.333 1 130 1v-139z" />
    <glyph glyph-name="G" unicode="G" horiz-adv-x="1410" 
d="M1223 688c-1.33301 -48 -2.66406 -104.169 -3.99707 -168.502s-2 -117.5 -2 -159.5c0 -67.333 0.666992 -142.5 2 -225.5s2 -129.167 2 -138.5c-6 -0.666992 -26 -2.16699 -60 -4.5s-67 -3.5 -99 -3.5c-158.667 0 -298.834 17 -420.501 51s-227.167 93.333 -316.5 178
c-55.333 52 -99.833 116.5 -133.5 193.5s-50.5 164.833 -50.5 263.5c0 121.333 32.167 229.833 96.5 325.5s152.833 172.834 265.5 231.501c76.667 40 163.834 70.167 261.501 90.5s199.5 30.5 305.5 30.5c16.667 0 32.167 -0.166992 46.5 -0.5s27.166 -0.5 38.499 -0.5
l12 -144c-2.66699 0 -13.334 0.166992 -32.001 0.5s-33.667 0.5 -45 0.5c-102 0 -195.333 -8.66699 -280 -26s-158.667 -42.666 -222 -75.999c-86 -45.333 -153.5 -107 -202.5 -185s-73.5 -161 -73.5 -249c0 -111.333 25.5 -203.5 76.5 -276.5
s116.833 -130.167 197.5 -171.5c72 -36.667 148.167 -62.5 228.5 -77.5s163.166 -22.5 248.499 -22.5c0 10.667 -0.333008 62.5 -1 155.5s-2 229.167 -4 408.5h165z" />
    <glyph glyph-name="H" unicode="H" horiz-adv-x="1599" 
d="M1366 0l-164.999 -0.000976562c0.666992 40 1.5 113.833 2.5 221.5s1.5 241.834 1.5 402.501c-10 0 -69.333 0.166992 -178 0.5s-190.334 0.5 -245.001 0.5c-66 0 -145.167 -0.166992 -237.5 -0.5s-142.5 -0.5 -150.5 -0.5c0 -185.333 0.5 -325.666 1.5 -420.999
s1.83301 -163 2.5 -203h-165c0.666992 40 1.66699 111 3 213s2 274.333 2 517c0 73.333 -0.5 162.666 -1.5 267.999s-2.16699 219 -3.5 341h165c0 -101.333 -0.666992 -200.833 -2 -298.5s-2 -190.5 -2 -278.5c8 0 51.5 -0.166992 130.5 -0.5s165.167 -0.5 258.5 -0.5
c72 0 158.667 0.166992 260 0.5s155.333 0.5 162 0.5c0 88 -0.666992 180.667 -2 278s-2 197 -2 299h165c-1.33301 -100.667 -2.5 -217 -3.5 -349s-1.5 -239.667 -1.5 -323c0 -196 0.666992 -346.167 2 -450.5s2.33301 -176.5 3 -216.5z" />
    <glyph glyph-name="I" unicode="I" horiz-adv-x="635" 
d="M400 0l-165 -0.000976562c0.666992 40 1.66699 111.333 3 214s2 250 2 442c0 76 -0.333008 175.667 -1 299s-2 251.333 -4 384h165c-1.33301 -95.333 -2.5 -206.166 -3.5 -332.499s-1.5 -229.5 -1.5 -309.5c0 -202.667 0.666992 -359.5 2 -470.5s2.33301 -186.5 3 -226.5
z" />
    <glyph glyph-name="J" unicode="J" horiz-adv-x="770" 
d="M564 1339c0 -52.667 -0.499023 -109.332 -1.49902 -169.999s-1.5 -155.334 -1.5 -284.001v-211v-234c0 -57.333 -7 -111 -21 -161s-38.667 -95 -74 -135c-36 -41.333 -86.833 -77 -152.5 -107s-151.834 -50 -258.501 -60l-20 137
c73.333 8.66699 131.833 19.167 175.5 31.5s80.5 32.5 110.5 60.5c29.333 27.333 50.333 60.833 63 100.5s19 91.167 19 154.5c0 68.667 0.166992 136.167 0.5 202.5s0.5 128.833 0.5 187.5c0 142 -0.666992 245.667 -2 311s-2.33301 124.333 -3 177h165z" />
    <glyph glyph-name="K" unicode="K" horiz-adv-x="1292" 
d="M398 0h-165c1.33301 40 2.5 128 3.5 264s1.5 299.667 1.5 491c0 78 -0.5 168.333 -1.5 271s-2.16699 207 -3.5 313h165c-1.33301 -102 -2.33301 -217.333 -3 -346s-1 -239.667 -1 -333c0 -192 0.5 -340 1.5 -444s1.83301 -176 2.5 -216zM1265 92l-115 -110l-461 433
l-254 230v4l265.5 273l406.5 432l113 -101l-353 -351.5l-228 -234.5v-2l197.5 -182.5z" />
    <glyph glyph-name="L" unicode="L" horiz-adv-x="1104" 
d="M1053 2c-8 0 -50.166 0.332031 -126.499 0.999023s-173.833 1 -292.5 1c-78 0 -152.167 -0.333008 -222.5 -1s-129.833 -1 -178.5 -1c1.33301 114.667 2.5 230.834 3.5 348.501s1.5 233.167 1.5 346.5c0 189.333 -0.666992 333.666 -2 432.999s-2.33301 169 -3 209h165
c-1.33301 -86 -2.33301 -185.333 -3 -298s-1 -205 -1 -277c0 -175.333 0.333008 -321.666 1 -438.999s1 -179.333 1 -186c27.333 0 60.333 -0.166992 99 -0.5s73.667 -0.5 105 -0.5c119.333 0 223.166 0.5 311.499 1.5s135.5 1.5 141.5 1.5v-139z" />
    <glyph glyph-name="M" unicode="M" horiz-adv-x="1939" 
d="M1849 20l-163 -31.999l-206 1123h-2l-173 -376l-261 -592h-138l-263 594.5l-169 372.5h-2c-4 -17.333 -31 -144.833 -81 -382.5s-97.667 -483.5 -143 -737.5l-154 28c66.667 287.333 129 572 187 854s89.667 435 95 459l159 23l141.5 -322l309.5 -689h6l288 652l158 359
l151 -12c2 -14.667 29.667 -160.834 83 -438.501z" />
    <glyph glyph-name="N" unicode="N" horiz-adv-x="1618" 
d="M1385 1339c-1.33301 -104.667 -2.5 -224.333 -3.5 -359s-1.5 -231.667 -1.5 -291c0 -189.333 0.666992 -339.833 2 -451.5s2 -171.167 2 -178.5l-133 -65l-564.5 736.5l-303.5 379.5l-2 -1c0 -178.667 1.16699 -398.167 3.5 -658.5s3.83301 -410.5 4.5 -450.5h-156
c0.666992 16.667 1.66699 76 3 178s2 244 2 426c0 72.667 -0.333008 169.167 -1 289.5s-2 247.833 -4 382.5l152 72l306.5 -389l543.5 -680l2 1c0 102.667 -1.33301 275.5 -4 518.5s-4 423.167 -4 540.5h156z" />
    <glyph glyph-name="O" unicode="O" horiz-adv-x="1548" 
d="M1419 669c0 -108 -18.499 -207.166 -55.499 -297.499s-85.167 -164.833 -144.5 -223.5c-66 -65.333 -136 -112.833 -210 -142.5s-153.333 -44.5 -238 -44.5c-82.667 0 -160.667 14.167 -234 42.5s-139.333 70.5 -198 126.5
c-64.667 60.667 -116.834 137.167 -156.501 229.5s-59.5 196.166 -59.5 311.499c0 102.667 15.667 196.167 47 280.5s78.333 160.166 141 227.499c58 62.667 127 111.167 207 145.5s164.333 51.5 253 51.5c90 0 173.333 -16.167 250 -48.5s143 -77.166 199 -134.499
c65.333 -66.667 114.833 -145.167 148.5 -235.5s50.5 -186.5 50.5 -288.5zM1248 653.001c0 86.667 -14.499 171.831 -43.499 255.498s-73.167 153.834 -132.5 210.501c-40 38.667 -84.833 68.667 -134.5 90s-105.167 32 -166.5 32c-60 0 -115.833 -10.833 -167.5 -32.5
s-98.5 -53.5 -140.5 -95.5c-53.333 -53.333 -94.833 -119.333 -124.5 -198s-44.5 -160.667 -44.5 -246c0 -96 15.167 -182 45.5 -258s73.166 -140.333 128.499 -193c38 -36.667 83 -66.167 135 -88.5s107.667 -33.5 167 -33.5s114.833 10.833 166.5 32.5
s98.5 52.834 140.5 93.501c50 48 91 109.167 123 183.5s48 156.833 48 247.5z" />
    <glyph glyph-name="P" unicode="P" horiz-adv-x="1157" 
d="M1071 881c0 -97.333 -31.501 -185.333 -94.501 -264s-147.167 -132 -252.5 -160c-45.333 -12 -94.833 -20.667 -148.5 -26s-113.5 -8 -179.5 -8l2 -423h-165c0.666992 40 1.66699 114.167 3 222.5s2 275.833 2 502.5c0 72 -0.333008 160.333 -1 265s-2 221 -4 349
c28.667 0.666992 56.834 1 84.501 1h67.5c115.333 0 213.5 -7.33301 294.5 -22s149.167 -39.667 204.5 -75c60.667 -38 107 -87.5 139 -148.5s48 -132.167 48 -213.5zM899.999 881c0 68.667 -15.667 127.167 -47 175.5s-79.333 86.5 -144 114.5
c-40 17.333 -83.333 28.166 -130 32.499s-94.667 6.5 -144 6.5h-18h-19c0 -7.33301 -0.666992 -57.333 -2 -150s-2 -166 -2 -220c0 -49.333 0.166992 -107.666 0.5 -174.999s0.5 -105.666 0.5 -114.999h21h19c44.667 0 92.167 3 142.5 9s93.5 17 129.5 33
c62.667 26.667 110.5 63.667 143.5 111s49.5 106.666 49.5 177.999z" />
    <glyph glyph-name="Q" unicode="Q" horiz-adv-x="1548" 
d="M771 -39c-82 0 -160.169 14.668 -234.502 44.001s-140.166 71 -197.499 125c-64.667 60.667 -116.834 137.167 -156.501 229.5s-59.5 196.166 -59.5 311.499c0 102.667 15.667 196.167 47 280.5s78.333 160.166 141 227.499c58 62.667 127 111.167 207 145.5
s164.333 51.5 253 51.5c90 0 173.333 -16.167 250 -48.5s143 -77.166 199 -134.499c65.333 -66.667 114.833 -145.167 148.5 -235.5s50.5 -186.5 50.5 -288.5s-23.167 -205.833 -69.5 -311.5s-112.166 -192.167 -197.499 -259.5
c-65.333 -52 -130.166 -87.833 -194.499 -107.5s-126.5 -29.5 -186.5 -29.5zM1248 653.001c0 86.667 -14.499 171.832 -43.499 255.499s-73.167 153.834 -132.5 210.501c-40 38.667 -84.833 68.667 -134.5 90s-105.167 32 -166.5 32c-60 0 -115.833 -10.833 -167.5 -32.5
s-98.5 -53.5 -140.5 -95.5c-53.333 -53.333 -94.833 -119.333 -124.5 -198s-44.5 -160.667 -44.5 -246c0 -96 15.167 -182 45.5 -258s73.166 -140.333 128.499 -193c38 -36.667 83 -66.167 135 -88.5s107.667 -33.5 167 -33.5c39.333 0 86.5 6.83301 141.5 20.5
s106.833 43.167 155.5 88.5c56.667 52.667 101 119 133 199s48 163 48 249zM769.999 424.999l122 98l203 -244.5l348 -401.5l-96 -87l-369 404.5z" />
    <glyph glyph-name="R" unicode="R" horiz-adv-x="1298" 
d="M1266 80l-125 -102.999c-14.667 15.333 -66.667 73.166 -156 173.499l-413 469.5l1 9c25.333 6.66699 59 21.167 101 43.5s77.333 46.5 106 72.5c24.667 22.667 46.167 50.667 64.5 84s27.5 78 27.5 134c0 51.333 -13.5 95.5 -40.5 132.5s-64.167 64.167 -111.5 81.5
c-38.667 14.667 -79.334 23.5 -122.001 26.5s-82 4.5 -118 4.5c-24 0 -42.333 -0.166992 -55 -0.5s-22 -0.5 -28 -0.5c-1.33301 -126.667 -2.16602 -238.334 -2.49902 -335.001s-0.5 -165 -0.5 -205c0 -91.333 0.5 -215.333 1.5 -372s1.83301 -255 2.5 -295h-165
c0.666992 40 1.66699 117.5 3 232.5s2 258.167 2 429.5v185c0 90 -1.66699 254 -5 492c6.66699 0 40 0.666992 100 2s115.333 2 166 2c58 0 114.333 -3.33301 169 -10s108 -21 160 -43c66 -28 118.333 -69.167 157 -123.5s58 -118.166 58 -191.499
c0 -94.667 -29.167 -173.5 -87.5 -236.5s-113.5 -109.833 -165.5 -140.5v-5c91.333 -106.667 191.5 -216.667 300.5 -330z" />
    <glyph glyph-name="S" unicode="S" horiz-adv-x="1032" 
d="M903 377c0 -68.667 -16.1641 -128.834 -48.4971 -180.501s-75.833 -93.5 -130.5 -125.5c-50 -29.333 -107.333 -51.5 -172 -66.5s-136.334 -22.5 -215.001 -22.5c-42.667 0 -86.834 1.33301 -132.501 4s-72.167 4.33398 -79.5 5.00098l-8 144
c9.33301 -1.33301 35.333 -3.83301 78 -7.5s93 -5.5 151 -5.5c35.333 0 81 4.66699 137 14s99 21.333 129 36c39.333 19.333 69.5 42.666 90.5 69.999s31.5 62 31.5 104c0 44.667 -10.5 82.5 -31.5 113.5s-55.833 60.833 -104.5 89.5c-31.333 18.667 -72 39.667 -122 63
s-95 47.333 -135 72c-68 41.333 -116.5 86.5 -145.5 135.5s-43.5 103.5 -43.5 163.5c0 61.333 13.167 114.5 39.5 159.5s60.5 83.5 102.5 115.5c42.667 32 94.834 56 156.501 72s130.167 24 205.5 24c41.333 0 83.166 -1.16699 125.499 -3.5s66.5 -3.83301 72.5 -4.5
l14 -145c-6 0.666992 -30.333 3 -73 7s-95.334 6 -158.001 6c-37.333 0 -75.833 -4.16699 -115.5 -12.5s-74.5 -21.166 -104.5 -38.499c-26.667 -15.333 -49.334 -36.666 -68.001 -63.999s-28 -59.333 -28 -96c0 -32.667 9.83301 -64.167 29.5 -94.5s56.5 -61.5 110.5 -93.5
c27.333 -16.667 63.5 -35.834 108.5 -57.501s89.167 -45.167 132.5 -70.5c66.667 -39.333 116.834 -84.5 150.501 -135.5s50.5 -109.167 50.5 -174.5z" />
    <glyph glyph-name="T" unicode="T" horiz-adv-x="1167" 
d="M1157 1197c-10.667 0 -55.3311 0.333008 -133.998 1s-197.667 1 -357 1l-3 -311c-0.666992 -70.667 -1 -167 -1 -289c0 -117.333 0.5 -236.5 1.5 -357.5s1.83301 -201.5 2.5 -241.5h-165c1.33301 40 2.5 121.667 3.5 245s1.5 244 1.5 362v276.5
c0 68.333 -1 173.5 -3 315.5c-142 0.666992 -257.167 0.5 -345.5 -0.5s-136.833 -1.5 -145.5 -1.5v139c68.667 0 152.167 -0.333008 250.5 -1s203.166 -1 314.499 -1c161.333 0 296.166 0.333008 404.499 1s166.833 1 175.5 1v-139z" />
    <glyph glyph-name="U" unicode="U" horiz-adv-x="1547" 
d="M1324 1339c0 -128 -0.666992 -233.834 -2 -317.501s-2 -156.5 -2 -218.5c0 -76 0.166992 -140.833 0.5 -194.5s0.5 -100.167 0.5 -139.5c0 -77.333 -11.5 -145.5 -34.5 -204.5s-57.833 -110.5 -104.5 -154.5s-104 -78.5 -172 -103.5s-146.667 -37.5 -236 -37.5
s-168 12.333 -236 37s-125.667 59.334 -173 104.001c-46.667 44 -81.5 95.5 -104.5 154.5s-34.5 127.167 -34.5 204.5c0 39.333 0.166992 85.833 0.5 139.5s0.5 118.5 0.5 194.5c0 62 -0.666992 134.833 -2 218.5s-2 189.5 -2 317.5h165
c-0.666992 -16.667 -1.5 -73.5 -2.5 -170.5s-1.5 -224.5 -1.5 -382.5c0 -48 0.166992 -97.667 0.5 -149s0.5 -104 0.5 -158c0 -122 35 -214.5 105 -277.5s164.667 -94.5 284 -94.5c129.333 0 226.333 30 291 90s97 154 97 282c0 54 0.166992 106.667 0.5 158
s0.5 101 0.5 149c0 158 -0.666992 287.333 -2 388s-2 155.667 -2 165h165z" />
    <glyph glyph-name="V" unicode="V" horiz-adv-x="1358" 
d="M1341 1292c-3.33301 -8 -73.834 -160.001 -211.501 -456.001l-394.5 -856h-133l-396 873l-198 431l156 78c4.66699 -13.333 64.834 -152.166 180.501 -416.499l334.5 -746.5h2l340.5 756c117.667 264.667 178.5 401 182.5 409z" />
    <glyph glyph-name="W" unicode="W" horiz-adv-x="2140" 
d="M2060 1309c-112.667 -295.333 -217.501 -585.167 -314.501 -869.5s-147.833 -432.833 -152.5 -445.5h-139c-3.33301 12.667 -39.166 118.834 -107.499 318.501s-158.5 448.167 -270.5 745.5h-2l-270.5 -705.5l-131.5 -358.5h-142
c-5.33301 19.333 -48.166 150.166 -128.499 392.499s-187.5 545.5 -321.5 909.5l164 64c2.66699 -9.33301 41.667 -126.666 117 -351.999l259 -759h2c102.667 258.667 192.167 495.667 268.5 711s116.166 328 119.499 338h155c2.66699 -11.333 43.167 -133.333 121.5 -366
l238.5 -683h2c106.667 291.333 196.667 546.666 270 765.999s111.333 334.333 114 345z" />
    <glyph glyph-name="X" unicode="X" horiz-adv-x="1257" 
d="M1210 86l-131.002 -111c-8 11.333 -51.333 69 -130 173l-320 419h-2l-311.5 -397c-92.333 -120 -141.5 -184.333 -147.5 -193l-121 101c4.66699 5.33301 44.834 53.833 120.501 145.5l366.5 453.5v2l-282 363.5c-107.333 137 -166 211.5 -176 223.5l131 98
c8.66699 -12 54.334 -72 137.001 -180l292 -380h2l283 364l152 196l119 -88l-186.5 -234l-281.5 -349v-2l327.5 -407c99.667 -124 152.5 -190 158.5 -198z" />
    <glyph glyph-name="Y" unicode="Y" horiz-adv-x="1186" 
d="M1176 1274l-198 -248.999l-306 -386c-1.33301 -120.667 -1.16602 -247.334 0.500977 -380.001s2.83398 -219 3.50098 -259h-165c1.33301 40 2.66602 127.5 3.99902 262.5s1.66602 256.5 0.999023 364.5l-302 389.5l-194 245.5l132 100l157 -210l290 -383h2l295.5 381.5
c103 133.667 157.167 204.167 162.5 211.5z" />
    <glyph glyph-name="Z" unicode="Z" horiz-adv-x="1223" 
d="M1174 2c-115.333 0.666992 -214.664 1.16797 -297.997 1.50098s-159 0.5 -227 0.5c-150 0 -275.833 -0.333008 -377.5 -1s-158.167 -1 -169.5 -1l-45 104l384.5 478.5l476.5 612.5l-1 2c-62.667 0.666992 -118.667 1 -168 1h-124c-127.333 0 -239.833 -0.5 -337.5 -1.5
s-153.167 -1.5 -166.5 -1.5v139c53.333 0 118.666 -0.333008 195.999 -1s161.666 -1 252.999 -1c140 0 259.667 0.333008 359 1s155 1 167 1l49 -104l-300.5 -375.5l-558.5 -706.5l1 -2c42 -0.666992 92 -1.33398 150 -2.00098s123.333 -1 196 -1
c143.333 0 267.666 0.833008 372.999 2.5s161.333 2.5 168 2.5v-148z" />
    <glyph glyph-name="bracketleft" unicode="[" horiz-adv-x="850" 
d="M778 -404l-580.001 0.00195312c0 23.333 0.666992 106.5 2 249.5s2 350.833 2 623.5c0 105.333 -0.166992 242.166 -0.5 410.499s-1.5 333.833 -3.5 496.5h580v-118h-436c-1.33301 -164 -2.16602 -310.5 -2.49902 -439.5s-0.5 -242.167 -0.5 -339.5
c0 -206.667 0.666992 -369.834 2 -489.501s2 -211.5 2 -275.5h435v-118z" />
    <glyph glyph-name="backslash" unicode="\" horiz-adv-x="683" 
d="M726 -382l-127 -47c-9.33301 25.333 -44.833 127.333 -106.5 306l-217.5 611l-155.5 422l-161.5 430l127 46l155 -434.5l155 -427.5l218.5 -600.5z" />
    <glyph glyph-name="bracketright" unicode="]" horiz-adv-x="850" 
d="M652 -404l-580.001 -0.000976562v118h435c0 70.667 0.666992 172.334 2 305.001s2 286 2 460c0 88 -0.166992 205.667 -0.5 353s-1.16602 289.333 -2.49902 426h-436v118h580c-2 -162 -3.16699 -328.667 -3.5 -500s-0.5 -307 -0.5 -407c0 -186.667 0.666992 -373 2 -559
s2 -290.667 2 -314z" />
    <glyph glyph-name="asciicircum" unicode="^" horiz-adv-x="1414" 
d="M1151 470l-105 -57l-337 715h-4l-337 -715l-103 57l391 812h100z" />
    <glyph glyph-name="underscore" unicode="_" horiz-adv-x="1024" 
d="M1024 -269h-1024v112h1024v-112z" />
    <glyph glyph-name="grave" unicode="`" horiz-adv-x="800" 
d="M561 1224l-62 -93l-439 232l72 113z" />
    <glyph glyph-name="a" unicode="a" horiz-adv-x="1052" 
d="M878 570c0 -165.333 -0.334961 -299.999 -1.00195 -403.999s-1 -160 -1 -168c-6.66699 -0.666992 -37.667 -3.16699 -93 -7.5s-126.666 -6.5 -213.999 -6.5c-54.667 0 -109.667 5 -165 15s-103 24.333 -143 43c-53.333 24.667 -96.5 58.334 -129.5 101.001
s-49.5 94 -49.5 154c0 63.333 19.5 118.166 58.5 164.499s93.167 83.833 162.5 112.5c43.333 18 101.166 34.167 173.499 48.5s154.833 25.166 247.5 32.499c-4 52 -17 94.667 -39 128s-54.333 58.666 -97 75.999c-29.333 12 -62 20.5 -98 25.5s-78 7.5 -126 7.5
c-30 0 -55.5 -0.666992 -76.5 -2s-49.5 -3 -85.5 -5l16 133c10 0.666992 29.833 1.83398 59.5 3.50098s70.167 2.5 121.5 2.5c78.667 0 148.834 -8.16699 210.501 -24.5s112.834 -42.833 153.501 -79.5c38 -34.667 66.667 -77.5 86 -128.5s29 -124.833 29 -221.5z
M724.998 329.001l-0.000976562 85.998c0 34.667 -0.333008 74.667 -1 120c-29.333 -1.33301 -80.666 -7.16602 -153.999 -17.499s-135 -25.166 -185 -44.499c-37.333 -14 -70.5 -35 -99.5 -63s-43.5 -62.667 -43.5 -104c0 -45.333 12.333 -81.833 37 -109.5
s58.334 -48.834 101.001 -63.501c32.667 -11.333 68.834 -19.5 108.501 -24.5s81.5 -7.5 125.5 -7.5c13.333 0 29.666 0.333008 48.999 1s39.666 1.33398 60.999 2.00098c0 4.66699 0.166992 26.667 0.5 66s0.5 92.333 0.5 159z" />
    <glyph glyph-name="b" unicode="b" horiz-adv-x="1134" 
d="M1047 514c0 -109.333 -26.833 -203.331 -80.5 -281.998s-126.167 -137.334 -217.5 -176.001c-59.333 -25.333 -127 -43.833 -203 -55.5s-167.333 -17.5 -274 -17.5h-45h-44c0.666992 51.333 1.5 146.666 2.5 285.999s1.5 307 1.5 503c0 120 -0.333008 236.333 -1 349
s-1.66699 227.667 -3 345h158l-3 -461c136.667 -1.33301 246.167 -13.5 328.5 -36.5s150.833 -54.167 205.5 -93.5c56.667 -40.667 100 -91.5 130 -152.5s45 -130.5 45 -208.5zM887 510.002c0 80.667 -22.834 148.333 -68.501 203s-104.5 94.334 -176.5 119.001
c-37.333 12.667 -77.666 22.5 -120.999 29.5s-88 10.5 -134 10.5h-26.5h-22.5c0 -14.667 -0.166992 -67.834 -0.5 -159.501s-0.5 -167.167 -0.5 -226.5c0 -111.333 0.333008 -190 1 -236s1 -92.667 1 -140c73.333 0 140.333 5.5 201 16.5s113 28.167 157 51.5
c64 34 111.667 78.833 143 134.5s47 121.5 47 197.5z" />
    <glyph glyph-name="c" unicode="c" horiz-adv-x="930" 
d="M850 130l-12.002 -134.001h-25.5h-29.5c-86 0 -166.333 8.16699 -241 24.5s-141.667 40.5 -201 72.5c-80.667 44 -143.667 102.333 -189 175s-68 153.667 -68 243c0 80 20.667 153.5 62 220.5s95.333 121.833 162 164.5c60 38.667 131.833 68.167 215.5 88.5
s170.167 30.5 259.5 30.5h22.5h18.5l8 -134h-15.5h-15.5c-74 0 -137.167 -4.5 -189.5 -13.5s-103.166 -23.833 -152.499 -44.5c-66 -26.667 -118.333 -68.667 -157 -126s-58 -118.666 -58 -183.999c0 -78 18.167 -143.5 54.5 -196.5s84.5 -93.833 144.5 -122.5
c46.667 -22.667 99.334 -39 158.001 -49s120.667 -15 186 -15h36h27z" />
    <glyph glyph-name="d" unicode="d" horiz-adv-x="1135" 
d="M952 -16c-4 0 -16.667 -0.168945 -38 -0.501953s-38.333 -0.5 -51 -0.5c-126 0 -224.667 5.5 -296 16.5s-141 32.833 -209 65.5c-88.667 42.667 -156 99.334 -202 170.001s-69 149.334 -69 236.001c0 101.333 25.667 191.166 77 269.499s125.333 139.5 222 183.5
c56.667 26.667 121.667 46.834 195 60.501s145.333 20.5 216 20.5l-3 461h158c0 -13.333 -0.666992 -106.666 -2 -279.999s-2 -349 -2 -527c0 -140.667 0.5 -267.834 1.5 -381.501zM797 686.998l0.000976562 87.999v97c-66.667 0 -129.5 -5.66699 -188.5 -17
s-109.5 -26.666 -151.5 -45.999c-66.667 -30.667 -118.334 -74.5 -155.001 -131.5s-55 -123.833 -55 -200.5c0 -68.667 17.667 -127.667 53 -177s79.333 -88 132 -116c46 -24.667 97.833 -43.167 155.5 -55.5s118.167 -18.5 181.5 -18.5h13h13c0 6 0.333008 55.833 1 149.5
s1 236.167 1 427.5z" />
    <glyph glyph-name="e" unicode="e" horiz-adv-x="1044" 
d="M963 543h-723c0.666992 -70.667 15.667 -135.5 45 -194.5s74.333 -107.833 135 -146.5c38.667 -24.667 82.667 -43.167 132 -55.5s108.666 -18.5 177.999 -18.5c38 0 72.833 1 104.5 3s51.167 3.33301 58.5 4l-18 -133c-5.33301 -0.666992 -23 -1.83398 -53 -3.50098
s-65.333 -2.5 -106 -2.5c-106.667 0 -199.5 13.833 -278.5 41.5s-143.833 65.834 -194.5 114.501c-43.333 40.667 -80.166 92.667 -110.499 156s-45.5 133.666 -45.5 210.999c0 76 11.333 144.667 34 206s56.667 118.333 102 171c39.333 45.333 88.166 80.333 146.499 105
s118.833 37 181.5 37c62 0 117 -9.33301 165 -28s89.667 -47 125 -85c39.333 -42.667 69.333 -95.167 90 -157.5s31.334 -137.166 32.001 -224.499zM808 655c-10.667 82.667 -38.832 147.5 -84.499 194.5s-105.834 70.5 -180.501 70.5s-137 -23.833 -187 -71.5
s-84.667 -112.167 -104 -193.5h556z" />
    <glyph glyph-name="f" unicode="f" horiz-adv-x="752" 
d="M762 1339l-21.999 -0.000976562h-28c-62.667 0 -112 -5.66699 -148 -17s-68.333 -30.666 -97 -57.999c-22 -20.667 -38.833 -49.167 -50.5 -85.5s-17.5 -76.833 -17.5 -121.5v-45h340v-117h-340c0 -216 0.5 -416.5 1.5 -601.5s1.5 -282.833 1.5 -293.5h-158
c0 10.667 0.666992 104.5 2 281.5s2 381.5 2 613.5h-197v117h197v49c0 58.667 7.66699 111.167 23 157.5s42.333 89.833 81 130.5c33.333 34.667 77.666 63 132.999 85s123.333 33 204 33h30.5h23.5z" />
    <glyph glyph-name="g" unicode="g" horiz-adv-x="1128" 
d="M948 1021c0 -14.667 -0.498047 -80.6611 -1.49805 -197.994s-1.5 -229 -1.5 -335c0 -72 0.333008 -145.333 1 -220s1 -143 1 -205c0 -114 -19.5 -203.333 -58.5 -268s-94.5 -116.334 -166.5 -155.001c-56.667 -29.333 -125.667 -52.5 -207 -69.5s-180 -25.5 -296 -25.5
l-16 127c78 1.33301 148 5.5 210 12.5s118.333 19.833 169 38.5c78 29.333 132.333 68.166 163 116.499s46.667 107.166 48 176.499h-24h-24c-79.333 0 -161 9.5 -245 28.5s-155.667 49.167 -215 90.5c-58.667 39.333 -106.334 90.666 -143.001 153.999
s-55 141.666 -55 234.999s25.667 175.666 77 246.999s120 128 206 170c61.333 30 128.166 50.833 200.499 62.5s159.833 17.5 262.5 17.5h55.5h59.5zM795.002 489.006c0 48 -0.169922 108 -0.50293 180s-1.16602 147 -2.49902 225h-13h-13c-62 0 -116.167 -4 -162.5 -12
s-95.166 -23 -146.499 -45c-68 -29.333 -120 -72.333 -156 -129s-54 -120.667 -54 -192c0 -73.333 17.833 -136 53.5 -188s83.5 -92.333 143.5 -121c40.667 -19.333 87.834 -35 141.501 -47s110.5 -18 170.5 -18h20h17c0 8 0.333008 45.167 1 111.5s1 144.833 1 235.5z" />
    <glyph glyph-name="h" unicode="h" horiz-adv-x="1190" 
d="M1013 0l-158.001 -0.00195312c0.666992 20 1.5 80.167 2.5 180.5s1.5 166.5 1.5 198.5c0 34.667 -0.166992 85.834 -0.5 153.501s-0.833008 117.167 -1.5 148.5c-2 76.667 -16.667 131.667 -44 165s-74.666 50 -141.999 50c-38 0 -86.667 -11.5 -146 -34.5
s-122 -54.167 -188 -93.5l4 -768h-158c0.666992 26 1.5 130.833 2.5 314.5s1.5 334.834 1.5 453.501c0 77.333 -0.166992 174.833 -0.5 292.5s-1.5 252.834 -3.5 405.501h158l-4 -569l1 -1c95.333 53.333 173.333 90.333 234 111s112.667 31 156 31
c85.333 0 153.833 -26.833 205.5 -80.5s77.5 -127.167 77.5 -220.5c0 -84 -0.5 -156.5 -1.5 -217.5s-1.5 -110.5 -1.5 -148.5c0 -60.667 0.666992 -130.334 2 -209.001s2.33301 -132.667 3 -162z" />
    <glyph glyph-name="i" unicode="i" horiz-adv-x="545" 
d="M361 1206h-176v172h176v-172zM352 0l-158 -0.00195312c0.666992 10.667 1.5 76.334 2.5 197.001s1.5 220.334 1.5 299.001c0 68.667 -0.166992 144.167 -0.5 226.5s-1.5 178.833 -3.5 289.5h158c-1.33301 -96 -2.5 -185.833 -3.5 -269.5s-1.5 -158.167 -1.5 -223.5
c0 -155.333 0.833008 -280 2.5 -374s2.5 -142.333 2.5 -145z" />
    <glyph glyph-name="j" unicode="j" horiz-adv-x="553" 
d="M382 1206h-176v172h176v-172zM372 6c0 -63.333 -9 -122.999 -27 -178.999s-48.667 -104 -92 -144c-38 -34.667 -85.5 -63.834 -142.5 -87.501s-131.833 -40.167 -224.5 -49.5l-34 122c64 7.33301 120 18.333 168 33s86 34.667 114 60c30 27.333 51.667 62 65 104
s20 99.333 20 172c0 167.333 -0.666992 370.333 -2 609s-2 360.667 -2 366h157c0 -9.33301 -0.333008 -61 -1 -155s-1 -206 -1 -336c0 -84 0.333008 -172.167 1 -264.5s1 -175.833 1 -250.5z" />
    <glyph glyph-name="k" unicode="k" horiz-adv-x="1075" 
d="M341 0l-158 -0.000976562c0.666992 12 1.5 102 2.5 270s1.5 340 1.5 516c0 75.333 -0.166992 170.333 -0.5 285s-1.5 246.334 -3.5 395.001h158c-2 -118 -3.16699 -255 -3.5 -411s-0.5 -248.667 -0.5 -278c0 -68.667 0.666992 -212.5 2 -431.5s2 -334.167 2 -345.5z
M1057 19.999l-95 -87l-394.5 392l-191.5 184v2c16 14.667 86 85.5 210 212.5l301 312.5l97 -100l-249.5 -242.5l-163.5 -159.5v-1l146.5 -154z" />
    <glyph glyph-name="l" unicode="l" horiz-adv-x="546" 
d="M352 0l-158 -0.000976562c0.666992 8 1.5 105.5 2.5 292.5s1.5 342.167 1.5 465.5c0 79.333 -0.166992 179.5 -0.5 300.5s-1.5 256.833 -3.5 407.5h158c-1.33301 -102.667 -2.33301 -221.5 -3 -356.5s-1 -248.833 -1 -341.5c0 -202 0.666992 -378.667 2 -530
s2 -230.666 2 -237.999z" />
    <glyph glyph-name="m" unicode="m" horiz-adv-x="1794" 
d="M1617 0l-158 0.00292969c0.666992 7.33301 1.5 54 2.5 140s1.5 167 1.5 243c0 30 -0.166992 79.167 -0.5 147.5s-0.833008 119.5 -1.5 153.5c-2 80 -17.833 135.333 -47.5 166s-75.5 46 -137.5 46c-36.667 0 -80.167 -9 -130.5 -27s-107.166 -46 -170.499 -84
c0 -3.33301 0.166992 -10 0.5 -20s0.5 -23 0.5 -39c0 -54 -0.333008 -108.833 -1 -164.5s-1 -108.834 -1 -159.501c0 -110.667 0.833008 -203.667 2.5 -279s2.5 -116.333 2.5 -123h-158c0 7.33301 0.666992 47.666 2 120.999s2 160 2 260
c0 33.333 -0.166992 83.833 -0.5 151.5s-0.833008 117.5 -1.5 149.5c-0.666992 29.333 -3.33398 57.333 -8.00098 84s-13.334 49.334 -26.001 68.001c-14 20.667 -32 36.167 -54 46.5s-53.333 15.5 -94 15.5c-37.333 0 -81 -10.833 -131 -32.5
s-107.333 -52.834 -172 -93.501c0 -11.333 -0.333008 -53.833 -1 -127.5s-1 -133.834 -1 -180.501c0 -79.333 0.833008 -174.5 2.5 -285.5s2.5 -169.833 2.5 -176.5h-158c0 5.33301 0.666992 44.166 2 116.499s2 192.166 2 359.499c0 54.667 -0.166992 128.334 -0.5 221.001
s-1.5 197.667 -3.5 315h156l-1 -115l1 -1c44.667 32 100.834 63.667 168.501 95s127.5 47 179.5 47c65.333 0 119.833 -13.667 163.5 -41s74.834 -62 93.501 -104h2c76.667 47.333 147.167 83.333 211.5 108s119.166 37 164.499 37c92 0 163.833 -26.833 215.5 -80.5
s77.5 -126.167 77.5 -217.5c0 -70.667 -0.5 -130.167 -1.5 -178.5s-1.5 -99.5 -1.5 -153.5c0 -112 0.833008 -206.667 2.5 -284s2.5 -118.666 2.5 -123.999z" />
    <glyph glyph-name="n" unicode="n" horiz-adv-x="1190" 
d="M1013 0l-157.999 -0.00488281c0.666992 18.667 1.5 80.334 2.5 185.001s1.5 169.334 1.5 194.001c0 34.667 -0.166992 85.834 -0.5 153.501s-0.833008 117.167 -1.5 148.5c-2 76.667 -16.667 131.667 -44 165s-74.666 50 -141.999 50c-40.667 0 -91 -12 -151 -36
s-120.667 -54.667 -182 -92c0 -7.33301 -0.333008 -47 -1 -119s-1 -137.667 -1 -197c0 -77.333 0.833008 -170.666 2.5 -279.999s2.5 -166.666 2.5 -171.999h-158c0 4.66699 0.666992 45.5 2 122.5s2 191.5 2 343.5c0 70 -0.166992 152 -0.5 246s-1.5 194 -3.5 300h156
l-1 -115l1 -2c93.333 53.333 171.166 90.5 233.499 111.5s114.166 31.5 155.499 31.5c85.333 0 153.833 -26.833 205.5 -80.5s77.5 -127.167 77.5 -220.5c0 -84 -0.5 -156.5 -1.5 -217.5s-1.5 -110.5 -1.5 -148.5c0 -60.667 0.833008 -136.5 2.5 -227.5
s2.5 -138.833 2.5 -143.5z" />
    <glyph glyph-name="o" unicode="o" horiz-adv-x="1165" 
d="M1072 506c0 -77.333 -13.832 -151.329 -41.499 -221.996s-67.5 -131 -119.5 -181c-44 -42 -92.833 -74 -146.5 -96s-114.5 -33 -182.5 -33c-64 0 -124 10.833 -180 32.5s-106 53.5 -150 95.5c-50.667 48.667 -89.834 108.667 -117.501 180s-41.5 146.666 -41.5 225.999
c0 76.667 11.833 147.167 35.5 211.5s60.5 122.166 110.5 173.499c44.667 46.667 96.667 82.5 156 107.5s122 37.5 188 37.5c69.333 0 132.166 -11.5 188.499 -34.5s106.5 -57.5 150.5 -103.5c50.667 -52.667 88.334 -111.834 113.001 -177.501s37 -137.834 37 -216.501z
M912.001 499.004c0 62.667 -10.166 123.665 -30.499 182.998s-51.833 109.333 -94.5 150c-26 25.333 -56.833 44.833 -92.5 58.5s-72.834 20.5 -111.501 20.5c-46 0 -86 -7.33301 -120 -22s-66 -37.667 -96 -69c-35.333 -36 -63.166 -82 -83.499 -138s-30.5 -114 -30.5 -174
c0 -68 10.333 -130.5 31 -187.5s54 -106.167 100 -147.5c26 -23.333 56 -41.166 90 -53.499s70 -18.5 108 -18.5c42 0 81.167 7.33301 117.5 22s68.166 36 95.499 64c38 38.667 67 85.334 87 140.001s30 112 30 172z" />
    <glyph glyph-name="p" unicode="p" horiz-adv-x="1136" 
d="M1049 537c0 -103.333 -23 -191.167 -69 -263.5s-108 -129.5 -186 -171.5c-68 -36 -142.667 -61.333 -224 -76s-158.666 -22 -231.999 -22l4 -459h-159c0.666992 11.333 1.5 103.5 2.5 276.5s1.5 346.5 1.5 520.5c0 87.333 -0.333008 188.833 -1 304.5
s-1.66699 240.167 -3 373.5c21.333 0.666992 42.5 1 63.5 1h48.5c140 0 248.667 -7.33301 326 -22s147.666 -40.667 210.999 -78c67.333 -39.333 120.333 -91.833 159 -157.5s58 -141.167 58 -226.5zM889 531.999c0 65.333 -15.335 122.67 -46.002 172.003
s-70.667 88.333 -120 117c-44.667 25.333 -95.5 43.833 -152.5 55.5s-118.833 17.5 -185.5 17.5h-22h-23c0 -11.333 -0.5 -50.833 -1.5 -118.5s-1.5 -184.5 -1.5 -350.5c0 -34.667 0.166992 -83.334 0.5 -146.001s0.5 -112.667 0.5 -150
c62.667 0 125.334 5.83301 188.001 17.5s114.334 27.5 155.001 47.5c68 33.333 119.667 77.666 155 132.999s53 123.666 53 204.999z" />
    <glyph glyph-name="q" unicode="q" horiz-adv-x="1132" 
d="M954 -455l-159.003 -0.000976562l4 457c-90 0 -168.5 5.83301 -235.5 17.5s-125.5 28.167 -175.5 49.5c-98 42 -172.667 100.5 -224 175.5s-77 166.833 -77 275.5c0 83.333 22.833 161 68.5 233s107.834 129.333 186.501 172
c66.667 36.667 138.334 61.834 215.001 75.501s175.334 20.5 296.001 20.5h50h51c-1.33301 -132.667 -2.33301 -268 -3 -406s-1 -222 -1 -252c0 -139.333 0.666992 -307.5 2 -504.5s2 -301.5 2 -313.5zM799.997 420.999c0 159.333 -0.500977 276.167 -1.50098 350.5
s-1.5 115.166 -1.5 122.499c-72 0 -137.167 -5 -195.5 -15s-115.166 -29 -170.499 -57c-57.333 -28.667 -102.333 -70.167 -135 -124.5s-49 -114.833 -49 -181.5c0 -76.667 17.833 -142.5 53.5 -197.5s87.167 -98.5 154.5 -130.5c42 -20 88 -35 138 -45s108.333 -15 175 -15
h16h15c0 36.667 0.166992 80.334 0.5 131.001s0.5 104.667 0.5 162z" />
    <glyph glyph-name="r" unicode="r" horiz-adv-x="788" 
d="M768 894c-36.667 -8.66699 -92.8311 -26.9971 -168.498 -54.9971s-162.834 -65.333 -261.501 -112c0 -7.33301 -0.333008 -40.833 -1 -100.5s-1 -115.167 -1 -166.5c0 -78.667 0.833008 -172 2.5 -280s2.5 -168 2.5 -180h-158c0 11.333 0.666992 48.666 2 111.999
s2 171.666 2 324.999c0 62 -0.333008 148.667 -1 260s-1.66699 216.333 -3 315h155v-152l1 -1c75.333 42.667 149.666 79.667 222.999 111s132 52.666 176 63.999z" />
    <glyph glyph-name="s" unicode="s" horiz-adv-x="833" 
d="M733 293c0 -49.333 -11.9971 -93.3301 -35.9971 -131.997s-55.333 -70 -94 -94c-40.667 -25.333 -88.834 -44.5 -144.501 -57.5s-117.167 -19.5 -184.5 -19.5c-32.667 0 -66.5 1.5 -101.5 4.5s-54.833 4.83301 -59.5 5.5l-6 131c6 -0.666992 29.167 -2.5 69.5 -5.5
s80.5 -4.5 120.5 -4.5c23.333 0 53.333 2 90 6s67 11.333 91 22c33.333 14.667 58 32.667 74 54s24 47 24 77c0 27.333 -7 49.5 -21 66.5s-33.333 33.5 -58 49.5c-26.667 18 -63.167 37.167 -109.5 57.5s-85.166 39.833 -116.499 58.5
c-44.667 27.333 -78.834 59.666 -102.501 96.999s-35.5 80.666 -35.5 129.999s13.5 93.666 40.5 132.999s63.167 71 108.5 95c39.333 21.333 82.833 35.5 130.5 42.5s93.834 10.5 138.501 10.5c40.667 0 74 -0.666992 100 -2s41 -2 45 -2l11 -133
c-4.66699 0 -25.167 1.33301 -61.5 4s-76.166 4 -119.499 4c-30.667 0 -59.834 -2.66699 -87.501 -8s-51.167 -13 -70.5 -23c-28.667 -14.667 -49.167 -32.334 -61.5 -53.001s-18.5 -40.667 -18.5 -60c0 -26.667 8.66699 -49.667 26 -69s37.666 -35.666 60.999 -48.999
c27.333 -16 64.666 -35 111.999 -57s81.666 -39.667 102.999 -53c46.667 -29.333 82.167 -62 106.5 -98s36.5 -78.667 36.5 -128z" />
    <glyph glyph-name="t" unicode="t" horiz-adv-x="803" 
d="M733 124l-18.002 -127c-4.66699 -0.666992 -16.167 -1.33398 -34.5 -2.00098s-34.166 -1 -47.499 -1c-136.667 0 -240 28.5 -310 85.5s-105 144.5 -105 262.5c0 74 0.5 153.333 1.5 238s1.5 189.667 1.5 315h-168v117h177v237h145v-237h358v-117h-358
c0 -14 -0.5 -55.667 -1.5 -125s-1.5 -120.666 -1.5 -153.999v-103v-145c0 -86.667 23.333 -149.167 70 -187.5s118.667 -57.5 216 -57.5c12 0 26.333 0.166992 43 0.5s27.334 0.5 32.001 0.5z" />
    <glyph glyph-name="u" unicode="u" horiz-adv-x="1190" 
d="M1007 0h-152.999v116l-1 1c-46.667 -30.667 -104.834 -62.167 -174.501 -94.5s-138.167 -48.5 -205.5 -48.5c-92 0 -164 27.333 -216 82s-78 131.334 -78 230.001c0 53.333 0.5 116.833 1.5 190.5s1.5 127.167 1.5 160.5c0 60.667 -0.833008 135.5 -2.5 224.5
s-2.5 139.167 -2.5 150.5h158c0 -8.66699 -0.666992 -56.667 -2 -144s-2 -157 -2 -209c0 -46 0.333008 -103.333 1 -172s1 -117.334 1 -146.001c1.33301 -78.667 15 -136.334 41 -173.001s68 -55 126 -55c59.333 0 124.5 16 195.5 48s123.167 60 156.5 84
c0 8 0.333008 44.833 1 110.5s1 147.5 1 245.5c0 70 -0.833008 153.833 -2.5 251.5s-2.5 150.834 -2.5 159.501h158c0 -11.333 -0.666992 -48.833 -2 -112.5s-2 -172.167 -2 -325.5c0 -86 0.333008 -161.5 1 -226.5s1.66699 -180.833 3 -347.5z" />
    <glyph glyph-name="v" unicode="v" horiz-adv-x="1091" 
d="M1035 973l-277.5 -629.5l-151.5 -343.5h-117c-3.33301 8 -52 116.333 -146 325l-287 638l146 67l352 -833h2l342 831z" />
    <glyph glyph-name="w" unicode="w" horiz-adv-x="1645" 
d="M1590 973c-90 -220 -172.667 -435.335 -248 -646.002l-117 -327h-123l-80.5 236l-191.5 543h-2l-195 -518l-98 -261h-123c-4.66699 18.667 -41 123.334 -109 314.001s-149.667 408.334 -245 653.001l146 65l276 -820h2l292 783h125l269 -783h2l283 816z" />
    <glyph glyph-name="x" unicode="x" horiz-adv-x="1028" 
d="M964 70l-122.003 -94.999c-3.33301 5.33301 -35.5 50 -96.5 134l-233.5 307h-2c-89.333 -111.333 -166.166 -211.333 -230.499 -300s-99.166 -136.334 -104.499 -143.001l-113 90c8.66699 8.66699 48.834 55.667 120.501 141l245.5 300v2l-169 216l-176 221l120 91
l150.5 -201.5l164.5 -216.5h2l150 195.5l165 220.5l114 -85l-178.5 -214l-170.5 -207v-2l252 -314.5z" />
    <glyph glyph-name="y" unicode="y" horiz-adv-x="1096" 
d="M1039 971l-410.501 -913.5l-229.5 -514.5l-138 51l207 429c-5.33301 13.333 -47.166 110.666 -125.499 291.999l-286.5 650l150 65l224 -549.5l120 -285.5h2c4 6.66699 42 95.334 114 266.001l236 565z" />
    <glyph glyph-name="z" unicode="z" horiz-adv-x="977" 
d="M911 6c-3.33301 0 -59.499 0.166992 -168.499 0.5s-189.5 0.5 -241.5 0.5c-66.667 0 -147.167 -0.166992 -241.5 -0.5s-143.833 -0.5 -148.5 -0.5l-33 94l264.5 340.5l336.5 436.5l-1 2c-28.667 0 -57.834 0.166992 -87.501 0.5s-58.167 0.5 -85.5 0.5
c-64 0 -145.5 -0.5 -244.5 -1.5s-151.167 -1.5 -156.5 -1.5v125c6 0 60.333 -0.166992 163 -0.5s165.667 -0.5 189 -0.5c46.667 0 119.167 0.166992 217.5 0.5s151.833 0.5 160.5 0.5l51 -94l-368 -471.5l-231 -301.5l1 -2c25.333 0 58.5 -0.166992 99.5 -0.5
s85.167 -0.5 132.5 -0.5c134.667 0 232.667 0.5 294 1.5s94 1.5 98 1.5v-129z" />
    <glyph glyph-name="braceleft" unicode="{" horiz-adv-x="850" 
d="M814 -309l-8 -122.004c-127.333 0 -235.5 31.833 -324.5 95.5s-133.5 158.834 -133.5 285.501v88v87c0 60.667 -5.66699 108.5 -17 143.5s-29.333 62.833 -54 83.5c-25.333 20.667 -58 35.834 -98 45.501s-89 17.5 -147 23.5v109c62 8.66699 111.5 17 148.5 25
s68.833 23.333 95.5 46c26 22 44.5 50 55.5 84s16.5 81 16.5 141v87.5v88.5c0 125.333 44.5 220 133.5 284s197.167 96 324.5 96l8 -122c-101.333 0 -181.166 -22.167 -239.499 -66.5s-87.5 -108.166 -87.5 -191.499v-88v-116c0 -94.667 -20.667 -168 -62 -220
s-94.333 -85.667 -159 -101v-3c68 -17.333 121.833 -52.166 161.5 -104.499s59.5 -124.5 59.5 -216.5v-109.5v-93.5c0 -82.667 29.167 -146.5 87.5 -191.5s138.166 -67.5 239.499 -67.5z" />
    <glyph glyph-name="bar" unicode="|" horiz-adv-x="600" 
d="M359 -456h-116v1922h116v-1922z" />
    <glyph glyph-name="braceright" unicode="}" horiz-adv-x="850" 
d="M818 421c-59.333 -6 -108.332 -13.8301 -146.999 -23.4971s-71.334 -24.834 -98.001 -45.501c-24.667 -20.667 -42.667 -48.834 -54 -84.501s-17 -83.167 -17 -142.5v-87v-88c0 -122 -42.667 -216 -128 -282s-195.333 -99 -330 -99l-8 122
c101.333 0 181.166 22.167 239.499 66.5s87.5 108.5 87.5 192.5v87.5v115.5c0 85.333 17.5 154.166 52.5 206.499s91.167 90.5 168.5 114.5v3c-66.667 13.333 -120.167 47.666 -160.5 102.999s-60.5 128 -60.5 218v112v92c0 84 -29.167 148 -87.5 192
s-138.166 66 -239.499 66l8 122c134.667 0 244.667 -33.167 330 -99.5s128 -159.833 128 -280.5v-88.5v-87.5c0 -60 5.5 -107.167 16.5 -141.5s29.5 -62.166 55.5 -83.499c25.333 -20 58.5 -35.167 99.5 -45.5s89.167 -18.833 144.5 -25.5v-109z" />
    <glyph glyph-name="asciitilde" unicode="~" horiz-adv-x="1800" 
d="M1487 760c-19.333 -97.333 -60.999 -178.999 -124.999 -244.999s-143 -99 -237 -99c-38.667 0 -70 4.83301 -94 14.5s-51.667 24.167 -83 43.5l-77.5 50.5l-82.5 53.5c-27.333 16.667 -47 27.834 -59 33.501s-33 8.5 -63 8.5c-49.333 0 -92.5 -19.833 -129.5 -59.5
s-65.5 -100.834 -85.5 -183.501l-126 21c18.667 97.333 61.167 179 127.5 245s144.166 99 233.499 99c38 0 69.5 -4.83301 94.5 -14.5s52.833 -24.167 83.5 -43.5l76.5 -49l83.5 -55c25.333 -16 44.5 -27 57.5 -33s34.5 -9 64.5 -9c52 0 96.167 21.167 132.5 63.5
s63.833 102.166 82.5 179.499z" />
    <glyph glyph-name="nonbreakingspace" unicode="&#xa0;" horiz-adv-x="256" 
 />
    <glyph glyph-name="exclamdown" unicode="&#xa1;" horiz-adv-x="950" 
d="M561 1138h-193v201h193v-201zM551 0h-171.999c3.33301 337.333 6.66602 565.333 9.99902 684l6 215h139l5.5 -213.5c3 -117.667 6.83301 -346.167 11.5 -685.5z" />
    <glyph glyph-name="cent" unicode="&#xa2;" 
d="M955 452c0 -5.33301 -0.5 -41.834 -1.5 -109.501s-1.5 -121.5 -1.5 -161.5c0 -37.333 0.166992 -71.5 0.5 -102.5s0.833008 -57.167 1.5 -78.5h-125l3 324c-100 7.33301 -192.833 24.5 -278.5 51.5s-157.834 68.833 -216.501 125.5c-36 35.333 -66.333 80 -91 134
s-37 112.333 -37 175c0 74.667 15.667 141.334 47 200.001s74.666 109 129.999 151c51.333 39.333 115.333 70.333 192 93s154.667 36.667 234 42l-3 320h125c-1.33301 -44 -2 -83.667 -2 -119v-92c0 -59.333 0.5 -112.166 1.5 -158.499s1.5 -71.833 1.5 -76.5
c-76 0 -146.667 -5.66699 -212 -17s-120.333 -27.666 -165 -48.999c-53.333 -24.667 -97.666 -63 -132.999 -115s-53 -110 -53 -174c0 -66 15 -122.833 45 -170.5s69.667 -85.834 119 -114.501c53.333 -30.667 116.333 -51.334 189 -62.001s149.334 -16 230.001 -16z" />
    <glyph glyph-name="sterling" unicode="&#xa3;" 
d="M1117 2c-10 0 -66.1689 0.5 -168.502 1.5s-196.166 1.5 -281.499 1.5c-70.667 0 -151 -0.5 -241 -1.5s-176 -1.5 -258 -1.5v134h134l64 463l-194 -1v120l211 -1c0.666992 8 4.66699 32.667 12 74l22 126c10.667 57.333 27.334 111.333 50.001 162s54.334 96 95.001 136
c38.667 37.333 87.667 68.666 147 93.999s130 40.333 212 45c10 0.666992 22.667 1.16699 38 1.5s28 0.833008 38 1.5l20 -132c-9.33301 0 -24.5 -0.666992 -45.5 -2s-36.167 -2 -45.5 -2c-58 -3.33301 -106.833 -12.333 -146.5 -27s-74.5 -35.667 -104.5 -63
c-27.333 -24.667 -49.5 -55.667 -66.5 -93s-30.833 -81.666 -41.5 -132.999c-6 -27.333 -12.833 -63.5 -20.5 -108.5s-11.834 -71.5 -12.501 -79.5l350 1v-120l-367 1l-64 -464h106h71c118 0 226.333 0.5 325 1.5s152.667 1.5 162 1.5v-136z" />
    <glyph glyph-name="currency" unicode="&#xa4;" 
d="M1086 1037l-189.997 -188.001c22.667 -32 39.667 -66.5 51 -103.5s17 -75.5 17 -115.5c0 -39.333 -6.16699 -77.333 -18.5 -114s-29.5 -70.334 -51.5 -101.001l191 -190l-78 -73l-186 188c-36.667 -26 -71.5 -44.5 -104.5 -55.5s-72.167 -16.5 -117.5 -16.5
c-41.333 0 -79.5 5.83301 -114.5 17.5s-68.833 29.834 -101.5 54.501l-189 -189l-77 72l193 191c-24 32.667 -42 67.167 -54 103.5s-18 73.833 -18 112.5c0 40 6.16699 77.833 18.5 113.5s30.166 69.834 53.499 102.501l-193 192l77 73l189 -192
c33.333 25.333 67.833 43.666 103.5 54.999s73.167 17 112.5 17c43.333 0 82.166 -5.16699 116.499 -15.5s69.166 -28.166 104.499 -53.499l187 189zM861.003 631.999c0 70 -25.333 130.501 -76 181.501s-112 76.5 -184 76.5c-70.667 0 -131.334 -25.333 -182.001 -76
s-76 -111.334 -76 -182.001s25.333 -131.834 76 -183.501s111.334 -77.5 182.001 -77.5c72 0 133.333 25.833 184 77.5s76 112.834 76 183.501z" />
    <glyph glyph-name="yen" unicode="&#xa5;" 
d="M1153 1278c-4 -4.66699 -50.832 -65.001 -140.499 -181.001l-340.5 -449v-118l370 2v-106l-370 2c0 -73.333 0.666992 -160.666 2 -261.999s2 -156.666 2 -165.999h-152c0 8 0.666992 62.667 2 164s2 189.333 2 264l-370 -2v106l370 -2v108l-316.5 423.5
c-99.667 130.333 -152.5 198.833 -158.5 205.5l124 95c5.33301 -6.66699 52.166 -72.834 140.499 -198.501l286.5 -398.5h2l277 379c99.333 138 152 210.667 158 218z" />
    <glyph glyph-name="brokenbar" unicode="&#xa6;" horiz-adv-x="600" 
d="M360 641h-116l-1 825h116zM360 374l-1 -830h-116l1 830h116z" />
    <glyph glyph-name="section" unicode="&#xa7;" horiz-adv-x="929" 
d="M831 499c0 -61.333 -21.3271 -117.835 -63.9941 -169.502s-98.334 -95.167 -167.001 -130.5v-2c9.33301 -4.66699 19.166 -10 29.499 -16l24.5 -14c43.333 -25.333 77.833 -57.333 103.5 -96s38.5 -81.667 38.5 -129c0 -54.667 -15.333 -103.667 -46 -147
s-72.667 -79.666 -126 -108.999c-47.333 -26 -99.5 -45.167 -156.5 -57.5s-114.5 -20.166 -172.5 -23.499c-56 -3.33301 -95.667 -5.5 -119 -6.5s-37 -1.5 -41 -1.5l-11 125c4 0 21.167 0.166992 51.5 0.5s77.166 2.5 140.499 6.5c46.667 3.33301 91.667 10.333 135 21
s74.666 21.667 93.999 33c38.667 22.667 65 44.667 79 66s21 45.333 21 72c0 30.667 -11 58.334 -33 83.001s-53.667 47.667 -95 69c-36 18.667 -79 39.167 -129 61.5s-91.667 43.166 -125 62.499c-62 36 -104.667 72.667 -128 110s-35 81.333 -35 132
c0 60 20.833 116.167 62.5 168.5s97.834 95.5 168.501 129.5v2l-29.5 16.5l-24.5 14.5c-43.333 25.333 -77.833 57.5 -103.5 96.5s-38.5 81.833 -38.5 128.5c0 58 16.167 108.167 48.5 150.5s73.5 77.5 123.5 105.5c44.667 26 96.667 45 156 57s117 20 173 24
c42.667 2.66699 79.167 4.66699 109.5 6s47.166 2 50.499 2l11 -125c-4 0 -21 -0.166992 -51 -0.5s-77 -2.5 -141 -6.5c-48.667 -3.33301 -93.834 -10.333 -135.501 -21s-72.834 -21.667 -93.501 -33c-36 -20 -61.667 -41.667 -77 -65s-23 -47.666 -23 -72.999
c0 -31.333 10.833 -59 32.5 -83s53.5 -46.667 95.5 -68c46 -22.667 86.833 -41.834 122.5 -57.501s79.5 -37.5 131.5 -65.5c56 -29.333 97.167 -63 123.5 -101s39.5 -85.333 39.5 -142zM682.006 470.998c0 33.333 -9.33203 63.1689 -27.999 89.502
s-58.334 54.833 -119.001 85.5l-46 22.5l-43 20.5c-11.333 -4.66699 -26.666 -12.334 -45.999 -23.001s-37.333 -22 -54 -34c-26.667 -20 -49.5 -42.333 -68.5 -67s-28.5 -57.667 -28.5 -99c0 -38 10.667 -69.667 32 -95s59.666 -52 114.999 -80l44.5 -21.5l44.5 -21.5
c16 7.33301 31.833 15.333 47.5 24s33.167 20 52.5 34c35.333 26 60.333 51.167 75 75.5s22 54.166 22 89.499z" />
    <glyph glyph-name="dieresis" unicode="&#xa8;" horiz-adv-x="800" 
d="M700 1206h-169v170h169v-170zM268 1206h-169v170h169v-170z" />
    <glyph glyph-name="copyright" unicode="&#xa9;" horiz-adv-x="1928" 
d="M1738 491c0 -215.333 -77 -399.833 -231 -553.5s-337.667 -230.5 -551 -230.5c-215.333 0 -400 77.333 -554 232s-231 338.667 -231 552c0 216.667 77.667 401.5 233 554.5s339.333 229.5 552 229.5c214.667 0 398.667 -77 552 -231s230 -338.333 230 -553zM1675 491
c0 197.333 -70.5 366.833 -211.5 508.5s-310.167 212.5 -507.5 212.5c-198.667 0 -368.5 -70.833 -509.5 -212.5s-211.5 -311.167 -211.5 -508.5c0 -198 70.5 -368 211.5 -510s310.833 -213 509.5 -213c197.333 0 366.5 71 507.5 213s211.5 312 211.5 510zM1217 169
l-11.001 -131c-3.33301 0 -11.5 -0.333008 -24.5 -1s-23.167 -1 -30.5 -1c-76 0 -146.5 6.83301 -211.5 20.5s-123.5 34.834 -175.5 63.501c-73.333 40 -130 92.5 -170 157.5s-60 137.167 -60 216.5c0 72 18.667 138.167 56 198.5s85.333 109.166 144 146.499
c51.333 34 115 59.667 191 77s151.333 26 226 26c8.66699 0 17 -0.166992 25 -0.5s13.667 -0.5 17 -0.5l7 -132h-16.5h-16.5c-67.333 0 -120.5 -2.33301 -159.5 -7s-84.5 -18 -136.5 -40c-55.333 -23.333 -99.666 -59.5 -132.999 -108.5s-50 -101.5 -50 -157.5
c0 -66.667 15.333 -122.667 46 -168s71.667 -81 123 -107c38 -18 82.833 -31.333 134.5 -40s106.167 -13 163.5 -13c10 0 21.833 0.166992 35.5 0.5s22.5 0.5 26.5 0.5z" />
    <glyph glyph-name="ordfeminine" unicode="&#xaa;" horiz-adv-x="840" 
d="M689 901c0 -102 -0.168945 -184.171 -0.501953 -246.504s-0.5 -101.5 -0.5 -117.5c-9.33301 -1.33301 -33 -3.33301 -71 -6s-88 -4 -150 -4c-40 0 -80.167 3.16699 -120.5 9.5s-75.166 15.5 -104.499 27.5c-36.667 14.667 -67.334 35.667 -92.001 63s-37 62 -37 104
c0 44.667 14.667 81.334 44 110.001s67.333 52 114 70c34 13.333 76.667 23.333 128 30s106 11.334 164 14.001c-2 30 -10.667 54.333 -26 73s-35.666 32.334 -60.999 41.001c-17.333 6 -39.166 10.5 -65.499 13.5s-57.833 4.5 -94.5 4.5c-18.667 0 -36.167 -0.5 -52.5 -1.5
s-39.5 -2.16699 -69.5 -3.5l15 107c6.66699 0 21.5 0.5 44.5 1.5s51.833 1.5 86.5 1.5c56.667 0 108 -5.16699 154 -15.5s83.333 -27.166 112 -50.499c26.667 -22.667 47.167 -50.5 61.5 -83.5s21.5 -80.167 21.5 -141.5zM707.998 199.996h-576v100h576v-100z
M564.998 747.996l-0.000976562 47c0 18 -0.333008 38.667 -1 62c-24.667 -1.33301 -59 -2.66602 -103 -3.99902s-86.333 -9 -127 -23c-19.333 -6.66699 -39.333 -18.5 -60 -35.5s-31 -36.167 -31 -57.5c0 -27.333 8.5 -48.833 25.5 -64.5s37.833 -26.834 62.5 -33.501
c31.333 -8.66699 61.333 -13.667 90 -15s54.334 -2 77.001 -2c7.33301 0 16.833 0.166992 28.5 0.5s24.167 0.833008 37.5 1.5c0 9.33301 0.166992 24.333 0.5 45s0.5 47 0.5 79z" />
    <glyph glyph-name="guillemotleft" unicode="&#xab;" horiz-adv-x="1048" 
d="M580 195l-78 -78l-414 423v6l414 424l78 -78l-348 -348zM949 195l-78 -78l-414 423v6l414 424l78 -78l-348 -348z" />
    <glyph glyph-name="logicalnot" unicode="&#xac;" horiz-adv-x="1800" 
d="M1415 138h-129v434h-918v116h1047v-550z" />
    <glyph glyph-name="registered" unicode="&#xae;" horiz-adv-x="1928" 
d="M1738 491c0 -215.333 -77 -399.833 -231 -553.5s-337.667 -230.5 -551 -230.5c-215.333 0 -400 77.333 -554 232s-231 338.667 -231 552c0 216.667 77.667 401.5 233 554.5s339.333 229.5 552 229.5c214.667 0 398.667 -77 552 -231s230 -338.333 230 -553zM1675 491
c0 197.333 -70.5 366.833 -211.5 508.5s-310.167 212.5 -507.5 212.5c-198.667 0 -368.5 -70.833 -509.5 -212.5s-211.5 -311.167 -211.5 -508.5c0 -198 70.5 -368 211.5 -510s310.833 -213 509.5 -213c197.333 0 366.5 71 507.5 213s211.5 312 211.5 510zM1421 125
l-101.002 -90.999c-5.33301 5.33301 -45.333 48.166 -120 128.499l-266 293.5v22c20.667 5.33301 44.667 14.5 72 27.5s49.666 27.5 66.999 43.5c16 14.667 29.333 30.667 40 48s16 43.333 16 78c0 27.333 -8.16699 51 -24.5 71s-38.5 35.667 -66.5 47
c-22 8 -45.167 13.333 -69.5 16s-50.5 4 -78.5 4c-7.33301 0 -18.666 -0.166992 -33.999 -0.5s-25 -0.5 -29 -0.5c-0.666992 -62.667 -1.16699 -126.834 -1.5 -192.501s-0.5 -108.834 -0.5 -129.501c0 -67.333 0.5 -153.5 1.5 -258.5s1.5 -161.833 1.5 -170.5h-141
c0 9.33301 0.5 60.833 1.5 154.5s1.5 183.834 1.5 270.501c0 25.333 -0.166992 70.833 -0.5 136.5s-1.16602 167.167 -2.49902 304.5c4 0 34.333 0.5 91 1.5s98.334 1.5 125.001 1.5c36 0 73.333 -2.5 112 -7.5s74 -14.167 106 -27.5c46 -20 82.667 -47.833 110 -83.5
s41 -78.5 41 -128.5c0 -45.333 -12.333 -87.666 -37 -126.999s-63.667 -76 -117 -110v-9c66.667 -75.333 132.667 -145 198 -209z" />
    <glyph glyph-name="macron" unicode="&#xaf;" horiz-adv-x="800" 
d="M727 1239c-7.33301 0 -49.833 0.166992 -127.5 0.5s-143.167 0.5 -196.5 0.5c-56 0 -123 -0.166992 -201 -0.5s-121 -0.5 -129 -0.5v112c10 0 53.5 -0.166992 130.5 -0.5s141.833 -0.5 194.5 -0.5c56.667 0 124 0.166992 202 0.5s120.333 0.5 127 0.5v-112z" />
    <glyph glyph-name="degree" unicode="&#xb0;" horiz-adv-x="836" 
d="M727 1018c0 -86 -30.334 -158.999 -91.001 -218.999s-134 -90 -220 -90s-158.667 30 -218 90s-89 133 -89 219s30.5 159 91.5 219s133.5 90 217.5 90c84.667 0 157.334 -30.333 218.001 -91s91 -133.334 91 -218.001zM619.999 1019c0 56 -19.499 103.833 -58.499 143.5
s-86.5 59.5 -142.5 59.5s-103.833 -19.833 -143.5 -59.5s-59.5 -87.5 -59.5 -143.5c0 -57.333 20 -105.833 60 -145.5s87.667 -59.5 143 -59.5c57.333 0 105.166 20.333 143.499 61s57.5 88.667 57.5 144z" />
    <glyph glyph-name="plusminus" unicode="&#xb1;" horiz-adv-x="1800" 
d="M1422 141h-1044v116h463v410h-463v116h463v448h116v-448h465v-116h-465v-410h465v-116z" />
    <glyph glyph-name="twosuperior" unicode="&#xb2;" horiz-adv-x="840" 
d="M774 539c-4 0 -47.334 0.166016 -130.001 0.499023s-143.334 0.5 -182.001 0.5c-56 0 -126.167 -0.166992 -210.5 -0.5s-129.5 -0.5 -135.5 -0.5l-32 93c46.667 21.333 99.5 50.833 158.5 88.5s104.5 70.167 136.5 97.5c46.667 39.333 81.834 77.333 105.501 114
s35.5 75.334 35.5 116.001c0 40 -9.83301 72.5 -29.5 97.5s-43.5 45.167 -71.5 60.5c-31.333 16.667 -64.833 28.334 -100.5 35.001s-79.5 10 -131.5 10h-33.5h-24.5l11 112c4.66699 0 13.834 0.333008 27.501 1s27.167 1 40.5 1c66.667 0 125.667 -5.5 177 -16.5
s96 -27.167 134 -48.5c40 -22.667 74.5 -53.334 103.5 -92.001s43.5 -89.334 43.5 -152.001c0 -52.667 -14.667 -102.667 -44 -150s-63 -87.333 -101 -120c-37.333 -30.667 -72.5 -57.167 -105.5 -79.5s-64.833 -42.166 -95.5 -59.499l1 -5
c26.667 1.33301 52.834 2 78.501 2s47.834 0.333008 66.501 1c53.333 0.666992 116.666 1.16699 189.999 1.5s112.666 0.5 117.999 0.5v-108z" />
    <glyph glyph-name="threesuperior" unicode="&#xb3;" horiz-adv-x="840" 
d="M711 797c0 -42 -14.002 -82.8301 -42.002 -122.497s-69 -71.5 -123 -95.5c-46 -21.333 -105.667 -35.666 -179 -42.999s-143.333 -11 -210 -11c-8.66699 0 -15 0.166992 -19 0.5s-7.66699 0.5 -11 0.5l-18 109h25.5c12.333 0 24.166 0.333008 35.499 1
c42 1.33301 90.833 4.16602 146.5 8.49902s97.834 11.166 126.501 20.499c42.667 14 74.5 30 95.5 48s31.5 42.667 31.5 74c0 26 -9.33301 46.833 -28 62.5s-42 28.167 -70 37.5c-23.333 7.33301 -49.166 11.333 -77.499 12s-53.833 1 -76.5 1h-44h-34l-15 96l67.5 6.5
c24.333 2.33301 52.833 7.83301 85.5 16.5c46.667 12.667 81.667 27.5 105 44.5s35 40.5 35 70.5c0 28.667 -9.16699 50.834 -27.5 66.501s-40.833 27.5 -67.5 35.5c-22 6.66699 -50.5 11.667 -85.5 15s-72.833 5 -113.5 5h-43.5h-30.5l23 110h20h24
c52 0 103.667 -1.83301 155 -5.5s99.333 -14.5 144 -32.5c42.667 -15.333 77.667 -37.333 105 -66s41 -64.334 41 -107.001c0 -40 -13.333 -75.333 -40 -106s-64 -55.334 -112 -74.001v-2c60.667 -9.33301 109.334 -28.833 146.001 -58.5s55 -68.834 55 -117.501z" />
    <glyph glyph-name="acute" unicode="&#xb4;" horiz-adv-x="800" 
d="M740 1363l-439 -232l-60 93l429 252z" />
    <glyph glyph-name="mu" unicode="&#xb5;" horiz-adv-x="1247" 
d="M1241 124l-15.002 -129.001c-88 0 -156.5 9.33301 -205.5 28s-91.833 55.334 -128.5 110.001h-2c-44 -48.667 -88.5 -84 -133.5 -106s-95.167 -33 -150.5 -33c-44 0 -87.333 7.5 -130 22.5s-88.667 41.833 -138 80.5l-1 -1c0 -42 0.666992 -140.5 2 -295.5
s2 -240.167 2 -255.5h-158c1.33301 110 2.33301 233.667 3 371s1 273.333 1 408c0 217.333 -0.666992 383.333 -2 498s-2 178 -2 190h158c0 -12 -0.666992 -108.833 -2 -290.5s-2 -344.167 -2 -487.5c32.667 -24.667 71.667 -48 117 -70s95 -33 149 -33
c53.333 0 101.333 10 144 30s80.334 48.333 113.001 85v123.5v231.5c0 70 -0.833008 153.833 -2.5 251.5s-2.5 150.834 -2.5 159.501h158c0 -11.333 -0.666992 -36 -2 -74s-2 -139.333 -2 -304c0 -22.667 0.166992 -68.5 0.5 -137.5s0.5 -118.5 0.5 -148.5
c0 -93.333 15.833 -153.833 47.5 -181.5s92.834 -41.834 183.501 -42.501z" />
    <glyph glyph-name="paragraph" unicode="&#xb6;" horiz-adv-x="1136" 
d="M974 -454l-145.002 0.00195312l4 781c-76 0 -153.5 7.66699 -232.5 23s-149.833 39.666 -212.5 72.999c-87.333 46 -155.166 105 -203.499 177s-72.5 157.333 -72.5 256c0 78.667 21.167 151 63.5 217s99.833 120.667 172.5 164c60 36 131.833 62.167 215.5 78.5
s186.5 24.5 308.5 24.5c20.667 0 39.834 -0.166992 57.501 -0.5s32.5 -0.5 44.5 -0.5c-1.33301 -132 -2.33301 -252.333 -3 -361s-1 -214.334 -1 -317.001c0 -189.333 0.666992 -419.5 2 -690.5s2 -412.5 2 -424.5z" />
    <glyph glyph-name="periodcentered" unicode="&#xb7;" horiz-adv-x="600" 
d="M401 473h-201v213h201v-213z" />
    <glyph glyph-name="cedilla" unicode="&#xb8;" horiz-adv-x="800" 
d="M633 24c0 -70.667 -11.3311 -132.166 -33.998 -184.499s-59.334 -92.5 -110.001 -120.5c-20.667 -11.333 -49.834 -23.333 -87.501 -36s-78.5 -20.334 -122.5 -23.001l-18 109c50 2.66699 91.167 9.83398 123.5 21.501s55.5 24.5 69.5 38.5c18 18 32.5 38.167 43.5 60.5
s16.5 60.166 16.5 113.499v21h119z" />
    <glyph glyph-name="onesuperior" unicode="&#xb9;" horiz-adv-x="840" 
d="M551 537l-138.001 -0.000976562c0 4.66699 0.666992 32.5 2 83.5s2 154.5 2 310.5c0 14.667 -0.166992 63.5 -0.5 146.5s-0.5 135.833 -0.5 158.5l-4 2c-25.333 -16 -60.166 -39.167 -104.499 -69.5l-133.5 -90.5l-57 75l205.5 139l127.5 88l101 -55
c-1.33301 -62 -2.33301 -134.333 -3 -217s-1 -131.667 -1 -147c0 -37.333 0.666992 -115.166 2 -233.499s2 -181.833 2 -190.5z" />
    <glyph glyph-name="ordmasculine" unicode="&#xba;" horiz-adv-x="840" 
d="M768 861c0 -48 -10.167 -95.3311 -30.5 -141.998s-48.166 -85.334 -83.499 -116.001c-34.667 -28.667 -71.167 -49.667 -109.5 -63s-79.833 -20 -124.5 -20c-45.333 0 -88 7.16699 -128 21.5s-75.333 34.5 -106 60.5c-36 31.333 -63.833 69.666 -83.5 114.999
s-29.5 93.666 -29.5 144.999c0 50 8.66699 95.333 26 136s43.333 77.667 78 111c31.333 28.667 67.5 51.167 108.5 67.5s86.167 24.5 135.5 24.5c48.667 0 93.167 -7.33301 133.5 -22s76.166 -36.667 107.499 -66c36 -33.333 62.667 -71.166 80 -113.499s26 -88.5 26 -138.5
zM708 200.002h-576v100h576v-100zM637 857.002c0 38 -6.66602 73.501 -19.999 106.501s-34 61.833 -62 86.5c-17.333 15.333 -37.5 27.166 -60.5 35.499s-47.5 12.5 -73.5 12.5c-30 0 -56.5 -4.5 -79.5 -13.5s-43.833 -22.5 -62.5 -40.5
c-24.667 -22 -43.334 -49.667 -56.001 -83s-19 -66.333 -19 -99c0 -42 7.33301 -79.167 22 -111.5s36 -59.833 64 -82.5c17.333 -14.667 37.333 -25.5 60 -32.5s46 -10.5 70 -10.5c26 0 51.5 4.66699 76.5 14s45.833 22 62.5 38c26 23.333 45.5 50.333 58.5 81
s19.5 63.667 19.5 99z" />
    <glyph glyph-name="guillemotright" unicode="&#xbb;" horiz-adv-x="1048" 
d="M960 540l-414 -423l-78 78l348 349l-348 348l78 78l414 -424v-6zM591 540l-414 -423l-78 78l348 349l-348 348l78 78l414 -424v-6z" />
    <glyph glyph-name="onequarter" unicode="&#xbc;" 
d="M1044 411h-890v95h890v-95zM975 -205c-55.333 0.666992 -99.168 1.00195 -131.501 1.00195h-89.5c-1.33301 -80 -1.66602 -139.833 -0.999023 -179.5s1 -62.5 1 -68.5h-127c0 5.33301 0.333008 30.666 1 75.999s1 102.666 1 171.999h-367l-61 97l301.5 300l147.5 149
l106 -48c-2 -80 -2.83301 -161 -2.5 -243s0.5 -133.667 0.5 -155h92c40 0 83 0.333008 129 1v-102zM628.998 -103.998l-0.000976562 289l-3 1l-281 -288l1 -2c11.333 0 27.333 -0.166992 48 -0.5s46.334 -0.5 77.001 -0.5h63c26 0 57.667 0.333008 95 1zM687.997 607.002
l-137.998 -0.000976562c0 4.66699 0.666992 39.834 2 105.501s2 147.167 2 244.5c0 12 -0.166992 55.667 -0.5 131s-0.5 123.666 -0.5 144.999l-4 2c-24.667 -14.667 -59.334 -38 -104.001 -70s-89.334 -62 -134.001 -90l-55 79c68 42.667 137.333 88.834 208 138.501
l123 86.5l101 -51c-1.33301 -58.667 -2.33301 -126.667 -3 -204s-1 -123.333 -1 -138c0 -34 0.666992 -103 2 -207s2 -161.333 2 -172z" />
    <glyph glyph-name="onehalf" unicode="&#xbd;" 
d="M678 607l-137.998 -0.000976562c0 4.66699 0.666992 39.834 2 105.501s2 147.167 2 244.5c0 12 -0.166992 55.667 -0.5 131s-0.5 123.666 -0.5 144.999l-4 2c-24.667 -14.667 -59.334 -38 -104.001 -70s-89.334 -62 -134.001 -90l-55 79
c68 42.667 137.333 88.834 208 138.501l123 86.5l101 -51c-1.33301 -58.667 -2.33301 -126.667 -3 -204s-1 -123.333 -1 -138c0 -34 0.666992 -103 2 -207s2 -161.333 2 -172zM971.002 -432.001c-4.66699 0 -49.8311 0.166992 -135.498 0.5s-146.834 0.5 -183.501 0.5
c-55.333 0 -124.5 -0.166992 -207.5 -0.5s-127.833 -0.5 -134.5 -0.5l-31 88c46.667 18 98.334 43.333 155.001 76s103 63 139 91c48.667 38 84 72.5 106 103.5s33 64.833 33 101.5c0 36 -9.66699 64.333 -29 85s-42.333 37.334 -69 50.001
c-29.333 14 -63.5 23.167 -102.5 27.5s-82.833 6.5 -131.5 6.5c-11.333 0 -22.166 -0.166992 -32.499 -0.5s-18.5 -0.5 -24.5 -0.5l10 112c5.33301 0 14.666 0.333008 27.999 1s26.666 1 39.999 1c62 0 118.833 -4 170.5 -12s97.5 -22.333 137.5 -43
c47.333 -24.667 83.5 -54.834 108.5 -90.501s37.5 -78.5 37.5 -128.5c0 -48 -13.833 -92.333 -41.5 -133s-61.834 -77 -102.501 -109c-36.667 -27.333 -72.5 -51.333 -107.5 -72s-64.5 -37 -88.5 -49l1 -4c25.333 1.33301 50.5 2 75.5 2s46.5 0.333008 64.5 1
c52.667 0 117 0.166992 193 0.5s116.667 0.5 122 0.5v-105zM1044 410.999h-890v95h890v-95z" />
    <glyph glyph-name="threequarters" unicode="&#xbe;" 
d="M1044 411h-890v95h890v-95zM903 846c0 -38 -13.6641 -75.165 -40.9971 -111.498s-67 -65.5 -119 -87.5c-43.333 -18.667 -99 -31 -167 -37s-138.333 -9 -211 -9c-8.66699 0 -15 0.166992 -19 0.5s-7.33301 0.5 -10 0.5l-17 107h25c12 0 23.333 0.333008 34 1
c43.333 1.33301 90.333 2.66602 141 3.99902s91 6.33301 121 15c43.333 12.667 74.666 27 93.999 43s29 38 29 66c0 23.333 -8.83301 42.166 -26.5 56.499s-40.5 25.5 -68.5 33.5c-18.667 5.33301 -40 8.16602 -64 8.49902s-51.667 0.5 -83 0.5h-46.5h-28.5l-15 95
c20.667 2.66699 43.834 5 69.501 7s52.167 6.33301 79.5 13c39.333 9.33301 71.166 21.166 95.499 35.499s36.5 36.5 36.5 66.5c0 25.333 -8.33301 44.5 -25 57.5s-39 23.167 -67 30.5c-20.667 6 -50.334 10.167 -89.001 12.5s-72.334 3.5 -101.001 3.5h-40.5h-31.5l23 107
h20h22c46 0 96.333 -2.16699 151 -6.5s101 -13.833 139 -28.5c41.333 -14 75.333 -33.833 102 -59.5s40 -58.167 40 -97.5c0 -37.333 -14.833 -70.666 -44.5 -99.999s-63.834 -50.666 -102.501 -63.999v-2c56.667 -8 103.334 -25.5 140.001 -52.5s55 -63.167 55 -108.5z
M985.003 -204.998c-55.333 0.666992 -99.168 1.00195 -131.501 1.00195h-89.5c-1.33301 -80 -1.66602 -139.833 -0.999023 -179.5s1 -62.5 1 -68.5h-127c0 5.33301 0.333008 30.666 1 75.999s1 102.666 1 171.999h-367l-61 97l301.5 300l147.5 149l106 -48
c-2 -80 -2.83301 -161 -2.5 -243s0.5 -133.667 0.5 -155h92c40 0 83 0.333008 129 1v-102zM639.001 -103.996l-0.000976562 289l-3 1l-281 -288l1 -2c11.333 0 27.333 -0.166992 48 -0.5s46.334 -0.5 77.001 -0.5h63c26 0 57.667 0.333008 95 1z" />
    <glyph glyph-name="questiondown" unicode="&#xbf;" horiz-adv-x="1143" 
d="M759 1138h-192v201h192v-201zM827 133l-19 -142.999c-4 0 -17.333 -0.166992 -40 -0.5s-44.667 -0.5 -66 -0.5c-58 0 -114.667 4.5 -170 13.5s-106.666 24.5 -153.999 46.5c-68.667 32 -121 74 -157 126s-54 113.667 -54 185c0 52 11.5 101.667 34.5 149
s61.833 93.333 116.5 138c43.333 34.667 93.666 67 150.999 97s101.333 54.333 132 73l-2 190h148v-270l-138.5 -64c-51.667 -24.667 -96.167 -50 -133.5 -76c-39.333 -26.667 -72.666 -59.5 -99.999 -98.5s-41 -81.833 -41 -128.5c0 -62 18.167 -110 54.5 -144
s85.166 -58 146.499 -72c47.333 -10.667 91 -16.834 131 -18.501s93.667 -2.5 161 -2.5z" />
    <glyph glyph-name="Agrave" unicode="&#xc0;" horiz-adv-x="1358" 
d="M1346 53l-156 -80c-2.66699 7.33301 -23.5 57 -62.5 149l-154.5 355h-598l-162 -361c-38 -85.333 -59 -133 -63 -143l-134 72c17.333 34.667 88.833 187.5 214.5 458.5l391.5 854.5h130l393 -868zM916 605l-114 255l-126 278h-4l-123 -270.5l-119 -262.5l1 -1h484z
M862 1535l-50 -99l-480 185l57 120z" />
    <glyph glyph-name="Aacute" unicode="&#xc1;" horiz-adv-x="1358" 
d="M1346 53l-156 -80c-2.66699 7.33301 -23.5 57 -62.5 149l-154.5 355h-598l-162 -361c-38 -85.333 -59 -133 -63 -143l-134 72c17.333 34.667 88.833 187.5 214.5 458.5l391.5 854.5h130l393 -868zM916 605l-114 255l-126 278h-4l-123 -270.5l-119 -262.5l1 -1h484z
M1040 1621l-480 -185l-50 99l473 206z" />
    <glyph glyph-name="Acircumflex" unicode="&#xc2;" horiz-adv-x="1358" 
d="M1346 53l-156 -80c-2.66699 7.33301 -23.5 57 -62.5 149l-154.5 355h-598l-162 -361c-38 -85.333 -59 -133 -63 -143l-134 72c17.333 34.667 88.833 187.5 214.5 458.5l391.5 854.5h130l393 -868zM916 605l-114 255l-126 278h-4l-123 -270.5l-119 -262.5l1 -1h484z
M1011 1481l-90 -72l-235 212h-2l-234 -200l-91 71l257 226h137z" />
    <glyph glyph-name="Atilde" unicode="&#xc3;" horiz-adv-x="1358" 
d="M1346 53l-156 -80c-2.66699 7.33301 -23.5 57 -62.5 149l-154.5 355h-598l-162 -361c-38 -85.333 -59 -133 -63 -143l-134 72c17.333 34.667 88.833 187.5 214.5 458.5l391.5 854.5h130l393 -868zM916 605l-114 255l-126 278h-4l-123 -270.5l-119 -262.5l1 -1h484z
M1069 1675c-10.667 -56.667 -35.999 -109.166 -75.999 -157.499s-94.333 -72.5 -163 -72.5c-24 0 -46.833 4.5 -68.5 13.5s-37.167 16.833 -46.5 23.5c-12.667 9.33301 -25.5 19.5 -38.5 30.5s-26.167 21.5 -39.5 31.5c-9.33301 6.66699 -19.5 11.834 -30.5 15.501
s-23.5 5.5 -37.5 5.5c-26 0 -48.167 -13 -66.5 -39s-32.833 -60 -43.5 -102l-106 20c9.33301 54 34.666 105.833 75.999 155.5s95 74.5 161 74.5c24.667 0 47.167 -3.83301 67.5 -11.5s36.833 -16.167 49.5 -25.5c14 -10 28 -21 42 -33s26 -21.667 36 -29
c9.33301 -6.66699 19 -11.834 29 -15.501s22.667 -5.5 38 -5.5c26 0 48.5 12.667 67.5 38s33.5 59.666 43.5 102.999z" />
    <glyph glyph-name="Adieresis" unicode="&#xc4;" horiz-adv-x="1358" 
d="M1346 53l-156 -80c-2.66699 7.33301 -23.5 57 -62.5 149l-154.5 355h-598l-162 -361c-38 -85.333 -59 -133 -63 -143l-134 72c17.333 34.667 88.833 187.5 214.5 458.5l391.5 854.5h130l393 -868zM916 605l-114 255l-126 278h-4l-123 -270.5l-119 -262.5l1 -1h484z
M1012 1461h-191v183h191v-183zM550 1461h-191v183h191v-183z" />
    <glyph glyph-name="Aring" unicode="&#xc5;" horiz-adv-x="1358" 
d="M1346 53l-156 -80c-2.66699 7.33301 -23.5 57 -62.5 149l-154.5 355h-598l-162 -361c-38 -85.333 -59 -133 -63 -143l-134 72c17.333 34.667 88.833 187.5 214.5 458.5l391.5 854.5h130l393 -868zM916 605l-114 255l-126 278h-4l-123 -270.5l-119 -262.5l1 -1h484z
M898 1597c0 -58.667 -20.668 -108.167 -62.001 -148.5s-91.666 -60.5 -150.999 -60.5c-58 0 -107.333 19.833 -148 59.5s-61 89.5 -61 149.5s20.833 109.833 62.5 149.5s91.167 59.5 148.5 59.5s106.833 -20.167 148.5 -60.5s62.5 -89.833 62.5 -148.5zM800.999 1598
c0 33.333 -10.667 61 -32 83s-48.333 33 -81 33s-60 -10.833 -82 -32.5s-33 -49.5 -33 -83.5c0 -33.333 11 -61.333 33 -84s49.333 -34 82 -34s59.667 11.333 81 34s32 50.667 32 84z" />
    <glyph glyph-name="AE" unicode="&#xc6;" horiz-adv-x="1865" 
d="M1748 2c-7.33301 0 -43.166 0.333008 -107.499 1s-158.5 1 -282.5 1c-62.667 0 -115.5 -0.333008 -158.5 -1s-66.833 -1 -71.5 -1c-1.33301 6 -18.833 59.667 -52.5 161l-144.5 442h-470l-248.5 -427c-74.333 -128 -114.166 -196.333 -119.499 -205l-131 72
c9.33301 14 89 144.5 239 391.5l530 899.5c6.66699 -0.666992 92.5 -1.16699 257.5 -1.5s266.833 -0.5 305.5 -0.5c130 0 228.333 0.333008 295 1s102 1 106 1v-139c-6.66699 0 -41.334 0.5 -104.001 1.5s-152.334 1.5 -269.001 1.5c-40 0 -100.167 -0.166992 -180.5 -0.5
s-159.5 -0.5 -237.5 -0.5l-1 -1l78.5 -238.5l74.5 -224.5h104h93c122 0 221.833 0.5 299.5 1.5s119.5 1.5 125.5 1.5v-135c-6 0 -45.833 0.5 -119.5 1.5s-172.167 1.5 -295.5 1.5c-26 0 -55 -0.166992 -87 -0.5s-57 -0.5 -75 -0.5l-1 -1l94 -279l62 -186h87.5h100.5
c103.333 0 178 0.333008 224 1s72.667 1 80 1v-139zM889 733l-71 219l-55 169h-2l-85.5 -146.5l-140.5 -241.5l1 -1h352z" />
    <glyph glyph-name="Ccedilla" unicode="&#xc7;" horiz-adv-x="1182" 
d="M1126 -18c0 -74 -11.665 -136.003 -34.998 -186.003s-60 -89 -110 -117c-48.667 -24.667 -90.834 -41.167 -126.501 -49.5s-73.5 -12.5 -113.5 -12.5h-6.5h-5.5l-17 115c68.667 2.66699 120.334 10.334 155.001 23.001s59.334 26.334 74.001 41.001
c20 20 34.833 43.167 44.5 69.5s14.5 65.5 14.5 117.5c-148.667 10 -279.334 35.167 -392.001 75.5s-205.334 95.5 -278.001 165.5c-56.667 54 -102.334 118.333 -137.001 193s-52 160.334 -52 257.001c0 86.667 16.333 165.834 49 237.501s75.334 134.167 128.001 187.5
c76.667 77.333 179.667 138.666 309 183.999s267.666 68 414.999 68h25h20c0.666992 -12 2 -31.167 4 -57.5s4.33301 -54.833 7 -85.5h-17h-17c-83.333 0 -169.5 -9 -258.5 -27s-166.167 -45.667 -231.5 -83c-84 -48 -148.667 -109.5 -194 -184.5s-68 -155.833 -68 -242.5
c0 -90 21.833 -171.333 65.5 -244s109.5 -134 197.5 -184c71.333 -40.667 155 -70.667 251 -90s183 -29 261 -29h14.5c6.33301 0 14.5 0.333008 24.5 1v-143z" />
    <glyph glyph-name="Egrave" unicode="&#xc8;" horiz-adv-x="1237" 
d="M1084 2c-6 0 -50.332 0.332031 -132.999 0.999023s-185 1 -307 1c-84.667 0 -162.167 -0.333008 -232.5 -1s-129.833 -1 -178.5 -1c1.33301 38.667 2.5 122.334 3.5 251.001s1.5 261.667 1.5 399c0 75.333 -0.333008 175 -1 299s-2 252.333 -4 385
c47.333 0 106.5 -0.333008 177.5 -1s144.167 -1 219.5 -1c127.333 0 231 0.333008 311 1s123.333 1 130 1v-139c-6.66699 0 -48.5 0.5 -125.5 1.5s-172.833 1.5 -287.5 1.5c-50 0 -99 -0.166992 -147 -0.5s-86 -0.5 -114 -0.5c0 -75.333 -0.666992 -150.5 -2 -225.5
s-2 -145.833 -2 -212.5c30 0 65.5 -0.166992 106.5 -0.5s77.5 -0.5 109.5 -0.5c117.333 0 222.166 0.5 314.499 1.5s141.5 1.5 147.5 1.5v-138c-5.33301 0 -60.333 0.5 -165 1.5s-200.334 1.5 -287.001 1.5c-32 0 -70.167 -0.166992 -114.5 -0.5s-81.5 -0.5 -111.5 -0.5
c0 -126 0.333008 -226 1 -300s1.33398 -136 2.00098 -186c39.333 -0.666992 87 -1.16699 143 -1.5s116.333 -0.5 181 -0.5c99.333 0 182.833 0.333008 250.5 1s105.5 1 113.5 1v-139zM904.001 1535l-50 -99l-480 185l57 120z" />
    <glyph glyph-name="Eacute" unicode="&#xc9;" horiz-adv-x="1237" 
d="M1084 2c-6 0 -50.332 0.332031 -132.999 0.999023s-185 1 -307 1c-84.667 0 -162.167 -0.333008 -232.5 -1s-129.833 -1 -178.5 -1c1.33301 38.667 2.5 122.334 3.5 251.001s1.5 261.667 1.5 399c0 75.333 -0.333008 175 -1 299s-2 252.333 -4 385
c47.333 0 106.5 -0.333008 177.5 -1s144.167 -1 219.5 -1c127.333 0 231 0.333008 311 1s123.333 1 130 1v-139c-6.66699 0 -48.5 0.5 -125.5 1.5s-172.833 1.5 -287.5 1.5c-50 0 -99 -0.166992 -147 -0.5s-86 -0.5 -114 -0.5c0 -75.333 -0.666992 -150.5 -2 -225.5
s-2 -145.833 -2 -212.5c30 0 65.5 -0.166992 106.5 -0.5s77.5 -0.5 109.5 -0.5c117.333 0 222.166 0.5 314.499 1.5s141.5 1.5 147.5 1.5v-138c-5.33301 0 -60.333 0.5 -165 1.5s-200.334 1.5 -287.001 1.5c-32 0 -70.167 -0.166992 -114.5 -0.5s-81.5 -0.5 -111.5 -0.5
c0 -126 0.333008 -226 1 -300s1.33398 -136 2.00098 -186c39.333 -0.666992 87 -1.16699 143 -1.5s116.333 -0.5 181 -0.5c99.333 0 182.833 0.333008 250.5 1s105.5 1 113.5 1v-139zM978.001 1621l-480 -185l-50 99l473 206z" />
    <glyph glyph-name="Ecircumflex" unicode="&#xca;" horiz-adv-x="1237" 
d="M1084 2c-6 0 -50.332 0.332031 -132.999 0.999023s-185 1 -307 1c-84.667 0 -162.167 -0.333008 -232.5 -1s-129.833 -1 -178.5 -1c1.33301 38.667 2.5 122.334 3.5 251.001s1.5 261.667 1.5 399c0 75.333 -0.333008 175 -1 299s-2 252.333 -4 385
c47.333 0 106.5 -0.333008 177.5 -1s144.167 -1 219.5 -1c127.333 0 231 0.333008 311 1s123.333 1 130 1v-139c-6.66699 0 -48.5 0.5 -125.5 1.5s-172.833 1.5 -287.5 1.5c-50 0 -99 -0.166992 -147 -0.5s-86 -0.5 -114 -0.5c0 -75.333 -0.666992 -150.5 -2 -225.5
s-2 -145.833 -2 -212.5c30 0 65.5 -0.166992 106.5 -0.5s77.5 -0.5 109.5 -0.5c117.333 0 222.166 0.5 314.499 1.5s141.5 1.5 147.5 1.5v-138c-5.33301 0 -60.333 0.5 -165 1.5s-200.334 1.5 -287.001 1.5c-32 0 -70.167 -0.166992 -114.5 -0.5s-81.5 -0.5 -111.5 -0.5
c0 -126 0.333008 -226 1 -300s1.33398 -136 2.00098 -186c39.333 -0.666992 87 -1.16699 143 -1.5s116.333 -0.5 181 -0.5c99.333 0 182.833 0.333008 250.5 1s105.5 1 113.5 1v-139zM984.001 1486l-90 -72l-235 212h-2l-234 -200l-91 71l257 226h137z" />
    <glyph glyph-name="Edieresis" unicode="&#xcb;" horiz-adv-x="1237" 
d="M1084 2c-6 0 -50.332 0.332031 -132.999 0.999023s-185 1 -307 1c-84.667 0 -162.167 -0.333008 -232.5 -1s-129.833 -1 -178.5 -1c1.33301 38.667 2.5 122.334 3.5 251.001s1.5 261.667 1.5 399c0 75.333 -0.333008 175 -1 299s-2 252.333 -4 385
c47.333 0 106.5 -0.333008 177.5 -1s144.167 -1 219.5 -1c127.333 0 231 0.333008 311 1s123.333 1 130 1v-139c-6.66699 0 -48.5 0.5 -125.5 1.5s-172.833 1.5 -287.5 1.5c-50 0 -99 -0.166992 -147 -0.5s-86 -0.5 -114 -0.5c0 -75.333 -0.666992 -150.5 -2 -225.5
s-2 -145.833 -2 -212.5c30 0 65.5 -0.166992 106.5 -0.5s77.5 -0.5 109.5 -0.5c117.333 0 222.166 0.5 314.499 1.5s141.5 1.5 147.5 1.5v-138c-5.33301 0 -60.333 0.5 -165 1.5s-200.334 1.5 -287.001 1.5c-32 0 -70.167 -0.166992 -114.5 -0.5s-81.5 -0.5 -111.5 -0.5
c0 -126 0.333008 -226 1 -300s1.33398 -136 2.00098 -186c39.333 -0.666992 87 -1.16699 143 -1.5s116.333 -0.5 181 -0.5c99.333 0 182.833 0.333008 250.5 1s105.5 1 113.5 1v-139zM990.001 1461h-191v183h191v-183zM528.001 1461h-191v183h191v-183z" />
    <glyph glyph-name="Igrave" unicode="&#xcc;" horiz-adv-x="635" 
d="M494 1535l-50 -99l-440 185l57 120zM400 0l-165 -0.000976562c0.666992 40 1.66699 111.333 3 214s2 250 2 442c0 76 -0.333008 175.667 -1 299s-2 251.333 -4 384h165c-1.33301 -95.333 -2.5 -206.166 -3.5 -332.499s-1.5 -229.5 -1.5 -309.5
c0 -202.667 0.666992 -359.5 2 -470.5s2.33301 -186.5 3 -226.5z" />
    <glyph glyph-name="Iacute" unicode="&#xcd;" horiz-adv-x="635" 
d="M631 1621l-440 -185l-50 99l433 206zM400 0l-165 -0.000976562c0.666992 40 1.66699 111.333 3 214s2 250 2 442c0 76 -0.333008 175.667 -1 299s-2 251.333 -4 384h165c-1.33301 -95.333 -2.5 -206.166 -3.5 -332.499s-1.5 -229.5 -1.5 -309.5
c0 -202.667 0.666992 -359.5 2 -470.5s2.33301 -186.5 3 -226.5z" />
    <glyph glyph-name="Icircumflex" unicode="&#xce;" horiz-adv-x="635" 
d="M613 1481l-90 -72l-205 212h-2l-204 -200l-91 71l227 226h137zM400 0l-165 -0.000976562c0.666992 40 1.66699 111.333 3 214s2 250 2 442c0 76 -0.333008 175.667 -1 299s-2 251.333 -4 384h165c-1.33301 -95.333 -2.5 -206.166 -3.5 -332.499s-1.5 -229.5 -1.5 -309.5
c0 -202.667 0.666992 -359.5 2 -470.5s2.33301 -186.5 3 -226.5z" />
    <glyph glyph-name="Idieresis" unicode="&#xcf;" horiz-adv-x="635" 
d="M604 1461h-191v183h191v-183zM222 1461h-191v183h191v-183zM400 0l-165 -0.000976562c0.666992 40 1.66699 111.333 3 214s2 250 2 442c0 76 -0.333008 175.667 -1 299s-2 251.333 -4 384h165c-1.33301 -95.333 -2.5 -206.166 -3.5 -332.499s-1.5 -229.5 -1.5 -309.5
c0 -202.667 0.666992 -359.5 2 -470.5s2.33301 -186.5 3 -226.5z" />
    <glyph glyph-name="Eth" unicode="&#xd0;" horiz-adv-x="1497" 
d="M1354 662c0 -117.333 -28.833 -220.334 -86.5 -309.001s-132.5 -160 -224.5 -214c-80 -47.333 -169.167 -83.333 -267.5 -108s-208.833 -37 -331.5 -37c-46.667 0 -92.167 0.666992 -136.5 2s-69.166 2 -74.499 2c0 9.33301 0.833008 81.333 2.5 216
s2.5 275.334 2.5 422.001c-40 0 -84.5 -0.333008 -133.5 -1s-76.5 -1 -82.5 -1v117c5.33301 0 28.333 -0.333008 69 -1s89.667 -1 147 -1c-0.666992 60 -1.16699 138.5 -1.5 235.5s-1.5 215.167 -3.5 354.5c9.33301 0 40.5 0.333008 93.5 1s81.5 1 85.5 1
c138 0 260.5 -12.333 367.5 -37s202.5 -63.667 286.5 -117c97.333 -62 169.666 -136.5 216.999 -223.5s71 -187.5 71 -301.5zM1183 662.999c0 86.667 -18.665 165.333 -55.998 236s-96.333 131.334 -177 182.001c-75.333 47.333 -158.833 80.333 -250.5 99
s-174.834 28 -249.501 28h-29.5h-24.5c-1.33301 -92 -2.16602 -179.333 -2.49902 -262s-0.5 -148.334 -0.5 -197.001c67.333 0 136.666 0.333008 207.999 1s112 1 122 1v-117c-6.66699 0 -43.834 0.333008 -111.501 1s-140.5 1 -218.5 1
c0 -32.667 0.333008 -95.167 1 -187.5s1 -199.5 1 -321.5h26.5h26.5c86.667 0 173.667 10.167 261 30.5s161 48.5 221 84.5c76 45.333 137.167 102.833 183.5 172.5s69.5 152.5 69.5 248.5z" />
    <glyph glyph-name="Ntilde" unicode="&#xd1;" horiz-adv-x="1618" 
d="M1385 1339c-1.33301 -104.667 -2.5 -224.333 -3.5 -359s-1.5 -231.667 -1.5 -291c0 -189.333 0.666992 -339.833 2 -451.5s2 -171.167 2 -178.5l-133 -65l-564.5 736.5l-303.5 379.5l-2 -1c0 -178.667 1.16699 -398.167 3.5 -658.5s3.83301 -410.5 4.5 -450.5h-156
c0.666992 16.667 1.66699 76 3 178s2 244 2 426c0 72.667 -0.333008 169.167 -1 289.5s-2 247.833 -4 382.5l152 72l306.5 -389l543.5 -680l2 1c0 102.667 -1.33301 275.5 -4 518.5s-4 423.167 -4 540.5h156zM1201 1675c-10.667 -56.667 -35.999 -109.166 -75.999 -157.499
s-94.333 -72.5 -163 -72.5c-24 0 -46.833 4.5 -68.5 13.5s-37.167 16.833 -46.5 23.5c-12.667 9.33301 -25.5 19.5 -38.5 30.5s-26.167 21.5 -39.5 31.5c-9.33301 6.66699 -19.5 11.834 -30.5 15.501s-23.5 5.5 -37.5 5.5c-26 0 -48.167 -13 -66.5 -39
s-32.833 -60 -43.5 -102l-106 20c9.33301 54 34.666 105.833 75.999 155.5s95 74.5 161 74.5c24.667 0 47.167 -3.83301 67.5 -11.5s36.833 -16.167 49.5 -25.5c14 -10 28 -21 42 -33s26 -21.667 36 -29c9.33301 -6.66699 19 -11.834 29 -15.501s22.667 -5.5 38 -5.5
c26 0 48.5 12.667 67.5 38s33.5 59.666 43.5 102.999z" />
    <glyph glyph-name="Ograve" unicode="&#xd2;" horiz-adv-x="1548" 
d="M1419 669c0 -108 -18.499 -207.166 -55.499 -297.499s-85.167 -164.833 -144.5 -223.5c-66 -65.333 -136 -112.833 -210 -142.5s-153.333 -44.5 -238 -44.5c-82.667 0 -160.667 14.167 -234 42.5s-139.333 70.5 -198 126.5
c-64.667 60.667 -116.834 137.167 -156.501 229.5s-59.5 196.166 -59.5 311.499c0 102.667 15.667 196.167 47 280.5s78.333 160.166 141 227.499c58 62.667 127 111.167 207 145.5s164.333 51.5 253 51.5c90 0 173.333 -16.167 250 -48.5s143 -77.166 199 -134.499
c65.333 -66.667 114.833 -145.167 148.5 -235.5s50.5 -186.5 50.5 -288.5zM1248 653.001c0 86.667 -14.499 171.831 -43.499 255.498s-73.167 153.834 -132.5 210.501c-40 38.667 -84.833 68.667 -134.5 90s-105.167 32 -166.5 32c-60 0 -115.833 -10.833 -167.5 -32.5
s-98.5 -53.5 -140.5 -95.5c-53.333 -53.333 -94.833 -119.333 -124.5 -198s-44.5 -160.667 -44.5 -246c0 -96 15.167 -182 45.5 -258s73.166 -140.333 128.499 -193c38 -36.667 83 -66.167 135 -88.5s107.667 -33.5 167 -33.5s114.833 10.833 166.5 32.5
s98.5 52.834 140.5 93.501c50 48 91 109.167 123 183.5s48 156.833 48 247.5zM984.002 1535l-50 -99l-480 185l57 120z" />
    <glyph glyph-name="Oacute" unicode="&#xd3;" horiz-adv-x="1548" 
d="M1419 669c0 -108 -18.499 -207.166 -55.499 -297.499s-85.167 -164.833 -144.5 -223.5c-66 -65.333 -136 -112.833 -210 -142.5s-153.333 -44.5 -238 -44.5c-82.667 0 -160.667 14.167 -234 42.5s-139.333 70.5 -198 126.5
c-64.667 60.667 -116.834 137.167 -156.501 229.5s-59.5 196.166 -59.5 311.499c0 102.667 15.667 196.167 47 280.5s78.333 160.166 141 227.499c58 62.667 127 111.167 207 145.5s164.333 51.5 253 51.5c90 0 173.333 -16.167 250 -48.5s143 -77.166 199 -134.499
c65.333 -66.667 114.833 -145.167 148.5 -235.5s50.5 -186.5 50.5 -288.5zM1248 653.001c0 86.667 -14.499 171.831 -43.499 255.498s-73.167 153.834 -132.5 210.501c-40 38.667 -84.833 68.667 -134.5 90s-105.167 32 -166.5 32c-60 0 -115.833 -10.833 -167.5 -32.5
s-98.5 -53.5 -140.5 -95.5c-53.333 -53.333 -94.833 -119.333 -124.5 -198s-44.5 -160.667 -44.5 -246c0 -96 15.167 -182 45.5 -258s73.166 -140.333 128.499 -193c38 -36.667 83 -66.167 135 -88.5s107.667 -33.5 167 -33.5s114.833 10.833 166.5 32.5
s98.5 52.834 140.5 93.501c50 48 91 109.167 123 183.5s48 156.833 48 247.5zM1088 1621l-480 -185l-50 99l473 206z" />
    <glyph glyph-name="Ocircumflex" unicode="&#xd4;" horiz-adv-x="1548" 
d="M1419 669c0 -108 -18.499 -207.166 -55.499 -297.499s-85.167 -164.833 -144.5 -223.5c-66 -65.333 -136 -112.833 -210 -142.5s-153.333 -44.5 -238 -44.5c-82.667 0 -160.667 14.167 -234 42.5s-139.333 70.5 -198 126.5
c-64.667 60.667 -116.834 137.167 -156.501 229.5s-59.5 196.166 -59.5 311.499c0 102.667 15.667 196.167 47 280.5s78.333 160.166 141 227.499c58 62.667 127 111.167 207 145.5s164.333 51.5 253 51.5c90 0 173.333 -16.167 250 -48.5s143 -77.166 199 -134.499
c65.333 -66.667 114.833 -145.167 148.5 -235.5s50.5 -186.5 50.5 -288.5zM1248 653.001c0 86.667 -14.499 171.831 -43.499 255.498s-73.167 153.834 -132.5 210.501c-40 38.667 -84.833 68.667 -134.5 90s-105.167 32 -166.5 32c-60 0 -115.833 -10.833 -167.5 -32.5
s-98.5 -53.5 -140.5 -95.5c-53.333 -53.333 -94.833 -119.333 -124.5 -198s-44.5 -160.667 -44.5 -246c0 -96 15.167 -182 45.5 -258s73.166 -140.333 128.499 -193c38 -36.667 83 -66.167 135 -88.5s107.667 -33.5 167 -33.5s114.833 10.833 166.5 32.5
s98.5 52.834 140.5 93.501c50 48 91 109.167 123 183.5s48 156.833 48 247.5zM1097 1481l-90 -72l-235 212h-2l-234 -200l-91 71l257 226h137z" />
    <glyph glyph-name="Otilde" unicode="&#xd5;" horiz-adv-x="1548" 
d="M1419 669c0 -108 -18.499 -207.166 -55.499 -297.499s-85.167 -164.833 -144.5 -223.5c-66 -65.333 -136 -112.833 -210 -142.5s-153.333 -44.5 -238 -44.5c-82.667 0 -160.667 14.167 -234 42.5s-139.333 70.5 -198 126.5
c-64.667 60.667 -116.834 137.167 -156.501 229.5s-59.5 196.166 -59.5 311.499c0 102.667 15.667 196.167 47 280.5s78.333 160.166 141 227.499c58 62.667 127 111.167 207 145.5s164.333 51.5 253 51.5c90 0 173.333 -16.167 250 -48.5s143 -77.166 199 -134.499
c65.333 -66.667 114.833 -145.167 148.5 -235.5s50.5 -186.5 50.5 -288.5zM1248 653.001c0 86.667 -14.499 171.831 -43.499 255.498s-73.167 153.834 -132.5 210.501c-40 38.667 -84.833 68.667 -134.5 90s-105.167 32 -166.5 32c-60 0 -115.833 -10.833 -167.5 -32.5
s-98.5 -53.5 -140.5 -95.5c-53.333 -53.333 -94.833 -119.333 -124.5 -198s-44.5 -160.667 -44.5 -246c0 -96 15.167 -182 45.5 -258s73.166 -140.333 128.499 -193c38 -36.667 83 -66.167 135 -88.5s107.667 -33.5 167 -33.5s114.833 10.833 166.5 32.5
s98.5 52.834 140.5 93.501c50 48 91 109.167 123 183.5s48 156.833 48 247.5zM1130 1675c-10.667 -56.667 -35.999 -109.166 -75.999 -157.499s-94.333 -72.5 -163 -72.5c-24 0 -46.833 4.5 -68.5 13.5s-37.167 16.833 -46.5 23.5c-12.667 9.33301 -25.5 19.5 -38.5 30.5
s-26.167 21.5 -39.5 31.5c-9.33301 6.66699 -19.5 11.834 -30.5 15.501s-23.5 5.5 -37.5 5.5c-26 0 -48.167 -13 -66.5 -39s-32.833 -60 -43.5 -102l-106 20c9.33301 54 34.666 105.833 75.999 155.5s95 74.5 161 74.5c24.667 0 47.167 -3.83301 67.5 -11.5
s36.833 -16.167 49.5 -25.5c14 -10 28 -21 42 -33s26 -21.667 36 -29c9.33301 -6.66699 19 -11.834 29 -15.501s22.667 -5.5 38 -5.5c26 0 48.5 12.667 67.5 38s33.5 59.666 43.5 102.999z" />
    <glyph glyph-name="Odieresis" unicode="&#xd6;" horiz-adv-x="1548" 
d="M1419 669c0 -108 -18.499 -207.166 -55.499 -297.499s-85.167 -164.833 -144.5 -223.5c-66 -65.333 -136 -112.833 -210 -142.5s-153.333 -44.5 -238 -44.5c-82.667 0 -160.667 14.167 -234 42.5s-139.333 70.5 -198 126.5
c-64.667 60.667 -116.834 137.167 -156.501 229.5s-59.5 196.166 -59.5 311.499c0 102.667 15.667 196.167 47 280.5s78.333 160.166 141 227.499c58 62.667 127 111.167 207 145.5s164.333 51.5 253 51.5c90 0 173.333 -16.167 250 -48.5s143 -77.166 199 -134.499
c65.333 -66.667 114.833 -145.167 148.5 -235.5s50.5 -186.5 50.5 -288.5zM1248 653.001c0 86.667 -14.499 171.831 -43.499 255.498s-73.167 153.834 -132.5 210.501c-40 38.667 -84.833 68.667 -134.5 90s-105.167 32 -166.5 32c-60 0 -115.833 -10.833 -167.5 -32.5
s-98.5 -53.5 -140.5 -95.5c-53.333 -53.333 -94.833 -119.333 -124.5 -198s-44.5 -160.667 -44.5 -246c0 -96 15.167 -182 45.5 -258s73.166 -140.333 128.499 -193c38 -36.667 83 -66.167 135 -88.5s107.667 -33.5 167 -33.5s114.833 10.833 166.5 32.5
s98.5 52.834 140.5 93.501c50 48 91 109.167 123 183.5s48 156.833 48 247.5zM1099 1461h-191v183h191v-183zM637.002 1461h-191v183h191v-183z" />
    <glyph glyph-name="multiply" unicode="&#xd7;" horiz-adv-x="1800" 
d="M1368 964l-387 -388l387 -386l-83 -83l-386 387l-386 -386l-83 83l387 387l-386 386l80 80l386 -386l388 389z" />
    <glyph glyph-name="Oslash" unicode="&#xd8;" horiz-adv-x="1548" 
d="M1419 669c0 -108 -18.499 -207.165 -55.499 -297.498s-85.167 -164.833 -144.5 -223.5c-66 -65.333 -136 -112.833 -210 -142.5s-153.333 -44.5 -238 -44.5c-65.333 0 -127.333 8.83301 -186 26.5s-113 44.167 -163 79.5l-97.5 -147.5
c-19.667 -29.667 -32.167 -48.834 -37.5 -57.501l-75 52l44.5 64l95.5 142c-67.333 58.667 -122.333 135.667 -165 231s-64 202 -64 320c0 102.667 15.667 196.167 47 280.5s78.333 160.166 141 227.499c58 62.667 127 111.167 207 145.5s164.333 51.5 253 51.5
c66 0 128.667 -9 188 -27s114.666 -44.333 165.999 -79l58.5 88l56.5 85l76 -50l-57 -81.5l-66 -95.5c75.333 -65.333 131.833 -146.333 169.5 -243s56.5 -198 56.5 -304zM1141 1140l-195 -285l-142 -212l-169.5 -252.5l-161.5 -243.5l-68 52l161.5 238.5l164.5 244.5
l147 217.5l191 287.5zM1248 653.002c0 86.667 -14.499 171.831 -43.499 255.498s-73.167 153.834 -132.5 210.501c-40 38.667 -84.833 68.667 -134.5 90s-105.167 32 -166.5 32c-60 0 -115.833 -10.833 -167.5 -32.5s-98.5 -53.5 -140.5 -95.5
c-53.333 -53.333 -94.833 -119.333 -124.5 -198s-44.5 -160.667 -44.5 -246c0 -96 15.167 -182 45.5 -258s73.166 -140.333 128.499 -193c38 -36.667 83 -66.167 135 -88.5s107.667 -33.5 167 -33.5s114.833 10.833 166.5 32.5s98.5 52.834 140.5 93.501
c50 48 91 109.167 123 183.5s48 156.833 48 247.5z" />
    <glyph glyph-name="Ugrave" unicode="&#xd9;" horiz-adv-x="1547" 
d="M1324 1339c0 -128 -0.666992 -233.834 -2 -317.501s-2 -156.5 -2 -218.5c0 -76 0.166992 -140.833 0.5 -194.5s0.5 -100.167 0.5 -139.5c0 -77.333 -11.5 -145.5 -34.5 -204.5s-57.833 -110.5 -104.5 -154.5s-104 -78.5 -172 -103.5s-146.667 -37.5 -236 -37.5
s-168 12.333 -236 37s-125.667 59.334 -173 104.001c-46.667 44 -81.5 95.5 -104.5 154.5s-34.5 127.167 -34.5 204.5c0 39.333 0.166992 85.833 0.5 139.5s0.5 118.5 0.5 194.5c0 62 -0.666992 134.833 -2 218.5s-2 189.5 -2 317.5h165
c-0.666992 -16.667 -1.5 -73.5 -2.5 -170.5s-1.5 -224.5 -1.5 -382.5c0 -48 0.166992 -97.667 0.5 -149s0.5 -104 0.5 -158c0 -122 35 -214.5 105 -277.5s164.667 -94.5 284 -94.5c129.333 0 226.333 30 291 90s97 154 97 282c0 54 0.166992 106.667 0.5 158
s0.5 101 0.5 149c0 158 -0.666992 287.333 -2 388s-2 155.667 -2 165h165zM981 1535l-50 -99l-480 185l57 120z" />
    <glyph glyph-name="Uacute" unicode="&#xda;" horiz-adv-x="1547" 
d="M1324 1339c0 -128 -0.666992 -233.834 -2 -317.501s-2 -156.5 -2 -218.5c0 -76 0.166992 -140.833 0.5 -194.5s0.5 -100.167 0.5 -139.5c0 -77.333 -11.5 -145.5 -34.5 -204.5s-57.833 -110.5 -104.5 -154.5s-104 -78.5 -172 -103.5s-146.667 -37.5 -236 -37.5
s-168 12.333 -236 37s-125.667 59.334 -173 104.001c-46.667 44 -81.5 95.5 -104.5 154.5s-34.5 127.167 -34.5 204.5c0 39.333 0.166992 85.833 0.5 139.5s0.5 118.5 0.5 194.5c0 62 -0.666992 134.833 -2 218.5s-2 189.5 -2 317.5h165
c-0.666992 -16.667 -1.5 -73.5 -2.5 -170.5s-1.5 -224.5 -1.5 -382.5c0 -48 0.166992 -97.667 0.5 -149s0.5 -104 0.5 -158c0 -122 35 -214.5 105 -277.5s164.667 -94.5 284 -94.5c129.333 0 226.333 30 291 90s97 154 97 282c0 54 0.166992 106.667 0.5 158
s0.5 101 0.5 149c0 158 -0.666992 287.333 -2 388s-2 155.667 -2 165h165zM1096 1621l-480 -185l-50 99l473 206z" />
    <glyph glyph-name="Ucircumflex" unicode="&#xdb;" horiz-adv-x="1547" 
d="M1324 1339c0 -128 -0.666992 -233.834 -2 -317.501s-2 -156.5 -2 -218.5c0 -76 0.166992 -140.833 0.5 -194.5s0.5 -100.167 0.5 -139.5c0 -77.333 -11.5 -145.5 -34.5 -204.5s-57.833 -110.5 -104.5 -154.5s-104 -78.5 -172 -103.5s-146.667 -37.5 -236 -37.5
s-168 12.333 -236 37s-125.667 59.334 -173 104.001c-46.667 44 -81.5 95.5 -104.5 154.5s-34.5 127.167 -34.5 204.5c0 39.333 0.166992 85.833 0.5 139.5s0.5 118.5 0.5 194.5c0 62 -0.666992 134.833 -2 218.5s-2 189.5 -2 317.5h165
c-0.666992 -16.667 -1.5 -73.5 -2.5 -170.5s-1.5 -224.5 -1.5 -382.5c0 -48 0.166992 -97.667 0.5 -149s0.5 -104 0.5 -158c0 -122 35 -214.5 105 -277.5s164.667 -94.5 284 -94.5c129.333 0 226.333 30 291 90s97 154 97 282c0 54 0.166992 106.667 0.5 158
s0.5 101 0.5 149c0 158 -0.666992 287.333 -2 388s-2 155.667 -2 165h165zM1100 1481l-90 -72l-235 212h-2l-234 -200l-91 71l257 226h137z" />
    <glyph glyph-name="Udieresis" unicode="&#xdc;" horiz-adv-x="1547" 
d="M1324 1339c0 -128 -0.666992 -233.834 -2 -317.501s-2 -156.5 -2 -218.5c0 -76 0.166992 -140.833 0.5 -194.5s0.5 -100.167 0.5 -139.5c0 -77.333 -11.5 -145.5 -34.5 -204.5s-57.833 -110.5 -104.5 -154.5s-104 -78.5 -172 -103.5s-146.667 -37.5 -236 -37.5
s-168 12.333 -236 37s-125.667 59.334 -173 104.001c-46.667 44 -81.5 95.5 -104.5 154.5s-34.5 127.167 -34.5 204.5c0 39.333 0.166992 85.833 0.5 139.5s0.5 118.5 0.5 194.5c0 62 -0.666992 134.833 -2 218.5s-2 189.5 -2 317.5h165
c-0.666992 -16.667 -1.5 -73.5 -2.5 -170.5s-1.5 -224.5 -1.5 -382.5c0 -48 0.166992 -97.667 0.5 -149s0.5 -104 0.5 -158c0 -122 35 -214.5 105 -277.5s164.667 -94.5 284 -94.5c129.333 0 226.333 30 291 90s97 154 97 282c0 54 0.166992 106.667 0.5 158
s0.5 101 0.5 149c0 158 -0.666992 287.333 -2 388s-2 155.667 -2 165h165zM1100 1461h-191v183h191v-183zM638 1461h-191v183h191v-183z" />
    <glyph glyph-name="Yacute" unicode="&#xdd;" horiz-adv-x="1186" 
d="M1176 1274l-198 -248.999l-306 -386c-1.33301 -120.667 -1.16602 -247.334 0.500977 -380.001s2.83398 -219 3.50098 -259h-165c1.33301 40 2.66602 127.5 3.99902 262.5s1.66602 256.5 0.999023 364.5l-302 389.5l-194 245.5l132 100l157 -210l290 -383h2l295.5 381.5
c103 133.667 157.167 204.167 162.5 211.5zM986 1621l-480 -185l-50 99l473 206z" />
    <glyph glyph-name="Thorn" unicode="&#xde;" horiz-adv-x="1157" 
d="M1071 681c0 -78.667 -18.832 -148.833 -56.499 -210.5s-84.5 -110.5 -140.5 -146.5c-50.667 -34.667 -113.167 -60.167 -187.5 -76.5s-171.166 -24.5 -290.499 -24.5l2 -224h-165c0 9.33301 0.833008 75.666 2.5 198.999s2.5 299 2.5 527
c0 122.667 -0.833008 251.834 -2.5 387.501s-2.5 211.5 -2.5 227.5h165l-2 -200c99.333 0 190.166 -6.33301 272.499 -19s154.166 -38.667 215.499 -78c60.667 -38 107 -87.5 139 -148.5s48 -132.167 48 -213.5zM900.001 681.001c0 68.667 -15.667 127.169 -47 175.502
s-79.333 86.5 -144 114.5c-40 17.333 -83.333 28.166 -130 32.499s-94.667 6.5 -144 6.5h-18h-19c0 -11.333 -0.666992 -62.333 -2 -153s-2 -163 -2 -217c0 -49.333 0.166992 -106.833 0.5 -172.5s0.5 -104.834 0.5 -117.501h21h19c44.667 0 92.167 3 142.5 9
s93.5 17 129.5 33c66.667 29.333 115.5 67.833 146.5 115.5s46.5 105.5 46.5 173.5z" />
    <glyph glyph-name="germandbls" unicode="&#xdf;" horiz-adv-x="1229" 
d="M1129 293c0 -49.333 -11.999 -93.3408 -35.999 -132.008s-55.333 -70 -94 -94c-40.667 -25.333 -89 -44.5 -145 -57.5s-117.333 -19.5 -184 -19.5c-20.667 0 -48.167 1.33301 -82.5 4s-56.166 4.33398 -65.499 5.00098l-9 131
c11.333 -1.33301 35.5 -3.16602 72.5 -5.49902s74.5 -3.5 112.5 -3.5c18.667 0 46.667 2.16699 84 6.5s68 11.833 92 22.5c32.667 14.667 57.167 33 73.5 55s24.5 47.333 24.5 76c0 26.667 -7 48.5 -21 65.5s-33.333 33.833 -58 50.5c-33.333 22 -72.166 43 -116.499 63
s-83.5 41.667 -117.5 65s-60.5 53.333 -79.5 90s-28.5 77.334 -28.5 122.001c0 52.667 13 98.167 39 136.5s62 69.833 108 94.5c36 20 74.5 33 115.5 39s80.833 9.33301 119.5 10c-2.66699 70 -14.667 124.833 -36 164.5s-43.333 69.834 -66 90.501
c-26 24.667 -56 43.334 -90 56.001s-74.667 19 -122 19c-41.333 0 -79.166 -7.33301 -113.499 -22s-63.833 -34.334 -88.5 -59.001c-22.667 -22 -41.167 -53.667 -55.5 -95s-21.833 -94 -22.5 -158c-1.33301 -113.333 -2 -206.5 -2 -279.5v-207.5
c0 -90 0.666992 -197.5 2 -322.5s2 -192.833 2 -203.5h-158c0 11.333 0.666992 79.333 2 204s2 232.334 2 323.001v220.5v259.5c0 77.333 10.167 143.5 30.5 198.5s48.833 100.833 85.5 137.5c33.333 34 77.166 63 131.499 87s119.166 36 194.499 36
c63.333 0 121 -9.5 173 -28.5s99.667 -49.833 143 -92.5c36.667 -36 64.667 -79.333 84 -130s30.333 -104.334 33 -161.001c2 -41.333 3 -77.166 3 -107.499v-55.5c-8.66699 0.666992 -17.334 1 -26.001 1h-33c-56 0 -99.333 -1.33301 -130 -4s-61.334 -12 -92.001 -28
c-29.333 -15.333 -49.666 -33.166 -60.999 -53.499s-17 -42.166 -17 -65.499c0 -27.333 9 -50.666 27 -69.999s37.333 -35 58 -47c23.333 -14 54.166 -30 92.499 -48s72.5 -36.667 102.5 -56c38.667 -24 72.167 -54 100.5 -90s42.5 -81.667 42.5 -137z" />
    <glyph glyph-name="agrave" unicode="&#xe0;" horiz-adv-x="1052" 
d="M878 570c0 -165.333 -0.334961 -299.999 -1.00195 -403.999s-1 -160 -1 -168c-6.66699 -0.666992 -37.667 -3.16699 -93 -7.5s-126.666 -6.5 -213.999 -6.5c-54.667 0 -109.667 5 -165 15s-103 24.333 -143 43c-53.333 24.667 -96.5 58.334 -129.5 101.001
s-49.5 94 -49.5 154c0 63.333 19.5 118.166 58.5 164.499s93.167 83.833 162.5 112.5c43.333 18 101.166 34.167 173.499 48.5s154.833 25.166 247.5 32.499c-4 52 -17 94.667 -39 128s-54.333 58.666 -97 75.999c-29.333 12 -62 20.5 -98 25.5s-78 7.5 -126 7.5
c-30 0 -55.5 -0.666992 -76.5 -2s-49.5 -3 -85.5 -5l16 133c10 0.666992 29.833 1.83398 59.5 3.50098s70.167 2.5 121.5 2.5c78.667 0 148.834 -8.16699 210.501 -24.5s112.834 -42.833 153.501 -79.5c38 -34.667 66.667 -77.5 86 -128.5s29 -124.833 29 -221.5z
M724.998 329.001l-0.000976562 85.998c0 34.667 -0.333008 74.667 -1 120c-29.333 -1.33301 -80.666 -7.16602 -153.999 -17.499s-135 -25.166 -185 -44.499c-37.333 -14 -70.5 -35 -99.5 -63s-43.5 -62.667 -43.5 -104c0 -45.333 12.333 -81.833 37 -109.5
s58.334 -48.834 101.001 -63.501c32.667 -11.333 68.834 -19.5 108.501 -24.5s81.5 -7.5 125.5 -7.5c13.333 0 29.666 0.333008 48.999 1s39.666 1.33398 60.999 2.00098c0 4.66699 0.166992 26.667 0.5 66s0.5 92.333 0.5 159zM643.997 1224l-62 -93l-439 232l72 113z" />
    <glyph glyph-name="aacute" unicode="&#xe1;" horiz-adv-x="1052" 
d="M878 570c0 -165.333 -0.334961 -299.999 -1.00195 -403.999s-1 -160 -1 -168c-6.66699 -0.666992 -37.667 -3.16699 -93 -7.5s-126.666 -6.5 -213.999 -6.5c-54.667 0 -109.667 5 -165 15s-103 24.333 -143 43c-53.333 24.667 -96.5 58.334 -129.5 101.001
s-49.5 94 -49.5 154c0 63.333 19.5 118.166 58.5 164.499s93.167 83.833 162.5 112.5c43.333 18 101.166 34.167 173.499 48.5s154.833 25.166 247.5 32.499c-4 52 -17 94.667 -39 128s-54.333 58.666 -97 75.999c-29.333 12 -62 20.5 -98 25.5s-78 7.5 -126 7.5
c-30 0 -55.5 -0.666992 -76.5 -2s-49.5 -3 -85.5 -5l16 133c10 0.666992 29.833 1.83398 59.5 3.50098s70.167 2.5 121.5 2.5c78.667 0 148.834 -8.16699 210.501 -24.5s112.834 -42.833 153.501 -79.5c38 -34.667 66.667 -77.5 86 -128.5s29 -124.833 29 -221.5z
M724.998 329.001l-0.000976562 85.998c0 34.667 -0.333008 74.667 -1 120c-29.333 -1.33301 -80.666 -7.16602 -153.999 -17.499s-135 -25.166 -185 -44.499c-37.333 -14 -70.5 -35 -99.5 -63s-43.5 -62.667 -43.5 -104c0 -45.333 12.333 -81.833 37 -109.5
s58.334 -48.834 101.001 -63.501c32.667 -11.333 68.834 -19.5 108.501 -24.5s81.5 -7.5 125.5 -7.5c13.333 0 29.666 0.333008 48.999 1s39.666 1.33398 60.999 2.00098c0 4.66699 0.166992 26.667 0.5 66s0.5 92.333 0.5 159zM820.997 1363l-439 -232l-60 93l429 252z" />
    <glyph glyph-name="acircumflex" unicode="&#xe2;" horiz-adv-x="1052" 
d="M878 570c0 -165.333 -0.334961 -299.999 -1.00195 -403.999s-1 -160 -1 -168c-6.66699 -0.666992 -37.667 -3.16699 -93 -7.5s-126.666 -6.5 -213.999 -6.5c-54.667 0 -109.667 5 -165 15s-103 24.333 -143 43c-53.333 24.667 -96.5 58.334 -129.5 101.001
s-49.5 94 -49.5 154c0 63.333 19.5 118.166 58.5 164.499s93.167 83.833 162.5 112.5c43.333 18 101.166 34.167 173.499 48.5s154.833 25.166 247.5 32.499c-4 52 -17 94.667 -39 128s-54.333 58.666 -97 75.999c-29.333 12 -62 20.5 -98 25.5s-78 7.5 -126 7.5
c-30 0 -55.5 -0.666992 -76.5 -2s-49.5 -3 -85.5 -5l16 133c10 0.666992 29.833 1.83398 59.5 3.50098s70.167 2.5 121.5 2.5c78.667 0 148.834 -8.16699 210.501 -24.5s112.834 -42.833 153.501 -79.5c38 -34.667 66.667 -77.5 86 -128.5s29 -124.833 29 -221.5z
M724.998 329.001l-0.000976562 85.998c0 34.667 -0.333008 74.667 -1 120c-29.333 -1.33301 -80.666 -7.16602 -153.999 -17.499s-135 -25.166 -185 -44.499c-37.333 -14 -70.5 -35 -99.5 -63s-43.5 -62.667 -43.5 -104c0 -45.333 12.333 -81.833 37 -109.5
s58.334 -48.834 101.001 -63.501c32.667 -11.333 68.834 -19.5 108.501 -24.5s81.5 -7.5 125.5 -7.5c13.333 0 29.666 0.333008 48.999 1s39.666 1.33398 60.999 2.00098c0 4.66699 0.166992 26.667 0.5 66s0.5 92.333 0.5 159zM809.997 1177l-89 -68l-233 258h-2l-233 -258
l-89 68l261 289h123z" />
    <glyph glyph-name="atilde" unicode="&#xe3;" horiz-adv-x="1052" 
d="M878 570c0 -165.333 -0.334961 -299.999 -1.00195 -403.999s-1 -160 -1 -168c-6.66699 -0.666992 -37.667 -3.16699 -93 -7.5s-126.666 -6.5 -213.999 -6.5c-54.667 0 -109.667 5 -165 15s-103 24.333 -143 43c-53.333 24.667 -96.5 58.334 -129.5 101.001
s-49.5 94 -49.5 154c0 63.333 19.5 118.166 58.5 164.499s93.167 83.833 162.5 112.5c43.333 18 101.166 34.167 173.499 48.5s154.833 25.166 247.5 32.499c-4 52 -17 94.667 -39 128s-54.333 58.666 -97 75.999c-29.333 12 -62 20.5 -98 25.5s-78 7.5 -126 7.5
c-30 0 -55.5 -0.666992 -76.5 -2s-49.5 -3 -85.5 -5l16 133c10 0.666992 29.833 1.83398 59.5 3.50098s70.167 2.5 121.5 2.5c78.667 0 148.834 -8.16699 210.501 -24.5s112.834 -42.833 153.501 -79.5c38 -34.667 66.667 -77.5 86 -128.5s29 -124.833 29 -221.5z
M724.998 329.001l-0.000976562 85.998c0 34.667 -0.333008 74.667 -1 120c-29.333 -1.33301 -80.666 -7.16602 -153.999 -17.499s-135 -25.166 -185 -44.499c-37.333 -14 -70.5 -35 -99.5 -63s-43.5 -62.667 -43.5 -104c0 -45.333 12.333 -81.833 37 -109.5
s58.334 -48.834 101.001 -63.501c32.667 -11.333 68.834 -19.5 108.501 -24.5s81.5 -7.5 125.5 -7.5c13.333 0 29.666 0.333008 48.999 1s39.666 1.33398 60.999 2.00098c0 4.66699 0.166992 26.667 0.5 66s0.5 92.333 0.5 159zM848.997 1420
c-15.333 -72.667 -42.6709 -128.502 -82.0039 -167.502s-87.666 -58.5 -144.999 -58.5c-22 0 -41.667 3.83301 -59 11.5s-33.333 16.834 -48 27.501l-32.5 26c-9 7.33301 -21.167 16.666 -36.5 27.999c-7.33301 6 -16.666 11 -27.999 15s-23 6 -35 6
c-24 0 -44.667 -12.167 -62 -36.5s-31.333 -58.166 -42 -101.499l-101 20c14.667 70 41.5 125.167 80.5 165.5s86.833 60.5 143.5 60.5c20.667 0 39.667 -3.33301 57 -10s35 -16.334 53 -29.001l36 -28.5c12.667 -10.333 23.667 -18.833 33 -25.5
c8.66699 -7.33301 17.834 -12.666 27.501 -15.999s21.5 -5 35.5 -5c24.667 0 45.834 12.833 63.501 38.5s31.167 58.834 40.5 99.501z" />
    <glyph glyph-name="adieresis" unicode="&#xe4;" horiz-adv-x="1052" 
d="M878 570c0 -165.333 -0.334961 -299.999 -1.00195 -403.999s-1 -160 -1 -168c-6.66699 -0.666992 -37.667 -3.16699 -93 -7.5s-126.666 -6.5 -213.999 -6.5c-54.667 0 -109.667 5 -165 15s-103 24.333 -143 43c-53.333 24.667 -96.5 58.334 -129.5 101.001
s-49.5 94 -49.5 154c0 63.333 19.5 118.166 58.5 164.499s93.167 83.833 162.5 112.5c43.333 18 101.166 34.167 173.499 48.5s154.833 25.166 247.5 32.499c-4 52 -17 94.667 -39 128s-54.333 58.666 -97 75.999c-29.333 12 -62 20.5 -98 25.5s-78 7.5 -126 7.5
c-30 0 -55.5 -0.666992 -76.5 -2s-49.5 -3 -85.5 -5l16 133c10 0.666992 29.833 1.83398 59.5 3.50098s70.167 2.5 121.5 2.5c78.667 0 148.834 -8.16699 210.501 -24.5s112.834 -42.833 153.501 -79.5c38 -34.667 66.667 -77.5 86 -128.5s29 -124.833 29 -221.5z
M724.998 329.001l-0.000976562 85.998c0 34.667 -0.333008 74.667 -1 120c-29.333 -1.33301 -80.666 -7.16602 -153.999 -17.499s-135 -25.166 -185 -44.499c-37.333 -14 -70.5 -35 -99.5 -63s-43.5 -62.667 -43.5 -104c0 -45.333 12.333 -81.833 37 -109.5
s58.334 -48.834 101.001 -63.501c32.667 -11.333 68.834 -19.5 108.501 -24.5s81.5 -7.5 125.5 -7.5c13.333 0 29.666 0.333008 48.999 1s39.666 1.33398 60.999 2.00098c0 4.66699 0.166992 26.667 0.5 66s0.5 92.333 0.5 159zM802.997 1206h-169v170h169v-170z
M370.997 1206h-169v170h169v-170z" />
    <glyph glyph-name="aring" unicode="&#xe5;" horiz-adv-x="1052" 
d="M878 570c0 -165.333 -0.334961 -299.999 -1.00195 -403.999s-1 -160 -1 -168c-6.66699 -0.666992 -37.667 -3.16699 -93 -7.5s-126.666 -6.5 -213.999 -6.5c-54.667 0 -109.667 5 -165 15s-103 24.333 -143 43c-53.333 24.667 -96.5 58.334 -129.5 101.001
s-49.5 94 -49.5 154c0 63.333 19.5 118.166 58.5 164.499s93.167 83.833 162.5 112.5c43.333 18 101.166 34.167 173.499 48.5s154.833 25.166 247.5 32.499c-4 52 -17 94.667 -39 128s-54.333 58.666 -97 75.999c-29.333 12 -62 20.5 -98 25.5s-78 7.5 -126 7.5
c-30 0 -55.5 -0.666992 -76.5 -2s-49.5 -3 -85.5 -5l16 133c10 0.666992 29.833 1.83398 59.5 3.50098s70.167 2.5 121.5 2.5c78.667 0 148.834 -8.16699 210.501 -24.5s112.834 -42.833 153.501 -79.5c38 -34.667 66.667 -77.5 86 -128.5s29 -124.833 29 -221.5z
M724.998 329.001l-0.000976562 85.998c0 34.667 -0.333008 74.667 -1 120c-29.333 -1.33301 -80.666 -7.16602 -153.999 -17.499s-135 -25.166 -185 -44.499c-37.333 -14 -70.5 -35 -99.5 -63s-43.5 -62.667 -43.5 -104c0 -45.333 12.333 -81.833 37 -109.5
s58.334 -48.834 101.001 -63.501c32.667 -11.333 68.834 -19.5 108.501 -24.5s81.5 -7.5 125.5 -7.5c13.333 0 29.666 0.333008 48.999 1s39.666 1.33398 60.999 2.00098c0 4.66699 0.166992 26.667 0.5 66s0.5 92.333 0.5 159zM706.997 1289
c0 -52.667 -19 -97.5 -57 -134.5s-83.667 -55.5 -137 -55.5s-98.333 18.333 -135 55s-55 81.667 -55 135c0 54.667 19 100 57 136s83 54 135 54s97 -18.167 135 -54.5s57 -81.5 57 -135.5zM618.997 1290c0 30 -9.83203 55.001 -29.499 75.001s-44.167 30 -73.5 30
c-30 0 -55 -9.83301 -75 -29.5s-30 -44.834 -30 -75.501c0 -31.333 10.167 -57 30.5 -77s45.166 -30 74.499 -30s53.833 10.333 73.5 31s29.5 46 29.5 76z" />
    <glyph glyph-name="ae" unicode="&#xe6;" horiz-adv-x="1653" 
d="M1573 543l-714 -0.00488281c0.666992 -72 15.834 -137.5 45.501 -196.5s74.834 -107.833 135.501 -146.5c38.667 -24.667 82.834 -43 132.501 -55s109.167 -18 178.5 -18c24 0 51.667 1 83 3s51 3.66699 59 5l-18 -133
c-7.33301 -0.666992 -21.833 -1.83398 -43.5 -3.50098s-53.167 -2.5 -94.5 -2.5c-106.667 0 -198.667 13.5 -276 40.5s-142.666 65.833 -195.999 116.5c-50.667 48.667 -89.167 105.834 -115.5 171.501s-39.5 135.5 -39.5 209.5c-26.667 -0.666992 -73 -4.5 -139 -11.5
s-127 -21.167 -183 -42.5c-42 -14.667 -76.333 -37 -103 -67s-40 -63.667 -40 -101c0 -47.333 12.167 -83.166 36.5 -107.499s57.166 -43.833 98.499 -58.5c31.333 -11.333 69.833 -18 115.5 -20s87.167 -3 124.5 -3c20.667 0 46.667 1.16699 78 3.5s50 4.16602 56 5.49902
l-18 -129c-8 -1.33301 -29.667 -3 -65 -5s-66.333 -3 -93 -3c-60 0 -118.667 4.66699 -176 14s-106.333 24 -147 44c-58 28.667 -101.333 63.834 -130 105.501s-43 90.834 -43 147.501c0 56 17.667 108.333 53 157s92.666 88.334 171.999 119.001
c55.333 21.333 119 37.833 191 49.5s143.667 19.167 215 22.5c-2.66699 50.667 -15.834 93.334 -39.501 128.001s-56.167 60.334 -97.5 77.001c-29.333 12 -62 20.5 -98 25.5s-78 7.5 -126 7.5c-30 0 -57.333 -0.666992 -82 -2l-91 -5l16 133c8 0 29.167 1.16699 63.5 3.5
s77.166 3.5 128.499 3.5c102 0 188.167 -13.667 258.5 -41s123.166 -72.333 158.499 -135h2c35.333 54.667 85.5 99.834 150.5 135.501s134.833 53.5 209.5 53.5c62 0 116.833 -9.16699 164.5 -27.5s88.834 -46.5 123.501 -84.5c39.333 -42.667 69 -95.834 89 -159.501
s30 -138.167 30 -223.5zM1419 654.995c-11.333 85.333 -38.502 150.833 -81.502 196.5s-102.833 68.5 -179.5 68.5c-75.333 0 -138.166 -23.167 -188.499 -69.5s-85.166 -111.5 -104.499 -195.5h554z" />
    <glyph glyph-name="ccedilla" unicode="&#xe7;" horiz-adv-x="930" 
d="M848 24c0 -73.333 -11.499 -135.669 -34.499 -187.002s-59.5 -90.666 -109.5 -117.999c-20.667 -11.333 -49.834 -23.333 -87.501 -36s-78.5 -20.334 -122.5 -23.001l-18 109c50 2.66699 91.167 9.83398 123.5 21.501s55.5 24.5 69.5 38.5
c20.667 20.667 35.834 42.5 45.501 65.5s14.5 58.833 14.5 107.5c-71.333 3.33301 -139.833 11.833 -205.5 25.5s-126.167 35.5 -181.5 65.5c-80.667 44 -143.834 102.333 -189.501 175s-68.5 153.667 -68.5 243c0 80 20.667 153.5 62 220.5s95.333 121.833 162 164.5
c60 38.667 131.833 68.167 215.5 88.5s170.167 30.5 259.5 30.5h22.5h18.5l8 -134h-15.5h-15.5c-74 0 -137.167 -4.5 -189.5 -13.5s-103.166 -23.833 -152.499 -44.5c-66 -26.667 -118.333 -68.667 -157 -126s-58 -118.666 -58 -183.999c0 -78 18.5 -143.5 55.5 -196.5
s85.5 -93.833 145.5 -122.5c46.667 -22.667 100.667 -39 162 -49s124.666 -15 189.999 -15h30h21v-106z" />
    <glyph glyph-name="egrave" unicode="&#xe8;" horiz-adv-x="1044" 
d="M963 543h-723c0.666992 -70.667 15.667 -135.5 45 -194.5s74.333 -107.833 135 -146.5c38.667 -24.667 82.667 -43.167 132 -55.5s108.666 -18.5 177.999 -18.5c38 0 72.833 1 104.5 3s51.167 3.33301 58.5 4l-18 -133c-5.33301 -0.666992 -23 -1.83398 -53 -3.50098
s-65.333 -2.5 -106 -2.5c-106.667 0 -199.5 13.833 -278.5 41.5s-143.833 65.834 -194.5 114.501c-43.333 40.667 -80.166 92.667 -110.499 156s-45.5 133.666 -45.5 210.999c0 76 11.333 144.667 34 206s56.667 118.333 102 171c39.333 45.333 88.166 80.333 146.499 105
s118.833 37 181.5 37c62 0 117 -9.33301 165 -28s89.667 -47 125 -85c39.333 -42.667 69.333 -95.167 90 -157.5s31.334 -137.166 32.001 -224.499zM808 655c-10.667 82.667 -38.832 147.5 -84.499 194.5s-105.834 70.5 -180.501 70.5s-137 -23.833 -187 -71.5
s-84.667 -112.167 -104 -193.5h556zM712.002 1224l-62 -93l-439 232l72 113z" />
    <glyph glyph-name="eacute" unicode="&#xe9;" horiz-adv-x="1044" 
d="M963 543h-723c0.666992 -70.667 15.667 -135.5 45 -194.5s74.333 -107.833 135 -146.5c38.667 -24.667 82.667 -43.167 132 -55.5s108.666 -18.5 177.999 -18.5c38 0 72.833 1 104.5 3s51.167 3.33301 58.5 4l-18 -133c-5.33301 -0.666992 -23 -1.83398 -53 -3.50098
s-65.333 -2.5 -106 -2.5c-106.667 0 -199.5 13.833 -278.5 41.5s-143.833 65.834 -194.5 114.501c-43.333 40.667 -80.166 92.667 -110.499 156s-45.5 133.666 -45.5 210.999c0 76 11.333 144.667 34 206s56.667 118.333 102 171c39.333 45.333 88.166 80.333 146.499 105
s118.833 37 181.5 37c62 0 117 -9.33301 165 -28s89.667 -47 125 -85c39.333 -42.667 69.333 -95.167 90 -157.5s31.334 -137.166 32.001 -224.499zM808 655c-10.667 82.667 -38.832 147.5 -84.499 194.5s-105.834 70.5 -180.501 70.5s-137 -23.833 -187 -71.5
s-84.667 -112.167 -104 -193.5h556zM891.002 1363l-439 -232l-60 93l429 252z" />
    <glyph glyph-name="ecircumflex" unicode="&#xea;" horiz-adv-x="1044" 
d="M963 543h-723c0.666992 -70.667 15.667 -135.5 45 -194.5s74.333 -107.833 135 -146.5c38.667 -24.667 82.667 -43.167 132 -55.5s108.666 -18.5 177.999 -18.5c38 0 72.833 1 104.5 3s51.167 3.33301 58.5 4l-18 -133c-5.33301 -0.666992 -23 -1.83398 -53 -3.50098
s-65.333 -2.5 -106 -2.5c-106.667 0 -199.5 13.833 -278.5 41.5s-143.833 65.834 -194.5 114.501c-43.333 40.667 -80.166 92.667 -110.499 156s-45.5 133.666 -45.5 210.999c0 76 11.333 144.667 34 206s56.667 118.333 102 171c39.333 45.333 88.166 80.333 146.499 105
s118.833 37 181.5 37c62 0 117 -9.33301 165 -28s89.667 -47 125 -85c39.333 -42.667 69.333 -95.167 90 -157.5s31.334 -137.166 32.001 -224.499zM808 655c-10.667 82.667 -38.832 147.5 -84.499 194.5s-105.834 70.5 -180.501 70.5s-137 -23.833 -187 -71.5
s-84.667 -112.167 -104 -193.5h556zM869.002 1177l-89 -68l-233 258h-2l-233 -258l-89 68l261 289h123z" />
    <glyph glyph-name="edieresis" unicode="&#xeb;" horiz-adv-x="1044" 
d="M963 543h-723c0.666992 -70.667 15.667 -135.5 45 -194.5s74.333 -107.833 135 -146.5c38.667 -24.667 82.667 -43.167 132 -55.5s108.666 -18.5 177.999 -18.5c38 0 72.833 1 104.5 3s51.167 3.33301 58.5 4l-18 -133c-5.33301 -0.666992 -23 -1.83398 -53 -3.50098
s-65.333 -2.5 -106 -2.5c-106.667 0 -199.5 13.833 -278.5 41.5s-143.833 65.834 -194.5 114.501c-43.333 40.667 -80.166 92.667 -110.499 156s-45.5 133.666 -45.5 210.999c0 76 11.333 144.667 34 206s56.667 118.333 102 171c39.333 45.333 88.166 80.333 146.499 105
s118.833 37 181.5 37c62 0 117 -9.33301 165 -28s89.667 -47 125 -85c39.333 -42.667 69.333 -95.167 90 -157.5s31.334 -137.166 32.001 -224.499zM808 655c-10.667 82.667 -38.832 147.5 -84.499 194.5s-105.834 70.5 -180.501 70.5s-137 -23.833 -187 -71.5
s-84.667 -112.167 -104 -193.5h556zM851.002 1206h-169v170h169v-170zM419.002 1206h-169v170h169v-170z" />
    <glyph glyph-name="igrave" unicode="&#xec;" horiz-adv-x="545" 
d="M436 1221l-62 -93l-374 238l77 110zM352 0l-158 -0.00195312c0.666992 10.667 1.5 76.334 2.5 197.001s1.5 220.334 1.5 299.001c0 68.667 -0.166992 144.167 -0.5 226.5s-1.5 178.833 -3.5 289.5h158c-1.33301 -96 -2.5 -185.833 -3.5 -269.5s-1.5 -158.167 -1.5 -223.5
c0 -155.333 0.833008 -280 2.5 -374s2.5 -142.333 2.5 -145z" />
    <glyph glyph-name="iacute" unicode="&#xed;" horiz-adv-x="545" 
d="M546 1366l-374 -238l-62 93l359 255zM352 0l-158 -0.00195312c0.666992 10.667 1.5 76.334 2.5 197.001s1.5 220.334 1.5 299.001c0 68.667 -0.166992 144.167 -0.5 226.5s-1.5 178.833 -3.5 289.5h158c-1.33301 -96 -2.5 -185.833 -3.5 -269.5
s-1.5 -158.167 -1.5 -223.5c0 -155.333 0.833008 -280 2.5 -374s2.5 -142.333 2.5 -145z" />
    <glyph glyph-name="icircumflex" unicode="&#xee;" horiz-adv-x="545" 
d="M554 1167l-89 -64l-190 259h-2l-190 -259l-89 64l221 299h117zM352 0l-158 -0.00195312c0.666992 10.667 1.5 76.334 2.5 197.001s1.5 220.334 1.5 299.001c0 68.667 -0.166992 144.167 -0.5 226.5s-1.5 178.833 -3.5 289.5h158c-1.33301 -96 -2.5 -185.833 -3.5 -269.5
s-1.5 -158.167 -1.5 -223.5c0 -155.333 0.833008 -280 2.5 -374s2.5 -142.333 2.5 -145z" />
    <glyph glyph-name="idieresis" unicode="&#xef;" horiz-adv-x="545" 
d="M529 1206h-169v170h169v-170zM186 1206h-169v170h169v-170zM352 0l-158 -0.00195312c0.666992 10.667 1.5 76.334 2.5 197.001s1.5 220.334 1.5 299.001c0 68.667 -0.166992 144.167 -0.5 226.5s-1.5 178.833 -3.5 289.5h158c-1.33301 -96 -2.5 -185.833 -3.5 -269.5
s-1.5 -158.167 -1.5 -223.5c0 -155.333 0.833008 -280 2.5 -374s2.5 -142.333 2.5 -145z" />
    <glyph glyph-name="eth" unicode="&#xf0;" horiz-adv-x="1128" 
d="M1029 447c0 -71.333 -11.332 -135 -33.999 -191s-53.334 -102.667 -92.001 -140c-50.667 -49.333 -102.167 -85.333 -154.5 -108s-114.833 -34 -187.5 -34c-68 0 -128.5 10.667 -181.5 32s-101.167 53.333 -144.5 96c-43.333 42 -77.333 92.833 -102 152.5
s-37 123.167 -37 190.5c0 78.667 22.167 153.167 66.5 223.5s107.5 128.5 189.5 174.5c52 29.333 101.333 52.166 148 68.499s90 30.5 130 42.5v3c-16.667 17.333 -39.5 42.333 -68.5 75l-102.5 112l-93 -80l-96 -82l-58 70l97 76.5l93 75.5l-79.5 84.5l-89.5 89.5l106 90
l80.5 -87.5l84.5 -91.5l126.5 108c33 28.667 52.833 46.334 59.5 53.001l59 -70c-10.667 -8 -30 -23.333 -58 -46l-132 -106l106 -116c55.333 -61.333 102 -115.333 140 -162c79.333 -94 136.5 -179.667 171.5 -257s52.5 -159.333 52.5 -246zM870.001 447
c0 72 -14.168 142.002 -42.501 210.002s-69.166 132 -122.499 192c-29.333 -6 -64 -15.333 -104 -28s-81.667 -29.334 -125 -50.001c-61.333 -29.333 -113.5 -73.5 -156.5 -132.5s-64.5 -125.833 -64.5 -200.5c0 -49.333 7.66699 -95.5 23 -138.5
s39.666 -81.5 72.999 -115.5c28.667 -28 58.5 -49.5 89.5 -64.5s72.5 -22.5 124.5 -22.5c42.667 0 81.334 7.16699 116.001 21.5s67 36.166 97 65.499c31.333 30.667 54.5 69 69.5 115s22.5 95.333 22.5 148z" />
    <glyph glyph-name="ntilde" unicode="&#xf1;" horiz-adv-x="1190" 
d="M1013 0l-157.999 -0.00488281c0.666992 18.667 1.5 80.334 2.5 185.001s1.5 169.334 1.5 194.001c0 34.667 -0.166992 85.834 -0.5 153.501s-0.833008 117.167 -1.5 148.5c-2 76.667 -16.667 131.667 -44 165s-74.666 50 -141.999 50c-40.667 0 -91 -12 -151 -36
s-120.667 -54.667 -182 -92c0 -7.33301 -0.333008 -47 -1 -119s-1 -137.667 -1 -197c0 -77.333 0.833008 -170.666 2.5 -279.999s2.5 -166.666 2.5 -171.999h-158c0 4.66699 0.666992 45.5 2 122.5s2 191.5 2 343.5c0 70 -0.166992 152 -0.5 246s-1.5 194 -3.5 300h156
l-1 -115l1 -2c93.333 53.333 171.166 90.5 233.499 111.5s114.166 31.5 155.499 31.5c85.333 0 153.833 -26.833 205.5 -80.5s77.5 -127.167 77.5 -220.5c0 -84 -0.5 -156.5 -1.5 -217.5s-1.5 -110.5 -1.5 -148.5c0 -60.667 0.833008 -136.5 2.5 -227.5
s2.5 -138.833 2.5 -143.5zM940.001 1420c-15.333 -72.667 -42.6709 -128.502 -82.0039 -167.502s-87.666 -58.5 -144.999 -58.5c-22 0 -41.667 3.83301 -59 11.5s-33.333 16.834 -48 27.501l-32.5 26c-9 7.33301 -21.167 16.666 -36.5 27.999
c-7.33301 6 -16.666 11 -27.999 15s-23 6 -35 6c-24 0 -44.667 -12.167 -62 -36.5s-31.333 -58.166 -42 -101.499l-101 20c14.667 70 41.5 125.167 80.5 165.5s86.833 60.5 143.5 60.5c20.667 0 39.667 -3.33301 57 -10s35 -16.334 53 -29.001l36 -28.5
c12.667 -10.333 23.667 -18.833 33 -25.5c8.66699 -7.33301 17.834 -12.666 27.501 -15.999s21.5 -5 35.5 -5c24.667 0 45.834 12.833 63.501 38.5s31.167 58.834 40.5 99.501z" />
    <glyph glyph-name="ograve" unicode="&#xf2;" horiz-adv-x="1165" 
d="M1072 506c0 -77.333 -13.832 -151.329 -41.499 -221.996s-67.5 -131 -119.5 -181c-44 -42 -92.833 -74 -146.5 -96s-114.5 -33 -182.5 -33c-64 0 -124 10.833 -180 32.5s-106 53.5 -150 95.5c-50.667 48.667 -89.834 108.667 -117.501 180s-41.5 146.666 -41.5 225.999
c0 76.667 11.833 147.167 35.5 211.5s60.5 122.166 110.5 173.499c44.667 46.667 96.667 82.5 156 107.5s122 37.5 188 37.5c69.333 0 132.166 -11.5 188.499 -34.5s106.5 -57.5 150.5 -103.5c50.667 -52.667 88.334 -111.834 113.001 -177.501s37 -137.834 37 -216.501z
M912.001 499.004c0 62.667 -10.166 123.665 -30.499 182.998s-51.833 109.333 -94.5 150c-26 25.333 -56.833 44.833 -92.5 58.5s-72.834 20.5 -111.501 20.5c-46 0 -86 -7.33301 -120 -22s-66 -37.667 -96 -69c-35.333 -36 -63.166 -82 -83.499 -138s-30.5 -114 -30.5 -174
c0 -68 10.333 -130.5 31 -187.5s54 -106.167 100 -147.5c26 -23.333 56 -41.166 90 -53.499s70 -18.5 108 -18.5c42 0 81.167 7.33301 117.5 22s68.166 36 95.499 64c38 38.667 67 85.334 87 140.001s30 112 30 172zM744.002 1224l-62 -93l-439 232l72 113z" />
    <glyph glyph-name="oacute" unicode="&#xf3;" horiz-adv-x="1165" 
d="M1072 506c0 -77.333 -13.832 -151.329 -41.499 -221.996s-67.5 -131 -119.5 -181c-44 -42 -92.833 -74 -146.5 -96s-114.5 -33 -182.5 -33c-64 0 -124 10.833 -180 32.5s-106 53.5 -150 95.5c-50.667 48.667 -89.834 108.667 -117.501 180s-41.5 146.666 -41.5 225.999
c0 76.667 11.833 147.167 35.5 211.5s60.5 122.166 110.5 173.499c44.667 46.667 96.667 82.5 156 107.5s122 37.5 188 37.5c69.333 0 132.166 -11.5 188.499 -34.5s106.5 -57.5 150.5 -103.5c50.667 -52.667 88.334 -111.834 113.001 -177.501s37 -137.834 37 -216.501z
M912.001 499.004c0 62.667 -10.166 123.665 -30.499 182.998s-51.833 109.333 -94.5 150c-26 25.333 -56.833 44.833 -92.5 58.5s-72.834 20.5 -111.501 20.5c-46 0 -86 -7.33301 -120 -22s-66 -37.667 -96 -69c-35.333 -36 -63.166 -82 -83.499 -138s-30.5 -114 -30.5 -174
c0 -68 10.333 -130.5 31 -187.5s54 -106.167 100 -147.5c26 -23.333 56 -41.166 90 -53.499s70 -18.5 108 -18.5c42 0 81.167 7.33301 117.5 22s68.166 36 95.499 64c38 38.667 67 85.334 87 140.001s30 112 30 172zM923.002 1363l-439 -232l-60 93l429 252z" />
    <glyph glyph-name="ocircumflex" unicode="&#xf4;" horiz-adv-x="1165" 
d="M1072 506c0 -77.333 -13.832 -151.329 -41.499 -221.996s-67.5 -131 -119.5 -181c-44 -42 -92.833 -74 -146.5 -96s-114.5 -33 -182.5 -33c-64 0 -124 10.833 -180 32.5s-106 53.5 -150 95.5c-50.667 48.667 -89.834 108.667 -117.501 180s-41.5 146.666 -41.5 225.999
c0 76.667 11.833 147.167 35.5 211.5s60.5 122.166 110.5 173.499c44.667 46.667 96.667 82.5 156 107.5s122 37.5 188 37.5c69.333 0 132.166 -11.5 188.499 -34.5s106.5 -57.5 150.5 -103.5c50.667 -52.667 88.334 -111.834 113.001 -177.501s37 -137.834 37 -216.501z
M912.001 499.004c0 62.667 -10.166 123.665 -30.499 182.998s-51.833 109.333 -94.5 150c-26 25.333 -56.833 44.833 -92.5 58.5s-72.834 20.5 -111.501 20.5c-46 0 -86 -7.33301 -120 -22s-66 -37.667 -96 -69c-35.333 -36 -63.166 -82 -83.499 -138s-30.5 -114 -30.5 -174
c0 -68 10.333 -130.5 31 -187.5s54 -106.167 100 -147.5c26 -23.333 56 -41.166 90 -53.499s70 -18.5 108 -18.5c42 0 81.167 7.33301 117.5 22s68.166 36 95.499 64c38 38.667 67 85.334 87 140.001s30 112 30 172zM906.002 1177l-89 -68l-233 258h-2l-233 -258l-89 68
l261 289h123z" />
    <glyph glyph-name="otilde" unicode="&#xf5;" horiz-adv-x="1165" 
d="M1072 506c0 -77.333 -13.832 -151.329 -41.499 -221.996s-67.5 -131 -119.5 -181c-44 -42 -92.833 -74 -146.5 -96s-114.5 -33 -182.5 -33c-64 0 -124 10.833 -180 32.5s-106 53.5 -150 95.5c-50.667 48.667 -89.834 108.667 -117.501 180s-41.5 146.666 -41.5 225.999
c0 76.667 11.833 147.167 35.5 211.5s60.5 122.166 110.5 173.499c44.667 46.667 96.667 82.5 156 107.5s122 37.5 188 37.5c69.333 0 132.166 -11.5 188.499 -34.5s106.5 -57.5 150.5 -103.5c50.667 -52.667 88.334 -111.834 113.001 -177.501s37 -137.834 37 -216.501z
M912.001 499.004c0 62.667 -10.166 123.665 -30.499 182.998s-51.833 109.333 -94.5 150c-26 25.333 -56.833 44.833 -92.5 58.5s-72.834 20.5 -111.501 20.5c-46 0 -86 -7.33301 -120 -22s-66 -37.667 -96 -69c-35.333 -36 -63.166 -82 -83.499 -138s-30.5 -114 -30.5 -174
c0 -68 10.333 -130.5 31 -187.5s54 -106.167 100 -147.5c26 -23.333 56 -41.166 90 -53.499s70 -18.5 108 -18.5c42 0 81.167 7.33301 117.5 22s68.166 36 95.499 64c38 38.667 67 85.334 87 140.001s30 112 30 172zM919.002 1420
c-15.333 -72.667 -42.6709 -128.502 -82.0039 -167.502s-87.666 -58.5 -144.999 -58.5c-22 0 -41.667 3.83301 -59 11.5s-33.333 16.834 -48 27.501l-32.5 26c-9 7.33301 -21.167 16.666 -36.5 27.999c-7.33301 6 -16.666 11 -27.999 15s-23 6 -35 6
c-24 0 -44.667 -12.167 -62 -36.5s-31.333 -58.166 -42 -101.499l-101 20c14.667 70 41.5 125.167 80.5 165.5s86.833 60.5 143.5 60.5c20.667 0 39.667 -3.33301 57 -10s35 -16.334 53 -29.001l36 -28.5c12.667 -10.333 23.667 -18.833 33 -25.5
c8.66699 -7.33301 17.834 -12.666 27.501 -15.999s21.5 -5 35.5 -5c24.667 0 45.834 12.833 63.501 38.5s31.167 58.834 40.5 99.501z" />
    <glyph glyph-name="odieresis" unicode="&#xf6;" horiz-adv-x="1165" 
d="M1072 506c0 -77.333 -13.832 -151.329 -41.499 -221.996s-67.5 -131 -119.5 -181c-44 -42 -92.833 -74 -146.5 -96s-114.5 -33 -182.5 -33c-64 0 -124 10.833 -180 32.5s-106 53.5 -150 95.5c-50.667 48.667 -89.834 108.667 -117.501 180s-41.5 146.666 -41.5 225.999
c0 76.667 11.833 147.167 35.5 211.5s60.5 122.166 110.5 173.499c44.667 46.667 96.667 82.5 156 107.5s122 37.5 188 37.5c69.333 0 132.166 -11.5 188.499 -34.5s106.5 -57.5 150.5 -103.5c50.667 -52.667 88.334 -111.834 113.001 -177.501s37 -137.834 37 -216.501z
M912.001 499.004c0 62.667 -10.166 123.665 -30.499 182.998s-51.833 109.333 -94.5 150c-26 25.333 -56.833 44.833 -92.5 58.5s-72.834 20.5 -111.501 20.5c-46 0 -86 -7.33301 -120 -22s-66 -37.667 -96 -69c-35.333 -36 -63.166 -82 -83.499 -138s-30.5 -114 -30.5 -174
c0 -68 10.333 -130.5 31 -187.5s54 -106.167 100 -147.5c26 -23.333 56 -41.166 90 -53.499s70 -18.5 108 -18.5c42 0 81.167 7.33301 117.5 22s68.166 36 95.499 64c38 38.667 67 85.334 87 140.001s30 112 30 172zM883.002 1206h-169v170h169v-170zM451.002 1206h-169v170
h169v-170z" />
    <glyph glyph-name="divide" unicode="&#xf7;" horiz-adv-x="1800" 
d="M1432 519h-1064v117h1064v-117zM996 853h-196v207h196v-207zM996 95h-196v207h196v-207z" />
    <glyph glyph-name="oslash" unicode="&#xf8;" horiz-adv-x="1165" 
d="M1072 506c0 -77.333 -13.8311 -151.333 -41.498 -222s-67.5 -131 -119.5 -181c-44 -42 -92.833 -74 -146.5 -96s-114.5 -33 -182.5 -33c-46 0 -91.333 6.5 -136 19.5s-85.334 31.167 -122.001 54.5l-68.5 -105.5l-33.5 -52.5l-69 48c3.33301 4 13.666 19 30.999 45
l76 114c-53.333 50 -94.5 110.667 -123.5 182s-43.5 147.666 -43.5 228.999c0 76.667 11.833 147.167 35.5 211.5s60.5 122.166 110.5 173.499c44.667 46.667 96.667 82.5 156 107.5s122 37.5 188 37.5c50 0 97 -6.83301 141 -20.5s83.667 -32.167 119 -55.5l42.5 64
l53.5 82l71 -45l-50.5 -72.5l-53.5 -77.5c56 -53.333 97.667 -114.166 125 -182.499s41 -143.166 41 -224.499zM862.002 851l-126 -185l-123 -182l-133 -198.5l-113 -171.5l-62 49l114 168.5l126 185.5l136 204l121 182zM912.002 499
c0 62.667 -10.166 123.665 -30.499 182.998s-51.833 109.333 -94.5 150c-26 25.333 -56.833 44.833 -92.5 58.5s-72.834 20.5 -111.501 20.5c-46 0 -86 -7.33301 -120 -22s-66 -37.667 -96 -69c-35.333 -36 -63.166 -82 -83.499 -138s-30.5 -114 -30.5 -174
c0 -68 10.333 -130.5 31 -187.5s54 -106.167 100 -147.5c26 -23.333 56 -41.166 90 -53.499s70 -18.5 108 -18.5c42 0 81.167 7.33301 117.5 22s68.166 36 95.499 64c38 38.667 67 85.334 87 140.001s30 112 30 172z" />
    <glyph glyph-name="ugrave" unicode="&#xf9;" horiz-adv-x="1190" 
d="M1007 0h-152.999v116l-1 1c-46.667 -30.667 -104.834 -62.167 -174.501 -94.5s-138.167 -48.5 -205.5 -48.5c-92 0 -164 27.333 -216 82s-78 131.334 -78 230.001c0 53.333 0.5 116.833 1.5 190.5s1.5 127.167 1.5 160.5c0 60.667 -0.833008 135.5 -2.5 224.5
s-2.5 139.167 -2.5 150.5h158c0 -8.66699 -0.666992 -56.667 -2 -144s-2 -157 -2 -209c0 -46 0.333008 -103.333 1 -172s1 -117.334 1 -146.001c1.33301 -78.667 15 -136.334 41 -173.001s68 -55 126 -55c59.333 0 124.5 16 195.5 48s123.167 60 156.5 84
c0 8 0.333008 44.833 1 110.5s1 147.5 1 245.5c0 70 -0.833008 153.833 -2.5 251.5s-2.5 150.834 -2.5 159.501h158c0 -11.333 -0.666992 -48.833 -2 -112.5s-2 -172.167 -2 -325.5c0 -86 0.333008 -161.5 1 -226.5s1.66699 -180.833 3 -347.5zM754.001 1224l-62 -93
l-439 232l72 113z" />
    <glyph glyph-name="uacute" unicode="&#xfa;" horiz-adv-x="1190" 
d="M1007 0h-152.999v116l-1 1c-46.667 -30.667 -104.834 -62.167 -174.501 -94.5s-138.167 -48.5 -205.5 -48.5c-92 0 -164 27.333 -216 82s-78 131.334 -78 230.001c0 53.333 0.5 116.833 1.5 190.5s1.5 127.167 1.5 160.5c0 60.667 -0.833008 135.5 -2.5 224.5
s-2.5 139.167 -2.5 150.5h158c0 -8.66699 -0.666992 -56.667 -2 -144s-2 -157 -2 -209c0 -46 0.333008 -103.333 1 -172s1 -117.334 1 -146.001c1.33301 -78.667 15 -136.334 41 -173.001s68 -55 126 -55c59.333 0 124.5 16 195.5 48s123.167 60 156.5 84
c0 8 0.333008 44.833 1 110.5s1 147.5 1 245.5c0 70 -0.833008 153.833 -2.5 251.5s-2.5 150.834 -2.5 159.501h158c0 -11.333 -0.666992 -48.833 -2 -112.5s-2 -172.167 -2 -325.5c0 -86 0.333008 -161.5 1 -226.5s1.66699 -180.833 3 -347.5zM933.001 1363l-439 -232
l-60 93l429 252z" />
    <glyph glyph-name="ucircumflex" unicode="&#xfb;" horiz-adv-x="1190" 
d="M1007 0h-152.999v116l-1 1c-46.667 -30.667 -104.834 -62.167 -174.501 -94.5s-138.167 -48.5 -205.5 -48.5c-92 0 -164 27.333 -216 82s-78 131.334 -78 230.001c0 53.333 0.5 116.833 1.5 190.5s1.5 127.167 1.5 160.5c0 60.667 -0.833008 135.5 -2.5 224.5
s-2.5 139.167 -2.5 150.5h158c0 -8.66699 -0.666992 -56.667 -2 -144s-2 -157 -2 -209c0 -46 0.333008 -103.333 1 -172s1 -117.334 1 -146.001c1.33301 -78.667 15 -136.334 41 -173.001s68 -55 126 -55c59.333 0 124.5 16 195.5 48s123.167 60 156.5 84
c0 8 0.333008 44.833 1 110.5s1 147.5 1 245.5c0 70 -0.833008 153.833 -2.5 251.5s-2.5 150.834 -2.5 159.501h158c0 -11.333 -0.666992 -48.833 -2 -112.5s-2 -172.167 -2 -325.5c0 -86 0.333008 -161.5 1 -226.5s1.66699 -180.833 3 -347.5zM917.001 1177l-89 -68
l-233 258h-2l-233 -258l-89 68l261 289h123z" />
    <glyph glyph-name="udieresis" unicode="&#xfc;" horiz-adv-x="1190" 
d="M1007 0h-152.999v116l-1 1c-46.667 -30.667 -104.834 -62.167 -174.501 -94.5s-138.167 -48.5 -205.5 -48.5c-92 0 -164 27.333 -216 82s-78 131.334 -78 230.001c0 53.333 0.5 116.833 1.5 190.5s1.5 127.167 1.5 160.5c0 60.667 -0.833008 135.5 -2.5 224.5
s-2.5 139.167 -2.5 150.5h158c0 -8.66699 -0.666992 -56.667 -2 -144s-2 -157 -2 -209c0 -46 0.333008 -103.333 1 -172s1 -117.334 1 -146.001c1.33301 -78.667 15 -136.334 41 -173.001s68 -55 126 -55c59.333 0 124.5 16 195.5 48s123.167 60 156.5 84
c0 8 0.333008 44.833 1 110.5s1 147.5 1 245.5c0 70 -0.833008 153.833 -2.5 251.5s-2.5 150.834 -2.5 159.501h158c0 -11.333 -0.666992 -48.833 -2 -112.5s-2 -172.167 -2 -325.5c0 -86 0.333008 -161.5 1 -226.5s1.66699 -180.833 3 -347.5zM893.001 1206h-169v170h169
v-170zM461.001 1206h-169v170h169v-170z" />
    <glyph glyph-name="yacute" unicode="&#xfd;" horiz-adv-x="1096" 
d="M1039 971l-410.501 -913.5l-229.5 -514.5l-138 51l207 429c-5.33301 13.333 -47.166 110.666 -125.499 291.999l-286.5 650l150 65l224 -549.5l120 -285.5h2c4 6.66699 42 95.334 114 266.001l236 565zM916.999 1363l-439 -232l-60 93l429 252z" />
    <glyph glyph-name="thorn" unicode="&#xfe;" horiz-adv-x="1136" 
d="M1049 537c0 -103.333 -23.001 -191.165 -69.001 -263.498s-108 -129.5 -186 -171.5c-68 -36 -142.667 -61.333 -224 -76s-158.666 -22 -231.999 -22l4 -459h-159c0 15.333 0.666992 103.833 2 265.5s2 392.167 2 691.5c0 141.333 -0.333008 303 -1 485
s-1.66699 341.667 -3 479h158l-3 -445c120 -0.666992 216.833 -8.33398 290.5 -23.001s141.5 -40.334 203.5 -77.001c67.333 -39.333 120.333 -91.833 159 -157.5s58 -141.167 58 -226.5zM888.999 532.001c0 65.333 -15.335 122.671 -46.002 172.004
s-70.667 88.333 -120 117c-44.667 25.333 -95.5 43.833 -152.5 55.5s-118.833 17.5 -185.5 17.5h-22h-23c0 -13.333 -0.5 -66.5 -1.5 -159.5s-1.5 -179.5 -1.5 -259.5c0 -34.667 0.166992 -91.334 0.5 -170.001s0.5 -137.334 0.5 -176.001
c62.667 0 125.334 5.83301 188.001 17.5s114.334 27.5 155.001 47.5c68 33.333 119.667 77.666 155 132.999s53 123.666 53 204.999z" />
    <glyph glyph-name="ydieresis" unicode="&#xff;" horiz-adv-x="1096" 
d="M1039 971l-410.501 -913.5l-229.5 -514.5l-138 51l207 429c-5.33301 13.333 -47.166 110.666 -125.499 291.999l-286.5 650l150 65l224 -549.5l120 -285.5h2c4 6.66699 42 95.334 114 266.001l236 565zM863.999 1206h-169v170h169v-170zM431.999 1206h-169v170h169v-170z
" />
    <glyph glyph-name="Amacron" unicode="&#x100;" horiz-adv-x="1358" 
d="M1346 53l-156 -80c-2.66699 7.33301 -23.5 57 -62.5 149l-154.5 355h-598l-162 -361c-38 -85.333 -59 -133 -63 -143l-134 72c17.333 34.667 88.833 187.5 214.5 458.5l391.5 854.5h130l393 -868zM916 605l-114 255l-126 278h-4l-123 -270.5l-119 -262.5l1 -1h484z
M1019 1496c-14 0 -62.8301 0.166992 -146.497 0.5s-144.834 0.5 -183.501 0.5c-56.667 0 -122.834 -0.166992 -198.501 -0.5s-121.834 -0.5 -138.501 -0.5v113c16.667 0 58.5 -0.166992 125.5 -0.5s135.833 -0.5 206.5 -0.5c56.667 0 123.5 0.166992 200.5 0.5
s121.833 0.5 134.5 0.5v-113z" />
    <glyph glyph-name="amacron" unicode="&#x101;" horiz-adv-x="1052" 
d="M878 570c0 -165.333 -0.334961 -299.999 -1.00195 -403.999s-1 -160 -1 -168c-6.66699 -0.666992 -37.667 -3.16699 -93 -7.5s-126.666 -6.5 -213.999 -6.5c-54.667 0 -109.667 5 -165 15s-103 24.333 -143 43c-53.333 24.667 -96.5 58.334 -129.5 101.001
s-49.5 94 -49.5 154c0 63.333 19.5 118.166 58.5 164.499s93.167 83.833 162.5 112.5c43.333 18 101.166 34.167 173.499 48.5s154.833 25.166 247.5 32.499c-4 52 -17 94.667 -39 128s-54.333 58.666 -97 75.999c-29.333 12 -62 20.5 -98 25.5s-78 7.5 -126 7.5
c-30 0 -55.5 -0.666992 -76.5 -2s-49.5 -3 -85.5 -5l16 133c10 0.666992 29.833 1.83398 59.5 3.50098s70.167 2.5 121.5 2.5c78.667 0 148.834 -8.16699 210.501 -24.5s112.834 -42.833 153.501 -79.5c38 -34.667 66.667 -77.5 86 -128.5s29 -124.833 29 -221.5z
M724.998 329.001l-0.000976562 85.998c0 34.667 -0.333008 74.667 -1 120c-29.333 -1.33301 -80.666 -7.16602 -153.999 -17.499s-135 -25.166 -185 -44.499c-37.333 -14 -70.5 -35 -99.5 -63s-43.5 -62.667 -43.5 -104c0 -45.333 12.333 -81.833 37 -109.5
s58.334 -48.834 101.001 -63.501c32.667 -11.333 68.834 -19.5 108.501 -24.5s81.5 -7.5 125.5 -7.5c13.333 0 29.666 0.333008 48.999 1s39.666 1.33398 60.999 2.00098c0 4.66699 0.166992 26.667 0.5 66s0.5 92.333 0.5 159zM838.997 1239
c-7.33301 0 -49.833 0.166992 -127.5 0.5s-143.167 0.5 -196.5 0.5c-56 0 -123 -0.166992 -201 -0.5s-121 -0.5 -129 -0.5v112c10 0 53.5 -0.166992 130.5 -0.5s141.833 -0.5 194.5 -0.5c56.667 0 124 0.166992 202 0.5s120.333 0.5 127 0.5v-112z" />
    <glyph glyph-name="Abreve" unicode="&#x102;" horiz-adv-x="1358" 
d="M1346 53l-156 -80c-2.66699 7.33301 -23.5 57 -62.5 149l-154.5 355h-598l-162 -361c-38 -85.333 -59 -133 -63 -143l-134 72c17.333 34.667 88.833 187.5 214.5 458.5l391.5 854.5h130l393 -868zM916 605l-114 255l-126 278h-4l-123 -270.5l-119 -262.5l1 -1h484z
M1002 1686c-4.66699 -15.333 -14.167 -39.001 -28.5 -71.001s-32.833 -60.667 -55.5 -86c-26.667 -30 -57.667 -55 -93 -75s-82 -30 -140 -30c-54.667 0 -101.167 10.5 -139.5 31.5s-69.833 45.833 -94.5 74.5c-25.333 30 -44.166 59.5 -56.499 88.5
s-21.166 51.833 -26.499 68.5l108 36c5.33301 -15.333 13.666 -35 24.999 -59s25 -45.667 41 -65c18.667 -23.333 38.167 -41.833 58.5 -55.5s48.5 -20.5 84.5 -20.5c32 0 60.167 7.83301 84.5 23.5s43.833 32.834 58.5 51.501c15.333 19.333 28.666 40.5 39.999 63.5
s20 43.167 26 60.5z" />
    <glyph glyph-name="abreve" unicode="&#x103;" horiz-adv-x="1052" 
d="M878 570c0 -165.333 -0.334961 -299.999 -1.00195 -403.999s-1 -160 -1 -168c-6.66699 -0.666992 -37.667 -3.16699 -93 -7.5s-126.666 -6.5 -213.999 -6.5c-54.667 0 -109.667 5 -165 15s-103 24.333 -143 43c-53.333 24.667 -96.5 58.334 -129.5 101.001
s-49.5 94 -49.5 154c0 63.333 19.5 118.166 58.5 164.499s93.167 83.833 162.5 112.5c43.333 18 101.166 34.167 173.499 48.5s154.833 25.166 247.5 32.499c-4 52 -17 94.667 -39 128s-54.333 58.666 -97 75.999c-29.333 12 -62 20.5 -98 25.5s-78 7.5 -126 7.5
c-30 0 -55.5 -0.666992 -76.5 -2s-49.5 -3 -85.5 -5l16 133c10 0.666992 29.833 1.83398 59.5 3.50098s70.167 2.5 121.5 2.5c78.667 0 148.834 -8.16699 210.501 -24.5s112.834 -42.833 153.501 -79.5c38 -34.667 66.667 -77.5 86 -128.5s29 -124.833 29 -221.5z
M724.998 329.001l-0.000976562 85.998c0 34.667 -0.333008 74.667 -1 120c-29.333 -1.33301 -80.666 -7.16602 -153.999 -17.499s-135 -25.166 -185 -44.499c-37.333 -14 -70.5 -35 -99.5 -63s-43.5 -62.667 -43.5 -104c0 -45.333 12.333 -81.833 37 -109.5
s58.334 -48.834 101.001 -63.501c32.667 -11.333 68.834 -19.5 108.501 -24.5s81.5 -7.5 125.5 -7.5c13.333 0 29.666 0.333008 48.999 1s39.666 1.33398 60.999 2.00098c0 4.66699 0.166992 26.667 0.5 66s0.5 92.333 0.5 159zM834.997 1427
c-19.333 -83.333 -56.333 -152.667 -111 -208s-125 -83 -211 -83s-156.333 27.667 -211 83s-92 124.666 -112 207.999l104 41c28.667 -84 60.5 -143.833 95.5 -179.5s76.167 -53.5 123.5 -53.5s88.5 17.833 123.5 53.5s66.167 95.834 93.5 180.501z" />
    <glyph glyph-name="Aogonek" unicode="&#x104;" horiz-adv-x="1358" 
d="M1346 53l-156 -80c-2.66699 7.33301 -23.5 57 -62.5 149l-154.5 355h-598l-162 -361c-38 -85.333 -59 -133 -63 -143l-134 72c17.333 34.667 88.833 187.5 214.5 458.5l391.5 854.5h130l393 -868zM916 605l-114 255l-126 278h-4l-123 -270.5l-119 -262.5l1 -1h484z
M1536 -238l-33.001 -117.001c-48 0 -91.833 7 -131.5 21s-69.5 28.333 -89.5 43c-33.333 24.667 -57.333 54 -72 88s-22 70.667 -22 110c0 16.667 0.333008 31.334 1 44.001s2 22.667 4 30l134 68c-4.66699 -24 -8.16699 -44.667 -10.5 -62s-3.5 -38.333 -3.5 -63
c0 -20 4.16699 -39.833 12.5 -59.5s18.166 -35.5 29.499 -47.5c10.667 -11.333 31.834 -23.333 63.501 -36s70.834 -19 117.501 -19z" />
    <glyph glyph-name="aogonek" unicode="&#x105;" horiz-adv-x="1052" 
d="M725 329c0 59.333 -0.167969 97.1689 -0.500977 113.502s-0.5 47.166 -0.5 92.499c-26 -1.33301 -75.167 -6.83301 -147.5 -16.5s-136.166 -24.834 -191.499 -45.501c-36.667 -13.333 -69.667 -34.333 -99 -63s-44 -63.334 -44 -104.001c0 -45.333 12.5 -82 37.5 -110
s58.5 -49 100.5 -63c32.667 -11.333 69.167 -19.5 109.5 -24.5s81.833 -7.5 124.5 -7.5c13.333 0 29.833 0.333008 49.5 1l60.5 2c0 4 0.166992 25.833 0.5 65.5s0.5 92.834 0.5 159.501zM737.999 -11.9971c-2 -13.333 -3.33594 -25.834 -4.00293 -37.501
s-1 -21.167 -1 -28.5c0 -24 2.5 -43.5 7.5 -58.5s11.833 -27.5 20.5 -37.5c12.667 -14.667 34.5 -27 65.5 -37s72.5 -15 124.5 -15l-43 -109c-46 0 -86.833 5 -122.5 15s-64.5 22.667 -86.5 38c-32.667 22.667 -55.5 49.667 -68.5 81s-19.5 67.333 -19.5 108
c0 10 0.666992 22 2 36s3.33301 27.667 6 41h-24h-26c-54 0 -108.833 5 -164.5 15s-103.5 24.333 -143.5 43c-52 24 -94.833 57.333 -128.5 100s-50.5 94.334 -50.5 155.001c0 63.333 19.667 118.333 59 165s93.333 84 162 112c46 18.667 104.667 35 176 49
s153 24.667 245 32c-4 51.333 -17 93.833 -39 127.5s-54.333 59.167 -97 76.5c-29.333 12 -62 20.5 -98 25.5s-78 7.5 -126 7.5c-28.667 0 -54 -0.666992 -76 -2l-86 -5l16 133c10.667 0.666992 30.834 1.83398 60.501 3.50098s69.834 2.5 120.501 2.5
c78.667 0 149 -8.16699 211 -24.5s113 -42.833 153 -79.5c38 -34.667 66.667 -77.667 86 -129s29 -125 29 -221c0 -165.333 -0.333008 -300.333 -1 -405s-1 -160.334 -1 -167.001c-3.33301 0 -17.666 -1.16699 -42.999 -3.5s-57 -4.5 -95 -6.5z" />
    <glyph glyph-name="Cacute" unicode="&#x106;" horiz-adv-x="1182" 
d="M1120 123l-5.5 -50.499c-3 -27.667 -5.83301 -57.834 -8.5 -90.501h-17.5h-17.5c-162.667 0 -307.334 20.5 -434.001 61.5s-230.667 100.5 -312 178.5c-56.667 54 -101.5 118.667 -134.5 194s-49.5 161.333 -49.5 258c0 86.667 16.333 165.834 49 237.501
s75.334 134.167 128.001 187.5c76.667 77.333 179.667 138.666 309 183.999s267.666 68 414.999 68h25h20c0.666992 -12 2 -31.167 4 -57.5s4.33301 -54.833 7 -85.5h-17h-17c-83.333 0 -169.666 -9.16699 -258.999 -27.5s-166.333 -45.833 -231 -82.5
c-84 -48 -148.667 -109.5 -194 -184.5s-68 -155.833 -68 -242.5c0 -90 20.333 -171.833 61 -245.5s105 -135.5 193 -185.5c72 -41.333 152.5 -71.333 241.5 -90s177.5 -28 265.5 -28h19c8.66699 0 18 0.333008 28 1zM1102 1621l-480 -185l-50 99l473 206z" />
    <glyph glyph-name="cacute" unicode="&#x107;" horiz-adv-x="930" 
d="M850 130l-12.002 -134.001h-25.5h-29.5c-86 0 -166.333 8.16699 -241 24.5s-141.667 40.5 -201 72.5c-80.667 44 -143.667 102.333 -189 175s-68 153.667 -68 243c0 80 20.667 153.5 62 220.5s95.333 121.833 162 164.5c60 38.667 131.833 68.167 215.5 88.5
s170.167 30.5 259.5 30.5h22.5h18.5l8 -134h-15.5h-15.5c-74 0 -137.167 -4.5 -189.5 -13.5s-103.166 -23.833 -152.499 -44.5c-66 -26.667 -118.333 -68.667 -157 -126s-58 -118.666 -58 -183.999c0 -78 18.167 -143.5 54.5 -196.5s84.5 -93.833 144.5 -122.5
c46.667 -22.667 99.334 -39 158.001 -49s120.667 -15 186 -15h36h27zM864.998 1363l-439 -232l-60 93l429 252z" />
    <glyph glyph-name="Cdotaccent" unicode="&#x10a;" horiz-adv-x="1182" 
d="M1120 123l-5.5 -50.499c-3 -27.667 -5.83301 -57.834 -8.5 -90.501h-17.5h-17.5c-162.667 0 -307.334 20.5 -434.001 61.5s-230.667 100.5 -312 178.5c-56.667 54 -101.5 118.667 -134.5 194s-49.5 161.333 -49.5 258c0 86.667 16.333 165.834 49 237.501
s75.334 134.167 128.001 187.5c76.667 77.333 179.667 138.666 309 183.999s267.666 68 414.999 68h25h20c0.666992 -12 2 -31.167 4 -57.5s4.33301 -54.833 7 -85.5h-17h-17c-83.333 0 -169.666 -9.16699 -258.999 -27.5s-166.333 -45.833 -231 -82.5
c-84 -48 -148.667 -109.5 -194 -184.5s-68 -155.833 -68 -242.5c0 -90 20.333 -171.833 61 -245.5s105 -135.5 193 -185.5c72 -41.333 152.5 -71.333 241.5 -90s177.5 -28 265.5 -28h19c8.66699 0 18 0.333008 28 1zM776 1513h-171v170h171v-170z" />
    <glyph glyph-name="cdotaccent" unicode="&#x10b;" horiz-adv-x="930" 
d="M850 130l-12.002 -134.001h-25.5h-29.5c-86 0 -166.333 8.16699 -241 24.5s-141.667 40.5 -201 72.5c-80.667 44 -143.667 102.333 -189 175s-68 153.667 -68 243c0 80 20.667 153.5 62 220.5s95.333 121.833 162 164.5c60 38.667 131.833 68.167 215.5 88.5
s170.167 30.5 259.5 30.5h22.5h18.5l8 -134h-15.5h-15.5c-74 0 -137.167 -4.5 -189.5 -13.5s-103.166 -23.833 -152.499 -44.5c-66 -26.667 -118.333 -68.667 -157 -126s-58 -118.666 -58 -183.999c0 -78 18.167 -143.5 54.5 -196.5s84.5 -93.833 144.5 -122.5
c46.667 -22.667 99.334 -39 158.001 -49s120.667 -15 186 -15h36h27zM622.998 1167h-171v170h171v-170z" />
    <glyph glyph-name="Ccaron" unicode="&#x10c;" horiz-adv-x="1182" 
d="M1120 123l-5.5 -50.499c-3 -27.667 -5.83301 -57.834 -8.5 -90.501h-17.5h-17.5c-162.667 0 -307.334 20.5 -434.001 61.5s-230.667 100.5 -312 178.5c-56.667 54 -101.5 118.667 -134.5 194s-49.5 161.333 -49.5 258c0 86.667 16.333 165.834 49 237.501
s75.334 134.167 128.001 187.5c76.667 77.333 179.667 138.666 309 183.999s267.666 68 414.999 68h25h20c0.666992 -12 2 -31.167 4 -57.5s4.33301 -54.833 7 -85.5h-17h-17c-83.333 0 -169.666 -9.16699 -258.999 -27.5s-166.333 -45.833 -231 -82.5
c-84 -48 -148.667 -109.5 -194 -184.5s-68 -155.833 -68 -242.5c0 -90 20.333 -171.833 61 -245.5s105 -135.5 193 -185.5c72 -41.333 152.5 -71.333 241.5 -90s177.5 -28 265.5 -28h19c8.66699 0 18 0.333008 28 1zM1117 1652l-258 -226l-136 -1l-257 227l91 71l234 -200h3
l232 200z" />
    <glyph glyph-name="ccaron" unicode="&#x10d;" horiz-adv-x="930" 
d="M850 130l-12.002 -134.001h-25.5h-29.5c-86 0 -166.333 8.16699 -241 24.5s-141.667 40.5 -201 72.5c-80.667 44 -143.667 102.333 -189 175s-68 153.667 -68 243c0 80 20.667 153.5 62 220.5s95.333 121.833 162 164.5c60 38.667 131.833 68.167 215.5 88.5
s170.167 30.5 259.5 30.5h22.5h18.5l8 -134h-15.5h-15.5c-74 0 -137.167 -4.5 -189.5 -13.5s-103.166 -23.833 -152.499 -44.5c-66 -26.667 -118.333 -68.667 -157 -126s-58 -118.666 -58 -183.999c0 -78 18.167 -143.5 54.5 -196.5s84.5 -93.833 144.5 -122.5
c46.667 -22.667 99.334 -39 158.001 -49s120.667 -15 186 -15h36h27zM885.998 1399l-262 -289h-123l-261 289l89 68l233 -258h2l233 258z" />
    <glyph glyph-name="Dcaron" unicode="&#x10e;" horiz-adv-x="1497" 
d="M1354 662c0 -117.333 -28.8301 -220.332 -86.4971 -308.999s-132.5 -160 -224.5 -214c-80 -47.333 -169.167 -83.333 -267.5 -108s-208.833 -37 -331.5 -37c-46.667 0 -92.334 0.666992 -137.001 2s-69.334 2 -74.001 2c0 3.33301 0.833008 80.166 2.5 230.499
s2.5 292.833 2.5 427.5c0 71.333 -0.166992 163 -0.5 275s-1.83301 248 -4.5 408c6.66699 0 37.167 0.333008 91.5 1s83.5 1 87.5 1c138 0 260.5 -12.333 367.5 -37s202.5 -63.667 286.5 -117c97.333 -62 169.666 -136.5 216.999 -223.5s71 -187.5 71 -301.5zM1183 663.001
c0 86.667 -18.667 165.331 -56 235.998s-96.333 131.334 -177 182.001c-75.333 47.333 -158.833 80.333 -250.5 99s-174.834 28 -249.501 28h-31h-21c-1.33301 -105.333 -2.16602 -192.666 -2.49902 -261.999s-0.5 -124.666 -0.5 -165.999
c0 -29.333 0.166992 -97.833 0.5 -205.5s0.833008 -256.834 1.5 -447.501h25.5h25.5c86.667 0 173.667 10.167 261 30.5s161 48.5 221 84.5c76 45.333 137.167 102.833 183.5 172.5s69.5 152.5 69.5 248.5zM980.003 1652l-258 -226l-136 -1l-257 227l91 71l234 -200h3
l232 200z" />
    <glyph glyph-name="dcaron" unicode="&#x10f;" horiz-adv-x="1135" 
d="M952 -16c-4 0 -16.667 -0.168945 -38 -0.501953s-38.333 -0.5 -51 -0.5c-126 0 -224.667 5.5 -296 16.5s-141 32.833 -209 65.5c-88.667 42.667 -156 99.334 -202 170.001s-69 149.334 -69 236.001c0 101.333 25.667 191.166 77 269.499s125.333 139.5 222 183.5
c56.667 26.667 121.667 46.834 195 60.501s145.333 20.5 216 20.5l-3 461h158c0 -13.333 -0.666992 -106.666 -2 -279.999s-2 -349 -2 -527c0 -140.667 0.5 -267.834 1.5 -381.501zM797 686.998l0.000976562 87.999v97c-66.667 0 -129.5 -5.66699 -188.5 -17
s-109.5 -26.666 -151.5 -45.999c-66.667 -30.667 -118.334 -74.5 -155.001 -131.5s-55 -123.833 -55 -200.5c0 -68.667 17.667 -127.667 53 -177s79.333 -88 132 -116c46 -24.667 97.833 -43.167 155.5 -55.5s118.167 -18.5 181.5 -18.5h13h13c0 6 0.333008 55.833 1 149.5
s1 236.167 1 427.5zM1335 1414l-201 -369l-96 44l178 387z" />
    <glyph glyph-name="Dcroat" unicode="&#x110;" horiz-adv-x="1497" 
d="M1354 662c0 -117.333 -28.833 -220.334 -86.5 -309.001s-132.5 -160 -224.5 -214c-80 -47.333 -169.167 -83.333 -267.5 -108s-208.833 -37 -331.5 -37c-46.667 0 -92.167 0.666992 -136.5 2s-69.166 2 -74.499 2c0 9.33301 0.833008 81.333 2.5 216
s2.5 275.334 2.5 422.001c-40 0 -84.5 -0.333008 -133.5 -1s-76.5 -1 -82.5 -1v117c5.33301 0 28.333 -0.333008 69 -1s89.667 -1 147 -1c-0.666992 60 -1.16699 138.5 -1.5 235.5s-1.5 215.167 -3.5 354.5c9.33301 0 40.5 0.333008 93.5 1s81.5 1 85.5 1
c138 0 260.5 -12.333 367.5 -37s202.5 -63.667 286.5 -117c97.333 -62 169.666 -136.5 216.999 -223.5s71 -187.5 71 -301.5zM1183 662.999c0 86.667 -18.665 165.333 -55.998 236s-96.333 131.334 -177 182.001c-75.333 47.333 -158.833 80.333 -250.5 99
s-174.834 28 -249.501 28h-29.5h-24.5c-1.33301 -92 -2.16602 -179.333 -2.49902 -262s-0.5 -148.334 -0.5 -197.001c67.333 0 136.666 0.333008 207.999 1s112 1 122 1v-117c-6.66699 0 -43.834 0.333008 -111.501 1s-140.5 1 -218.5 1
c0 -32.667 0.333008 -95.167 1 -187.5s1 -199.5 1 -321.5h26.5h26.5c86.667 0 173.667 10.167 261 30.5s161 48.5 221 84.5c76 45.333 137.167 102.833 183.5 172.5s69.5 152.5 69.5 248.5z" />
    <glyph glyph-name="dcroat" unicode="&#x111;" horiz-adv-x="1135" 
d="M1163 1158c-3.33301 0 -26.167 0.333008 -68.5 1s-90.833 1 -145.5 1c0 -68 -0.166992 -145.833 -0.5 -233.5s-0.5 -176.834 -0.5 -267.501c0 -140.667 0.5 -267.834 1.5 -381.501l2.5 -293.5c-4.66699 0 -17.5 -0.166992 -38.5 -0.5s-37.833 -0.5 -50.5 -0.5
c-126 0 -224.667 5.5 -296 16.5s-141 32.833 -209 65.5c-88.667 42.667 -156 99.334 -202 170.001s-69 149.334 -69 236.001c0 101.333 25.667 191.166 77 269.499s125.333 139.5 222 183.5c56.667 26.667 121.667 46.334 195 59.001s145.333 19 216 19v158
c-50 0 -110.167 -0.333008 -180.5 -1s-108.833 -1 -115.5 -1v94c4.66699 0 40.5 -0.333008 107.5 -1s129.833 -1 188.5 -1l-2 216h156c0 -7.33301 -0.166992 -28.833 -0.5 -64.5s-0.5 -86.167 -0.5 -151.5c48.667 0 95 0.333008 139 1s68.667 1 74 1v-94zM796.999 687
l0.000976562 87.999v94c-66.667 0 -129.334 -5.16699 -188.001 -15.5s-109 -25.166 -151 -44.499c-66.667 -30.667 -118.5 -74.5 -155.5 -131.5s-55.5 -123.833 -55.5 -200.5c0 -68.667 17.667 -127.667 53 -177s79.333 -88 132 -116c46 -24.667 97.833 -43.167 155.5 -55.5
s118.167 -18.5 181.5 -18.5h13h13c0 6 0.333008 55.833 1 149.5s1 236.167 1 427.5z" />
    <glyph glyph-name="Emacron" unicode="&#x112;" horiz-adv-x="1237" 
d="M1084 2c-6 0 -50.332 0.332031 -132.999 0.999023s-185 1 -307 1c-84.667 0 -162.167 -0.333008 -232.5 -1s-129.833 -1 -178.5 -1c1.33301 38.667 2.5 122.334 3.5 251.001s1.5 261.667 1.5 399c0 75.333 -0.333008 175 -1 299s-2 252.333 -4 385
c47.333 0 106.5 -0.333008 177.5 -1s144.167 -1 219.5 -1c127.333 0 231 0.333008 311 1s123.333 1 130 1v-139c-6.66699 0 -48.5 0.5 -125.5 1.5s-172.833 1.5 -287.5 1.5c-50 0 -99 -0.166992 -147 -0.5s-86 -0.5 -114 -0.5c0 -75.333 -0.666992 -150.5 -2 -225.5
s-2 -145.833 -2 -212.5c30 0 65.5 -0.166992 106.5 -0.5s77.5 -0.5 109.5 -0.5c117.333 0 222.166 0.5 314.499 1.5s141.5 1.5 147.5 1.5v-138c-5.33301 0 -60.333 0.5 -165 1.5s-200.334 1.5 -287.001 1.5c-32 0 -70.167 -0.166992 -114.5 -0.5s-81.5 -0.5 -111.5 -0.5
c0 -126 0.333008 -226 1 -300s1.33398 -136 2.00098 -186c39.333 -0.666992 87 -1.16699 143 -1.5s116.333 -0.5 181 -0.5c99.333 0 182.833 0.333008 250.5 1s105.5 1 113.5 1v-139zM1001 1506c-14 0 -62.8301 0.166992 -146.497 0.5s-144.834 0.5 -183.501 0.5
c-56.667 0 -122.834 -0.166992 -198.501 -0.5s-121.834 -0.5 -138.501 -0.5v113c16.667 0 58.5 -0.166992 125.5 -0.5s135.833 -0.5 206.5 -0.5c56.667 0 123.5 0.166992 200.5 0.5s121.833 0.5 134.5 0.5v-113z" />
    <glyph glyph-name="emacron" unicode="&#x113;" horiz-adv-x="1044" 
d="M963 543h-723c0.666992 -70.667 15.667 -135.5 45 -194.5s74.333 -107.833 135 -146.5c38.667 -24.667 82.667 -43.167 132 -55.5s108.666 -18.5 177.999 -18.5c38 0 72.833 1 104.5 3s51.167 3.33301 58.5 4l-18 -133c-5.33301 -0.666992 -23 -1.83398 -53 -3.50098
s-65.333 -2.5 -106 -2.5c-106.667 0 -199.5 13.833 -278.5 41.5s-143.833 65.834 -194.5 114.501c-43.333 40.667 -80.166 92.667 -110.499 156s-45.5 133.666 -45.5 210.999c0 76 11.333 144.667 34 206s56.667 118.333 102 171c39.333 45.333 88.166 80.333 146.499 105
s118.833 37 181.5 37c62 0 117 -9.33301 165 -28s89.667 -47 125 -85c39.333 -42.667 69.333 -95.167 90 -157.5s31.334 -137.166 32.001 -224.499zM808 655c-10.667 82.667 -38.832 147.5 -84.499 194.5s-105.834 70.5 -180.501 70.5s-137 -23.833 -187 -71.5
s-84.667 -112.167 -104 -193.5h556zM889.002 1239c-7.33301 0 -49.833 0.166992 -127.5 0.5s-143.167 0.5 -196.5 0.5c-56 0 -123 -0.166992 -201 -0.5s-121 -0.5 -129 -0.5v112c10 0 53.5 -0.166992 130.5 -0.5s141.833 -0.5 194.5 -0.5c56.667 0 124 0.166992 202 0.5
s120.333 0.5 127 0.5v-112z" />
    <glyph glyph-name="Edotaccent" unicode="&#x116;" horiz-adv-x="1237" 
d="M1084 2c-6 0 -50.332 0.332031 -132.999 0.999023s-185 1 -307 1c-84.667 0 -162.167 -0.333008 -232.5 -1s-129.833 -1 -178.5 -1c1.33301 38.667 2.5 122.334 3.5 251.001s1.5 261.667 1.5 399c0 75.333 -0.333008 175 -1 299s-2 252.333 -4 385
c47.333 0 106.5 -0.333008 177.5 -1s144.167 -1 219.5 -1c127.333 0 231 0.333008 311 1s123.333 1 130 1v-139c-6.66699 0 -48.5 0.5 -125.5 1.5s-172.833 1.5 -287.5 1.5c-50 0 -99 -0.166992 -147 -0.5s-86 -0.5 -114 -0.5c0 -75.333 -0.666992 -150.5 -2 -225.5
s-2 -145.833 -2 -212.5c30 0 65.5 -0.166992 106.5 -0.5s77.5 -0.5 109.5 -0.5c117.333 0 222.166 0.5 314.499 1.5s141.5 1.5 147.5 1.5v-138c-5.33301 0 -60.333 0.5 -165 1.5s-200.334 1.5 -287.001 1.5c-32 0 -70.167 -0.166992 -114.5 -0.5s-81.5 -0.5 -111.5 -0.5
c0 -126 0.333008 -226 1 -300s1.33398 -136 2.00098 -186c39.333 -0.666992 87 -1.16699 143 -1.5s116.333 -0.5 181 -0.5c99.333 0 182.833 0.333008 250.5 1s105.5 1 113.5 1v-139zM768.001 1471h-195v183h195v-183z" />
    <glyph glyph-name="edotaccent" unicode="&#x117;" horiz-adv-x="1044" 
d="M963 543h-723c0.666992 -70.667 15.667 -135.5 45 -194.5s74.333 -107.833 135 -146.5c38.667 -24.667 82.667 -43.167 132 -55.5s108.666 -18.5 177.999 -18.5c38 0 72.833 1 104.5 3s51.167 3.33301 58.5 4l-18 -133c-5.33301 -0.666992 -23 -1.83398 -53 -3.50098
s-65.333 -2.5 -106 -2.5c-106.667 0 -199.5 13.833 -278.5 41.5s-143.833 65.834 -194.5 114.501c-43.333 40.667 -80.166 92.667 -110.499 156s-45.5 133.666 -45.5 210.999c0 76 11.333 144.667 34 206s56.667 118.333 102 171c39.333 45.333 88.166 80.333 146.499 105
s118.833 37 181.5 37c62 0 117 -9.33301 165 -28s89.667 -47 125 -85c39.333 -42.667 69.333 -95.167 90 -157.5s31.334 -137.166 32.001 -224.499zM808 655c-10.667 82.667 -38.832 147.5 -84.499 194.5s-105.834 70.5 -180.501 70.5s-137 -23.833 -187 -71.5
s-84.667 -112.167 -104 -193.5h556zM636.002 1206h-171v170h171v-170z" />
    <glyph glyph-name="Eogonek" unicode="&#x118;" horiz-adv-x="1237" 
d="M1278 -239l-32 -116.003c-46.667 0 -89 6.33301 -127 19s-67.667 26.334 -89 41.001c-37.333 25.333 -63.333 55.833 -78 91.5s-22 74.5 -22 116.5c0 17.333 0.333008 32.333 1 45s2.33398 27.667 5.00098 45c-6 0 -25.667 0.166992 -59 0.5s-111 0.5 -233 0.5
c-84.667 0 -162.167 -0.333008 -232.5 -1s-129.833 -1 -178.5 -1c1.33301 38.667 2.5 122.334 3.5 251.001s1.5 261.667 1.5 399c0 75.333 -0.333008 175 -1 299s-2 252.333 -4 385c47.333 0 106.5 -0.333008 177.5 -1s144.167 -1 219.5 -1c127.333 0 231 0.333008 311 1
s123.333 1 130 1v-139c-6.66699 0 -48.5 0.5 -125.5 1.5s-172.833 1.5 -287.5 1.5c-50 0 -99 -0.166992 -147 -0.5s-86 -0.5 -114 -0.5c0 -75.333 -0.666992 -150.5 -2 -225.5s-2 -145.833 -2 -212.5c30 0 65.5 -0.166992 106.5 -0.5s77.5 -0.5 109.5 -0.5
c117.333 0 222.166 0.5 314.499 1.5s141.5 1.5 147.5 1.5v-138c-5.33301 0 -60.333 0.5 -165 1.5s-200.334 1.5 -287.001 1.5c-32 0 -70.167 -0.166992 -114.5 -0.5s-81.5 -0.5 -111.5 -0.5c0 -126 0.333008 -226 1 -300s1.33398 -136 2.00098 -186
c39.333 -0.666992 87 -1.16699 143 -1.5s116.333 -0.5 181 -0.5c64 0 139.5 0.333008 226.5 1s134.833 1 143.5 1v-5c-6 -16 -13.333 -42.667 -22 -80s-13 -78 -13 -122c0 -29.333 5 -54.5 15 -75.5s21 -36.5 33 -46.5c19.333 -15.333 44.333 -27.666 75 -36.999
s64 -14 100 -14z" />
    <glyph glyph-name="eogonek" unicode="&#x119;" horiz-adv-x="1044" 
d="M808 655c-10 82 -38.001 146.667 -84.001 194s-106.333 71 -181 71c-76 0 -138.667 -24 -188 -72s-83.666 -112.333 -102.999 -193h556zM579.999 5c-2.66699 -16 -4.66992 -31.3311 -6.00293 -45.998s-2 -27 -2 -37c0 -23.333 2.16699 -42.5 6.5 -57.5
s11.5 -27.833 21.5 -38.5c12.667 -14.667 34.334 -27 65.001 -37s72.334 -15 125.001 -15l-43 -109c-46.667 0 -87.667 5 -123 15s-64 22.667 -86 38c-34 24 -57.167 51.833 -69.5 83.5s-18.5 66.834 -18.5 105.501c0 16.667 1.66699 36.167 5 58.5s7 43.166 11 62.499
c-44 13.333 -85.167 30.5 -123.5 51.5s-71.5 45.167 -99.5 72.5c-42.667 40 -79.334 91.833 -110.001 155.5s-46 134.167 -46 211.5c0 74.667 11.833 143.834 35.5 207.501s57.167 120.5 100.5 170.5c38 44 86.667 78.5 146 103.5s120 37.5 182 37.5
s117.333 -9.66699 166 -29s90 -47.333 124 -84c39.333 -42.667 69.5 -95.334 90.5 -158.001s31.5 -137.334 31.5 -224.001h-723c0 -70.667 15 -135.667 45 -195s75 -108 135 -146c38.667 -24.667 82.834 -43.167 132.501 -55.5s108.834 -18.5 177.501 -18.5
c38 0 73 1.16699 105 3.5s51.333 3.5 58 3.5l-18 -133c-4.66699 0 -22.167 -1 -52.5 -3s-65.833 -3 -106.5 -3c-23.333 0 -46.5 0.666992 -69.5 2s-45.167 3.66602 -66.5 6.99902z" />
    <glyph glyph-name="Ecaron" unicode="&#x11a;" horiz-adv-x="1237" 
d="M1084 2c-6 0 -50.332 0.332031 -132.999 0.999023s-185 1 -307 1c-84.667 0 -162.167 -0.333008 -232.5 -1s-129.833 -1 -178.5 -1c1.33301 38.667 2.5 122.334 3.5 251.001s1.5 261.667 1.5 399c0 75.333 -0.333008 175 -1 299s-2 252.333 -4 385
c47.333 0 106.5 -0.333008 177.5 -1s144.167 -1 219.5 -1c127.333 0 231 0.333008 311 1s123.333 1 130 1v-139c-6.66699 0 -48.5 0.5 -125.5 1.5s-172.833 1.5 -287.5 1.5c-50 0 -99 -0.166992 -147 -0.5s-86 -0.5 -114 -0.5c0 -75.333 -0.666992 -150.5 -2 -225.5
s-2 -145.833 -2 -212.5c30 0 65.5 -0.166992 106.5 -0.5s77.5 -0.5 109.5 -0.5c117.333 0 222.166 0.5 314.499 1.5s141.5 1.5 147.5 1.5v-138c-5.33301 0 -60.333 0.5 -165 1.5s-200.334 1.5 -287.001 1.5c-32 0 -70.167 -0.166992 -114.5 -0.5s-81.5 -0.5 -111.5 -0.5
c0 -126 0.333008 -226 1 -300s1.33398 -136 2.00098 -186c39.333 -0.666992 87 -1.16699 143 -1.5s116.333 -0.5 181 -0.5c99.333 0 182.833 0.333008 250.5 1s105.5 1 113.5 1v-139zM999.001 1652l-258 -226l-136 -1l-257 227l91 71l234 -200h3l232 200z" />
    <glyph glyph-name="ecaron" unicode="&#x11b;" horiz-adv-x="1044" 
d="M963 543h-723c0.666992 -70.667 15.667 -135.5 45 -194.5s74.333 -107.833 135 -146.5c38.667 -24.667 82.667 -43.167 132 -55.5s108.666 -18.5 177.999 -18.5c38 0 72.833 1 104.5 3s51.167 3.33301 58.5 4l-18 -133c-5.33301 -0.666992 -23 -1.83398 -53 -3.50098
s-65.333 -2.5 -106 -2.5c-106.667 0 -199.5 13.833 -278.5 41.5s-143.833 65.834 -194.5 114.501c-43.333 40.667 -80.166 92.667 -110.499 156s-45.5 133.666 -45.5 210.999c0 76 11.333 144.667 34 206s56.667 118.333 102 171c39.333 45.333 88.166 80.333 146.499 105
s118.833 37 181.5 37c62 0 117 -9.33301 165 -28s89.667 -47 125 -85c39.333 -42.667 69.333 -95.167 90 -157.5s31.334 -137.166 32.001 -224.499zM808 655c-10.667 82.667 -38.832 147.5 -84.499 194.5s-105.834 70.5 -180.501 70.5s-137 -23.833 -187 -71.5
s-84.667 -112.167 -104 -193.5h556zM876.002 1399l-262 -289h-123l-261 289l89 68l233 -258h2l233 258z" />
    <glyph glyph-name="Gbreve" unicode="&#x11e;" horiz-adv-x="1410" 
d="M1223 688c-1.33301 -48 -2.66406 -104.169 -3.99707 -168.502s-2 -117.5 -2 -159.5c0 -67.333 0.666992 -142.5 2 -225.5s2 -129.167 2 -138.5c-6 -0.666992 -26 -2.16699 -60 -4.5s-67 -3.5 -99 -3.5c-158.667 0 -298.834 17 -420.501 51s-227.167 93.333 -316.5 178
c-55.333 52 -99.833 116.5 -133.5 193.5s-50.5 164.833 -50.5 263.5c0 121.333 32.167 229.833 96.5 325.5s152.833 172.834 265.5 231.501c76.667 40 163.834 70.167 261.501 90.5s199.5 30.5 305.5 30.5c16.667 0 32.167 -0.166992 46.5 -0.5s27.166 -0.5 38.499 -0.5
l12 -144c-2.66699 0 -13.334 0.166992 -32.001 0.5s-33.667 0.5 -45 0.5c-102 0 -195.333 -8.66699 -280 -26s-158.667 -42.666 -222 -75.999c-86 -45.333 -153.5 -107 -202.5 -185s-73.5 -161 -73.5 -249c0 -111.333 25.5 -203.5 76.5 -276.5
s116.833 -130.167 197.5 -171.5c72 -36.667 148.167 -62.5 228.5 -77.5s163.166 -22.5 248.499 -22.5c0 10.667 -0.333008 62.5 -1 155.5s-2 229.167 -4 408.5h165zM1186 1686c-4.66699 -15.333 -14.167 -39.001 -28.5 -71.001s-32.833 -60.667 -55.5 -86
c-26.667 -30 -57.667 -55 -93 -75s-82 -30 -140 -30c-54.667 0 -101.167 10.5 -139.5 31.5s-69.833 45.833 -94.5 74.5c-25.333 30 -44.166 59.5 -56.499 88.5s-21.166 51.833 -26.499 68.5l108 36c5.33301 -15.333 13.666 -35 24.999 -59s25 -45.667 41 -65
c18.667 -23.333 38.167 -41.833 58.5 -55.5s48.5 -20.5 84.5 -20.5c32 0 60.167 7.83301 84.5 23.5s43.833 32.834 58.5 51.501c15.333 19.333 28.666 40.5 39.999 63.5s20 43.167 26 60.5z" />
    <glyph glyph-name="gbreve" unicode="&#x11f;" horiz-adv-x="1128" 
d="M948 1021c0 -14.667 -0.498047 -80.6611 -1.49805 -197.994s-1.5 -229 -1.5 -335c0 -72 0.333008 -145.333 1 -220s1 -143 1 -205c0 -114 -19.5 -203.333 -58.5 -268s-94.5 -116.334 -166.5 -155.001c-56.667 -29.333 -125.667 -52.5 -207 -69.5s-180 -25.5 -296 -25.5
l-16 127c78 1.33301 148 5.5 210 12.5s118.333 19.833 169 38.5c78 29.333 132.333 68.166 163 116.499s46.667 107.166 48 176.499h-24h-24c-79.333 0 -161 9.5 -245 28.5s-155.667 49.167 -215 90.5c-58.667 39.333 -106.334 90.666 -143.001 153.999
s-55 141.666 -55 234.999s25.667 175.666 77 246.999s120 128 206 170c61.333 30 128.166 50.833 200.499 62.5s159.833 17.5 262.5 17.5h55.5h59.5zM795.002 489.006c0 48 -0.169922 108 -0.50293 180s-1.16602 147 -2.49902 225h-13h-13c-62 0 -116.167 -4 -162.5 -12
s-95.166 -23 -146.499 -45c-68 -29.333 -120 -72.333 -156 -129s-54 -120.667 -54 -192c0 -73.333 17.833 -136 53.5 -188s83.5 -92.333 143.5 -121c40.667 -19.333 87.834 -35 141.501 -47s110.5 -18 170.5 -18h20h17c0 8 0.333008 45.167 1 111.5s1 144.833 1 235.5z
M940.999 1427.01c-19.333 -83.333 -56.333 -152.667 -111 -208s-125 -83 -211 -83s-156.333 27.667 -211 83s-92 124.666 -112 207.999l104 41c28.667 -84 60.5 -143.833 95.5 -179.5s76.167 -53.5 123.5 -53.5s88.5 17.833 123.5 53.5s66.167 95.834 93.5 180.501z" />
    <glyph glyph-name="Gdotaccent" unicode="&#x120;" horiz-adv-x="1410" 
d="M1223 688c-1.33301 -48 -2.66406 -104.169 -3.99707 -168.502s-2 -117.5 -2 -159.5c0 -67.333 0.666992 -142.5 2 -225.5s2 -129.167 2 -138.5c-6 -0.666992 -26 -2.16699 -60 -4.5s-67 -3.5 -99 -3.5c-158.667 0 -298.834 17 -420.501 51s-227.167 93.333 -316.5 178
c-55.333 52 -99.833 116.5 -133.5 193.5s-50.5 164.833 -50.5 263.5c0 121.333 32.167 229.833 96.5 325.5s152.833 172.834 265.5 231.501c76.667 40 163.834 70.167 261.501 90.5s199.5 30.5 305.5 30.5c16.667 0 32.167 -0.166992 46.5 -0.5s27.166 -0.5 38.499 -0.5
l12 -144c-2.66699 0 -13.334 0.166992 -32.001 0.5s-33.667 0.5 -45 0.5c-102 0 -195.333 -8.66699 -280 -26s-158.667 -42.666 -222 -75.999c-86 -45.333 -153.5 -107 -202.5 -185s-73.5 -161 -73.5 -249c0 -111.333 25.5 -203.5 76.5 -276.5
s116.833 -130.167 197.5 -171.5c72 -36.667 148.167 -62.5 228.5 -77.5s163.166 -22.5 248.499 -22.5c0 10.667 -0.333008 62.5 -1 155.5s-2 229.167 -4 408.5h165zM828.002 1504h-171v170h171v-170z" />
    <glyph glyph-name="gdotaccent" unicode="&#x121;" horiz-adv-x="1128" 
d="M948 1021c0 -14.667 -0.498047 -80.6611 -1.49805 -197.994s-1.5 -229 -1.5 -335c0 -72 0.333008 -145.333 1 -220s1 -143 1 -205c0 -114 -19.5 -203.333 -58.5 -268s-94.5 -116.334 -166.5 -155.001c-56.667 -29.333 -125.667 -52.5 -207 -69.5s-180 -25.5 -296 -25.5
l-16 127c78 1.33301 148 5.5 210 12.5s118.333 19.833 169 38.5c78 29.333 132.333 68.166 163 116.499s46.667 107.166 48 176.499h-24h-24c-79.333 0 -161 9.5 -245 28.5s-155.667 49.167 -215 90.5c-58.667 39.333 -106.334 90.666 -143.001 153.999
s-55 141.666 -55 234.999s25.667 175.666 77 246.999s120 128 206 170c61.333 30 128.166 50.833 200.499 62.5s159.833 17.5 262.5 17.5h55.5h59.5zM795.002 489.006c0 48 -0.169922 108 -0.50293 180s-1.16602 147 -2.49902 225h-13h-13c-62 0 -116.167 -4 -162.5 -12
s-95.166 -23 -146.499 -45c-68 -29.333 -120 -72.333 -156 -129s-54 -120.667 -54 -192c0 -73.333 17.833 -136 53.5 -188s83.5 -92.333 143.5 -121c40.667 -19.333 87.834 -35 141.501 -47s110.5 -18 170.5 -18h20h17c0 8 0.333008 45.167 1 111.5s1 144.833 1 235.5z
M622.999 1213.01h-171v170h171v-170z" />
    <glyph glyph-name="Gcedilla" unicode="&#x122;" horiz-adv-x="1410" 
d="M1069 -12c-0.666992 -28 -2.83301 -57.1719 -6.5 -87.5049s-10.5 -58.166 -20.5 -83.499c-12 -30 -27.833 -56.333 -47.5 -79s-43.167 -42.334 -70.5 -59.001c-22 -12.667 -53.667 -26.167 -95 -40.5s-90 -21.5 -146 -21.5h-6h-6l-17 115
c68.667 2.66699 120.334 10.334 155.001 23.001s59.334 26.334 74.001 41.001c20 20 34.833 43.667 44.5 71s14.5 68.666 14.5 123.999c-144.667 10 -264.834 32.333 -360.501 67s-181.167 87.667 -256.5 159c-55.333 52.667 -99.833 117.334 -133.5 194.001
s-50.5 164.334 -50.5 263.001c0 121.333 32.167 229.833 96.5 325.5s152.833 172.834 265.5 231.501c76.667 40 163.834 70.167 261.501 90.5s199.5 30.5 305.5 30.5c16.667 0 32.167 -0.166992 46.5 -0.5s27.166 -0.5 38.499 -0.5l12 -144
c-2.66699 0 -13.334 0.166992 -32.001 0.5s-33.667 0.5 -45 0.5c-102 0 -195.333 -8.66699 -280 -26s-158.667 -42.666 -222 -75.999c-86 -45.333 -153.5 -107 -202.5 -185s-73.5 -161 -73.5 -249c0 -111.333 25.5 -203.5 76.5 -276.5s116.833 -130.167 197.5 -171.5
c72 -36.667 148.167 -62.5 228.5 -77.5s163.166 -22.5 248.499 -22.5c0 10.667 -0.333008 62.5 -1 155.5s-2 229.167 -4 408.5h165c-1.33301 -48 -2.66602 -104.167 -3.99902 -168.5s-2 -117.5 -2 -159.5c0 -67.333 0.666992 -142.5 2 -225.5s2 -129.167 2 -138.5
c-6 -0.666992 -25.5 -2.16699 -58.5 -4.5s-64.167 -3.5 -93.5 -3.5z" />
    <glyph glyph-name="gcommaaccent" unicode="&#x123;" horiz-adv-x="1128" 
d="M948 1021c0 -14.667 -0.498047 -80.6611 -1.49805 -197.994s-1.5 -229 -1.5 -335c0 -72 0.333008 -145.333 1 -220s1 -143 1 -205c0 -114 -19.5 -203.333 -58.5 -268s-94.5 -116.334 -166.5 -155.001c-56.667 -29.333 -125.667 -52.5 -207 -69.5s-180 -25.5 -296 -25.5
l-16 127c78 1.33301 148 5.5 210 12.5s118.333 19.833 169 38.5c78 29.333 132.333 68.166 163 116.499s46.667 107.166 48 176.499h-24h-24c-79.333 0 -161 9.5 -245 28.5s-155.667 49.167 -215 90.5c-58.667 39.333 -106.334 90.666 -143.001 153.999
s-55 141.666 -55 234.999s25.667 175.666 77 246.999s120 128 206 170c61.333 30 128.166 50.833 200.499 62.5s159.833 17.5 262.5 17.5h55.5h59.5zM795.002 489.006c0 48 -0.169922 108 -0.50293 180s-1.16602 147 -2.49902 225h-13h-13c-62 0 -116.167 -4 -162.5 -12
s-95.166 -23 -146.499 -45c-68 -29.333 -120 -72.333 -156 -129s-54 -120.667 -54 -192c0 -73.333 17.833 -136 53.5 -188s83.5 -92.333 143.5 -121c40.667 -19.333 87.834 -35 141.501 -47s110.5 -18 170.5 -18h20h17c0 8 0.333008 45.167 1 111.5s1 144.833 1 235.5z
M952.999 1363.01l-439 -232l-60 93l429 252z" />
    <glyph glyph-name="gcommaaccent" unicode="&#x1f5;" horiz-adv-x="1128" 
d="M948 1021c0 -14.667 -0.498047 -80.6611 -1.49805 -197.994s-1.5 -229 -1.5 -335c0 -72 0.333008 -145.333 1 -220s1 -143 1 -205c0 -114 -19.5 -203.333 -58.5 -268s-94.5 -116.334 -166.5 -155.001c-56.667 -29.333 -125.667 -52.5 -207 -69.5s-180 -25.5 -296 -25.5
l-16 127c78 1.33301 148 5.5 210 12.5s118.333 19.833 169 38.5c78 29.333 132.333 68.166 163 116.499s46.667 107.166 48 176.499h-24h-24c-79.333 0 -161 9.5 -245 28.5s-155.667 49.167 -215 90.5c-58.667 39.333 -106.334 90.666 -143.001 153.999
s-55 141.666 -55 234.999s25.667 175.666 77 246.999s120 128 206 170c61.333 30 128.166 50.833 200.499 62.5s159.833 17.5 262.5 17.5h55.5h59.5zM795.002 489.006c0 48 -0.169922 108 -0.50293 180s-1.16602 147 -2.49902 225h-13h-13c-62 0 -116.167 -4 -162.5 -12
s-95.166 -23 -146.499 -45c-68 -29.333 -120 -72.333 -156 -129s-54 -120.667 -54 -192c0 -73.333 17.833 -136 53.5 -188s83.5 -92.333 143.5 -121c40.667 -19.333 87.834 -35 141.501 -47s110.5 -18 170.5 -18h20h17c0 8 0.333008 45.167 1 111.5s1 144.833 1 235.5z
M952.999 1363.01l-439 -232l-60 93l429 252z" />
    <glyph glyph-name="Hbar" unicode="&#x126;" horiz-adv-x="1599" 
d="M1366 0l-164.999 -0.000976562c0.666992 40 1.5 113.833 2.5 221.5s1.5 241.834 1.5 402.501c-10 0 -69.333 0.166992 -178 0.5s-190.334 0.5 -245.001 0.5c-66 0 -145.167 -0.166992 -237.5 -0.5s-142.5 -0.5 -150.5 -0.5c0 -185.333 0.5 -325.666 1.5 -420.999
s1.83301 -163 2.5 -203h-165c0.666992 40 1.66699 111 3 213s2 274.333 2 517c0 73.333 -0.5 162.666 -1.5 267.999s-2.16699 219 -3.5 341h165c0 -101.333 -0.666992 -200.833 -2 -298.5s-2 -190.5 -2 -278.5c8 0 51.5 -0.166992 130.5 -0.5s165.167 -0.5 258.5 -0.5
c72 0 158.667 0.166992 260 0.5s155.333 0.5 162 0.5c0 88 -0.666992 180.667 -2 278s-2 197 -2 299h165c-1.33301 -100.667 -2.5 -217 -3.5 -349s-1.5 -239.667 -1.5 -323c0 -196 0.666992 -346.167 2 -450.5s2.33301 -176.5 3 -216.5zM1311 887.999h-1024v121h1024v-121z
" />
    <glyph glyph-name="hbar" unicode="&#x127;" horiz-adv-x="1190" 
d="M1013 0l-158.001 -0.00195312c0.666992 20 1.5 80.167 2.5 180.5s1.5 166.5 1.5 198.5c0 34.667 -0.166992 85.834 -0.5 153.501s-0.833008 117.167 -1.5 148.5c-2 76.667 -16.667 131.667 -44 165s-74.666 50 -141.999 50c-38 0 -86.667 -11.5 -146 -34.5
s-122 -54.167 -188 -93.5l4 -768h-158c0.666992 26 1.5 130.833 2.5 314.5s1.5 334.834 1.5 453.501c0 77.333 -0.166992 174.833 -0.5 292.5s-1.5 252.834 -3.5 405.501h158l-4 -569l1 -1c95.333 53.333 173.333 90.333 234 111s112.667 31 156 31
c85.333 0 153.833 -26.833 205.5 -80.5s77.5 -127.167 77.5 -220.5c0 -84 -0.5 -156.5 -1.5 -217.5s-1.5 -110.5 -1.5 -148.5c0 -60.667 0.666992 -130.334 2 -209.001s2.33301 -132.667 3 -162zM789.999 1114h-1024v121h1024v-121z" />
    <glyph glyph-name="Imacron" unicode="&#x12a;" horiz-adv-x="635" 
d="M631 1496c-10.667 0 -55.1689 0.166992 -133.502 0.5s-137.5 0.5 -177.5 0.5c-54.667 0 -117.167 -0.166992 -187.5 -0.5s-113.166 -0.5 -128.499 -0.5v113c8.66699 0 47.334 -0.166992 116.001 -0.5s134 -0.5 196 -0.5c55.333 0 119.333 0.166992 192 0.5
s113.667 0.5 123 0.5v-113zM399.998 0l-165 -0.000976562c0.666992 40 1.66699 111.333 3 214s2 250 2 442c0 76 -0.333008 175.667 -1 299s-2 251.333 -4 384h165c-1.33301 -95.333 -2.5 -206.166 -3.5 -332.499s-1.5 -229.5 -1.5 -309.5
c0 -202.667 0.666992 -359.5 2 -470.5s2.33301 -186.5 3 -226.5z" />
    <glyph glyph-name="imacron" unicode="&#x12b;" horiz-adv-x="545" 
d="M352 0l-158 -0.00195312c0.666992 10.667 1.5 76.334 2.5 197.001s1.5 220.334 1.5 299.001c0 68.667 -0.166992 144.167 -0.5 226.5s-1.5 178.833 -3.5 289.5h158c-1.33301 -96 -2.5 -185.833 -3.5 -269.5s-1.5 -158.167 -1.5 -223.5c0 -155.333 0.833008 -280 2.5 -374
s2.5 -142.333 2.5 -145zM546 1239c-7.33301 0 -43.8311 0.166992 -109.498 0.5s-119.834 0.5 -162.501 0.5c-44.667 0 -99.834 -0.166992 -165.501 -0.5s-102.5 -0.5 -110.5 -0.5v112c10 0 47.333 -0.166992 112 -0.5s118 -0.5 160 -0.5c45.333 0 101 0.166992 167 0.5
s102.333 0.5 109 0.5v-112z" />
    <glyph glyph-name="Iogonek" unicode="&#x12e;" horiz-adv-x="635" 
d="M240 656c0 76 -0.333984 175.661 -1.00098 298.994s-2 251.333 -4 384h165c-1.33301 -95.333 -2.5 -206.166 -3.5 -332.499s-1.5 -229.5 -1.5 -309.5c0 -202.667 0.666992 -359.5 2 -470.5s2.33301 -186.5 3 -226.5h-41c-1.33301 -12.667 -2.33301 -23.5 -3 -32.5
s-1 -20.167 -1 -33.5c0 -29.333 5 -54.666 15 -75.999s20.667 -36.666 32 -45.999c19.333 -15.333 44.333 -27.666 75 -36.999s64 -14 100 -14l-32 -116c-46.667 0 -88.667 6.33301 -126 19s-66.666 26.334 -87.999 41.001c-37.333 25.333 -63.5 55.833 -78.5 91.5
s-22.5 74.5 -22.5 116.5c0 16.667 0.333008 30.834 1 42.501s2 26.5 4 44.5c0.666992 39.333 1.66699 110.5 3 213.5s2 250.5 2 442.5z" />
    <glyph glyph-name="iogonek" unicode="&#x12f;" horiz-adv-x="545" 
d="M361 1206h-176v172h176v-172zM194 0c0.666992 10.667 1.49805 76.3311 2.49805 196.998s1.5 220.334 1.5 299.001c0 68.667 -0.166992 144.167 -0.5 226.5s-1.5 178.833 -3.5 289.5h158c-1.33301 -96 -2.5 -185.833 -3.5 -269.5s-1.5 -158.167 -1.5 -223.5
c0 -155.333 0.833008 -280 2.5 -374s2.5 -142.333 2.5 -145h-39c-2 -16 -3.66699 -30.5 -5 -43.5s-2 -24.5 -2 -34.5c0 -23.333 2.33301 -42.5 7 -57.5s11.667 -27.833 21 -38.5c12.667 -14.667 34.334 -27 65.001 -37s72.334 -15 125.001 -15l-43 -109
c-46.667 0 -87.667 5 -123 15s-64 22.667 -86 38c-34 24 -57.167 51.833 -69.5 83.5s-18.5 66.834 -18.5 105.501c0 16.667 1 31.667 3 45z" />
    <glyph glyph-name="Idotaccent" unicode="&#x130;" horiz-adv-x="635" 
d="M415 1481h-195v183h195v-183zM400 0l-165 -0.000976562c0.666992 40 1.66699 111.333 3 214s2 250 2 442c0 76 -0.333008 175.667 -1 299s-2 251.333 -4 384h165c-1.33301 -95.333 -2.5 -206.166 -3.5 -332.499s-1.5 -229.5 -1.5 -309.5
c0 -202.667 0.666992 -359.5 2 -470.5s2.33301 -186.5 3 -226.5z" />
    <glyph glyph-name="dotlessi" unicode="&#x131;" horiz-adv-x="545" 
d="M352 0l-158 -0.00195312c0.666992 10.667 1.5 76.334 2.5 197.001s1.5 220.334 1.5 299.001c0 68.667 -0.166992 144.167 -0.5 226.5s-1.5 178.833 -3.5 289.5h158c-1.33301 -96 -2.5 -185.833 -3.5 -269.5s-1.5 -158.167 -1.5 -223.5c0 -155.333 0.833008 -280 2.5 -374
s2.5 -142.333 2.5 -145z" />
    <glyph glyph-name="Kcedilla" unicode="&#x136;" horiz-adv-x="1292" 
d="M1265 92l-115 -110l-461 433l-254 230v4l265.5 273l406.5 432l113 -101l-353 -351.5l-228 -234.5v-2l186 -171.5zM398 0c0 -81.333 -11.6699 -148.169 -35.0029 -200.502s-60 -92.5 -110 -120.5c-21.333 -12 -52 -25.333 -92 -40s-89.667 -22 -149 -22h-6.5h-5.5l-17 115
c68.667 2.66699 120.334 10.334 155.001 23.001s59.334 26.334 74.001 41.001c20.667 20.667 35.834 43.167 45.501 67.5s14.5 69.833 14.5 136.5h-39c1.33301 40 2.5 128 3.5 264s1.5 299.667 1.5 491c0 78 -0.5 168.333 -1.5 271s-2.16699 207 -3.5 313h165
c-1.33301 -102 -2.33301 -217.333 -3 -346s-1 -239.667 -1 -333c0 -192 0.5 -340 1.5 -444s1.83301 -176 2.5 -216z" />
    <glyph glyph-name="kcedilla" unicode="&#x137;" horiz-adv-x="1075" 
d="M341 0c0 -54.667 -11.3301 -108.334 -33.9971 -161.001s-59.334 -92.667 -110.001 -120c-20.667 -11.333 -49.834 -23.333 -87.501 -36s-78.5 -20.334 -122.5 -23.001l-18 109c50 2.66699 91.167 9.83398 123.5 21.501s55.5 24.5 69.5 38.5
c19.333 18.667 34.166 40.5 44.499 65.5s15.5 60.167 15.5 105.5h-39c0.666992 12 1.5 102 2.5 270s1.5 340 1.5 516c0 75.333 -0.166992 170.333 -0.5 285s-1.5 246.334 -3.5 395.001h158c-2 -118 -3.16699 -255 -3.5 -411s-0.5 -248.667 -0.5 -278
c0 -68.667 0.666992 -212.5 2 -431.5s2 -334.167 2 -345.5zM1057 20l-95 -87l-394.5 392l-191.5 184v2c16 14.667 86 85.5 210 212.5l301 312.5l97 -100l-249.5 -242.5l-163.5 -159.5v-1l146.5 -154z" />
    <glyph glyph-name="Lacute" unicode="&#x139;" horiz-adv-x="1104" 
d="M1053 2c-8 0 -50.166 0.332031 -126.499 0.999023s-173.833 1 -292.5 1c-78 0 -152.167 -0.333008 -222.5 -1s-129.833 -1 -178.5 -1c1.33301 114.667 2.5 230.834 3.5 348.501s1.5 233.167 1.5 346.5c0 189.333 -0.666992 333.666 -2 432.999s-2.33301 169 -3 209h165
c-1.33301 -86 -2.33301 -185.333 -3 -298s-1 -205 -1 -277c0 -175.333 0.333008 -321.666 1 -438.999s1 -179.333 1 -186c27.333 0 60.333 -0.166992 99 -0.5s73.667 -0.5 105 -0.5c119.333 0 223.166 0.5 311.499 1.5s135.5 1.5 141.5 1.5v-139zM747.001 1621l-480 -185
l-50 99l473 206z" />
    <glyph glyph-name="lacute" unicode="&#x13a;" horiz-adv-x="546" 
d="M546 1786l-374 -238l-62 93l359 255zM352 0l-158 -0.000976562c0.666992 8 1.5 105.5 2.5 292.5s1.5 342.167 1.5 465.5c0 79.333 -0.166992 179.5 -0.5 300.5s-1.5 256.833 -3.5 407.5h158c-1.33301 -102.667 -2.33301 -221.5 -3 -356.5s-1 -248.833 -1 -341.5
c0 -202 0.666992 -378.667 2 -530s2 -230.666 2 -237.999z" />
    <glyph glyph-name="Lcedilla" unicode="&#x13b;" horiz-adv-x="1104" 
d="M783 3c0 -82 -11.6709 -149.004 -35.0039 -201.004s-60.333 -93 -111 -123c-21.333 -12.667 -52.666 -26.167 -93.999 -40.5s-90 -21.5 -146 -21.5h-6h-6l-17 115c68.667 2.66699 120.334 10.334 155.001 23.001s59.334 26.334 74.001 41.001
c20.667 20.667 35.834 43.834 45.501 69.501s14.5 71.5 14.5 137.5c-136.667 0 -216.667 -0.166992 -240 -0.5s-84.666 -0.5 -183.999 -0.5c1.33301 114.667 2.5 230.834 3.5 348.501s1.5 233.167 1.5 346.5c0 189.333 -0.666992 333.666 -2 432.999s-2.33301 169 -3 209
h165c-1.33301 -86 -2.33301 -185.333 -3 -298s-1 -205 -1 -277c0 -175.333 0.333008 -321.666 1 -438.999s1 -179.333 1 -186c27.333 0 60.333 -0.166992 99 -0.5s73.667 -0.5 105 -0.5c119.333 0 223.166 0.5 311.499 1.5s135.5 1.5 141.5 1.5v-139z" />
    <glyph glyph-name="lcedilla" unicode="&#x13c;" horiz-adv-x="546" 
d="M352 0c0 -54.667 -11.3301 -108.168 -33.9971 -160.501s-59.334 -92.5 -110.001 -120.5c-20.667 -11.333 -49.834 -23.333 -87.501 -36s-78.5 -20.334 -122.5 -23.001l-18 109c50 2.66699 91.167 9.83398 123.5 21.501s55.5 24.5 69.5 38.5
c19.333 18.667 34.166 40.5 44.499 65.5s15.5 60.167 15.5 105.5h-39c0.666992 8 1.5 105.5 2.5 292.5s1.5 342.167 1.5 465.5c0 79.333 -0.166992 179.5 -0.5 300.5s-1.5 256.833 -3.5 407.5h158c-1.33301 -102.667 -2.33301 -221.5 -3 -356.5s-1 -248.833 -1 -341.5
c0 -202 0.666992 -378.667 2 -530s2 -230.666 2 -237.999z" />
    <glyph glyph-name="Lcaron" unicode="&#x13d;" horiz-adv-x="1104" 
d="M921 1368l-219 -446l-111 49l199 456zM1053 2c-8 0 -50.166 0.332031 -126.499 0.999023s-173.833 1 -292.5 1c-78 0 -152.167 -0.333008 -222.5 -1s-129.833 -1 -178.5 -1c1.33301 114.667 2.5 230.834 3.5 348.501s1.5 233.167 1.5 346.5
c0 189.333 -0.666992 333.666 -2 432.999s-2.33301 169 -3 209h165c-1.33301 -86 -2.33301 -185.333 -3 -298s-1 -205 -1 -277c0 -175.333 0.333008 -321.666 1 -438.999s1 -179.333 1 -186c27.333 0 60.333 -0.166992 99 -0.5s73.667 -0.5 105 -0.5
c119.333 0 223.166 0.5 311.499 1.5s135.5 1.5 141.5 1.5v-139z" />
    <glyph glyph-name="lcaron" unicode="&#x13e;" horiz-adv-x="546" 
d="M352 0l-158 -0.000976562c0.666992 8 1.5 105.5 2.5 292.5s1.5 342.167 1.5 465.5c0 79.333 -0.166992 179.5 -0.5 300.5s-1.5 256.833 -3.5 407.5h158c-1.33301 -102.667 -2.33301 -221.5 -3 -356.5s-1 -248.833 -1 -341.5c0 -202 0.666992 -378.667 2 -530
s2 -230.666 2 -237.999zM726 1414l-201 -369l-96 44l178 387z" />
    <glyph glyph-name="Ldotaccent" unicode="&#x13f;" horiz-adv-x="1104" 
d="M1053 2c-8 0 -50.166 0.332031 -126.499 0.999023s-173.833 1 -292.5 1c-78 0 -152.167 -0.333008 -222.5 -1s-129.833 -1 -178.5 -1c1.33301 114.667 2.5 230.834 3.5 348.501s1.5 233.167 1.5 346.5c0 189.333 -0.666992 333.666 -2 432.999s-2.33301 169 -3 209h165
c-1.33301 -86 -2.33301 -185.333 -3 -298s-1 -205 -1 -277c0 -175.333 0.333008 -321.666 1 -438.999s1 -179.333 1 -186c27.333 0 60.333 -0.166992 99 -0.5s73.667 -0.5 105 -0.5c119.333 0 223.166 0.5 311.499 1.5s135.5 1.5 141.5 1.5v-139zM965.001 553.999h-195v183
h195v-183z" />
    <glyph glyph-name="ldotaccent" unicode="&#x140;" horiz-adv-x="662" 
d="M352 0l-158 -0.000976562c0.666992 8 1.5 105.5 2.5 292.5s1.5 342.167 1.5 465.5c0 79.333 -0.166992 179.5 -0.5 300.5s-1.5 256.833 -3.5 407.5h158c-1.33301 -102.667 -2.33301 -221.5 -3 -356.5s-1 -248.833 -1 -341.5c0 -202 0.666992 -378.667 2 -530
s2 -230.666 2 -237.999zM689 449.999h-171v170h171v-170z" />
    <glyph glyph-name="Lslash" unicode="&#x141;" horiz-adv-x="1104" 
d="M393 508c0 -107.333 0.5 -194.666 1.5 -261.999s1.5 -103 1.5 -107c27.333 0 60.5 -0.166992 99.5 -0.5s73.833 -0.5 104.5 -0.5c119.333 0 223.5 0.5 312.5 1.5s135.833 1.5 140.5 1.5v-139c-6.66699 0 -48.5 0.333008 -125.5 1s-174.833 1 -293.5 1
c-76.667 0 -150.5 -0.333008 -221.5 -1s-130.833 -1 -179.5 -1c1.33301 71.333 2.5 144.166 3.5 218.499s1.5 148.166 1.5 221.499l-92 -44l-58 -29l-51 100c8 3.33301 31.833 13.833 71.5 31.5l129.5 60.5c0 22 0.166992 44.5 0.5 67.5s0.5 45.833 0.5 68.5
c0 188.667 -1 332.834 -3 432.501s-3 169.5 -3 209.5h165c0 -86 -1 -185.667 -3 -299s-3 -205.333 -3 -276v-70v-66l207.5 97c79 38 123.5 59.667 133.5 65l49 -102l-150.5 -69.5z" />
    <glyph glyph-name="lslash" unicode="&#x142;" horiz-adv-x="546" 
d="M348 803l137 68.001l62 32l46 -94c-5.33301 -2.66699 -32.666 -14.834 -81.999 -36.501l-163 -72.5c0 -187.333 0.666992 -349.5 2 -486.5s2 -208.167 2 -213.5h-158c0 4.66699 0.666992 79.167 2 223.5s2 281.166 2 410.499
c-41.333 -19.333 -80.5 -38.666 -117.5 -57.999l-67.5 -35l-47 93c9.33301 4.66699 38.166 18 86.499 40l145.5 67c0 76.667 -0.166992 177.334 -0.5 302.001s-1.5 265.667 -3.5 423h158c0 -96.667 -0.666992 -208.334 -2 -335.001s-2 -236 -2 -328z" />
    <glyph glyph-name="Nacute" unicode="&#x143;" horiz-adv-x="1618" 
d="M1385 1339c-1.33301 -104.667 -2.5 -224.333 -3.5 -359s-1.5 -231.667 -1.5 -291c0 -189.333 0.666992 -339.833 2 -451.5s2 -171.167 2 -178.5l-133 -65l-564.5 736.5l-303.5 379.5l-2 -1c0 -178.667 1.16699 -398.167 3.5 -658.5s3.83301 -410.5 4.5 -450.5h-156
c0.666992 16.667 1.66699 76 3 178s2 244 2 426c0 72.667 -0.333008 169.167 -1 289.5s-2 247.833 -4 382.5l152 72l306.5 -389l543.5 -680l2 1c0 102.667 -1.33301 275.5 -4 518.5s-4 423.167 -4 540.5h156zM1186 1601l-480 -185l-50 99l473 206z" />
    <glyph glyph-name="nacute" unicode="&#x144;" horiz-adv-x="1190" 
d="M1013 0l-157.999 -0.00488281c0.666992 18.667 1.5 80.334 2.5 185.001s1.5 169.334 1.5 194.001c0 34.667 -0.166992 85.834 -0.5 153.501s-0.833008 117.167 -1.5 148.5c-2 76.667 -16.667 131.667 -44 165s-74.666 50 -141.999 50c-40.667 0 -91 -12 -151 -36
s-120.667 -54.667 -182 -92c0 -7.33301 -0.333008 -47 -1 -119s-1 -137.667 -1 -197c0 -77.333 0.833008 -170.666 2.5 -279.999s2.5 -166.666 2.5 -171.999h-158c0 4.66699 0.666992 45.5 2 122.5s2 191.5 2 343.5c0 70 -0.166992 152 -0.5 246s-1.5 194 -3.5 300h156
l-1 -115l1 -2c93.333 53.333 171.166 90.5 233.499 111.5s114.166 31.5 155.499 31.5c85.333 0 153.833 -26.833 205.5 -80.5s77.5 -127.167 77.5 -220.5c0 -84 -0.5 -156.5 -1.5 -217.5s-1.5 -110.5 -1.5 -148.5c0 -60.667 0.833008 -136.5 2.5 -227.5
s2.5 -138.833 2.5 -143.5zM933.001 1363l-439 -232l-60 93l429 252z" />
    <glyph glyph-name="Ncedilla" unicode="&#x145;" horiz-adv-x="1618" 
d="M1385 1339c-1.33301 -104.667 -2.50293 -224.336 -3.50293 -359.003s-1.5 -231.667 -1.5 -291c0 -189.333 0.666992 -339.833 2 -451.5s2 -171.167 2 -178.5l-133 -65l-564.5 736.5l-303.5 379.5l-2 -1c0 -178.667 1.16699 -398.167 3.5 -658.5
s3.83301 -410.5 4.5 -450.5c0 -81.333 -11.667 -148.166 -35 -200.499s-60 -92.5 -110 -120.5c-21.333 -12 -52 -25.333 -92 -40s-89.667 -22 -149 -22h-7h-5l-17 115c68.667 2.66699 120.334 10.334 155.001 23.001s59.334 26.334 74.001 41.001
c20.667 20.667 35.834 43.167 45.501 67.5s14.5 69.833 14.5 136.5h-30c0.666992 16.667 1.66699 76 3 178s2 244 2 426c0 72.667 -0.333008 169.167 -1 289.5s-2 247.833 -4 382.5l152 72l306.5 -389l543.5 -680l2 1c0 102.667 -1.33301 275.5 -4 518.5
s-4 423.167 -4 540.5h156z" />
    <glyph glyph-name="ncedilla" unicode="&#x146;" horiz-adv-x="1190" 
d="M1013 0l-157.996 -0.00488281c0.666992 18.667 1.5 80.334 2.5 185.001s1.5 169.334 1.5 194.001c0 34.667 -0.166992 85.834 -0.5 153.501s-0.833008 117.167 -1.5 148.5c-2 76.667 -16.667 131.667 -44 165s-74.666 50 -141.999 50c-40.667 0 -91 -12 -151 -36
s-120.667 -54.667 -182 -92c0 -7.33301 -0.333008 -47 -1 -119s-1 -137.667 -1 -197c0 -77.333 0.833008 -170.666 2.5 -279.999s2.5 -166.666 2.5 -171.999c0 -54.667 -11.333 -108.167 -34 -160.5s-59.334 -92.5 -110.001 -120.5
c-20.667 -11.333 -49.834 -23.333 -87.501 -36s-78.5 -20.334 -122.5 -23.001l-18 109c50 2.66699 91.167 9.83398 123.5 21.501s55.5 24.5 69.5 38.5c19.333 18.667 34.166 40.5 44.499 65.5s15.5 60.167 15.5 105.5h-39c0 4.66699 0.666992 45.5 2 122.5s2 191.5 2 343.5
c0 70 -0.166992 152 -0.5 246s-1.5 194 -3.5 300h156l-1 -115l1 -2c93.333 53.333 171.166 90.5 233.499 111.5s114.166 31.5 155.499 31.5c85.333 0 153.833 -26.833 205.5 -80.5s77.5 -127.167 77.5 -220.5c0 -84 -0.5 -156.5 -1.5 -217.5s-1.5 -110.5 -1.5 -148.5
c0 -60.667 0.833008 -136.5 2.5 -227.5s2.5 -138.833 2.5 -143.5z" />
    <glyph glyph-name="Ncaron" unicode="&#x147;" horiz-adv-x="1618" 
d="M1385 1339c-1.33301 -104.667 -2.5 -224.333 -3.5 -359s-1.5 -231.667 -1.5 -291c0 -189.333 0.666992 -339.833 2 -451.5s2 -171.167 2 -178.5l-133 -65l-564.5 736.5l-303.5 379.5l-2 -1c0 -178.667 1.16699 -398.167 3.5 -658.5s3.83301 -410.5 4.5 -450.5h-156
c0.666992 16.667 1.66699 76 3 178s2 244 2 426c0 72.667 -0.333008 169.167 -1 289.5s-2 247.833 -4 382.5l152 72l306.5 -389l543.5 -680l2 1c0 102.667 -1.33301 275.5 -4 518.5s-4 423.167 -4 540.5h156zM1159 1632l-258 -226l-136 -1l-257 227l91 71l234 -200h3
l232 200z" />
    <glyph glyph-name="ncaron" unicode="&#x148;" horiz-adv-x="1190" 
d="M1013 0l-157.999 -0.00488281c0.666992 18.667 1.5 80.334 2.5 185.001s1.5 169.334 1.5 194.001c0 34.667 -0.166992 85.834 -0.5 153.501s-0.833008 117.167 -1.5 148.5c-2 76.667 -16.667 131.667 -44 165s-74.666 50 -141.999 50c-40.667 0 -91 -12 -151 -36
s-120.667 -54.667 -182 -92c0 -7.33301 -0.333008 -47 -1 -119s-1 -137.667 -1 -197c0 -77.333 0.833008 -170.666 2.5 -279.999s2.5 -166.666 2.5 -171.999h-158c0 4.66699 0.666992 45.5 2 122.5s2 191.5 2 343.5c0 70 -0.166992 152 -0.5 246s-1.5 194 -3.5 300h156
l-1 -115l1 -2c93.333 53.333 171.166 90.5 233.499 111.5s114.166 31.5 155.499 31.5c85.333 0 153.833 -26.833 205.5 -80.5s77.5 -127.167 77.5 -220.5c0 -84 -0.5 -156.5 -1.5 -217.5s-1.5 -110.5 -1.5 -148.5c0 -60.667 0.833008 -136.5 2.5 -227.5
s2.5 -138.833 2.5 -143.5zM928.001 1399l-262 -289h-123l-261 289l89 68l233 -258h2l233 258z" />
    <glyph glyph-name="ncommaaccent" unicode="&#x149;" horiz-adv-x="1190" 
d="M1013 0l-157.999 -0.00488281c0.666992 18.667 1.5 80.334 2.5 185.001s1.5 169.334 1.5 194.001c0 34.667 -0.166992 85.834 -0.5 153.501s-0.833008 117.167 -1.5 148.5c-2 76.667 -16.667 131.667 -44 165s-74.666 50 -141.999 50c-40.667 0 -91 -12 -151 -36
s-120.667 -54.667 -182 -92c0 -7.33301 -0.333008 -47 -1 -119s-1 -137.667 -1 -197c0 -77.333 0.833008 -170.666 2.5 -279.999s2.5 -166.666 2.5 -171.999h-158c0 4.66699 0.666992 45.5 2 122.5s2 191.5 2 343.5c0 70 -0.166992 152 -0.5 246s-1.5 194 -3.5 300h156
l-1 -115l1 -2c93.333 53.333 171.166 90.5 233.499 111.5s114.166 31.5 155.499 31.5c85.333 0 153.833 -26.833 205.5 -80.5s77.5 -127.167 77.5 -220.5c0 -84 -0.5 -156.5 -1.5 -217.5s-1.5 -110.5 -1.5 -148.5c0 -60.667 0.833008 -136.5 2.5 -227.5
s2.5 -138.833 2.5 -143.5zM764.001 -160.005l-352 -275l-75 81l338 293z" />
    <glyph glyph-name="Omacron" unicode="&#x14c;" horiz-adv-x="1548" 
d="M1419 669c0 -108 -18.499 -207.166 -55.499 -297.499s-85.167 -164.833 -144.5 -223.5c-66 -65.333 -136 -112.833 -210 -142.5s-153.333 -44.5 -238 -44.5c-82.667 0 -160.667 14.167 -234 42.5s-139.333 70.5 -198 126.5
c-64.667 60.667 -116.834 137.167 -156.501 229.5s-59.5 196.166 -59.5 311.499c0 102.667 15.667 196.167 47 280.5s78.333 160.166 141 227.499c58 62.667 127 111.167 207 145.5s164.333 51.5 253 51.5c90 0 173.333 -16.167 250 -48.5s143 -77.166 199 -134.499
c65.333 -66.667 114.833 -145.167 148.5 -235.5s50.5 -186.5 50.5 -288.5zM1248 653.001c0 86.667 -14.499 171.831 -43.499 255.498s-73.167 153.834 -132.5 210.501c-40 38.667 -84.833 68.667 -134.5 90s-105.167 32 -166.5 32c-60 0 -115.833 -10.833 -167.5 -32.5
s-98.5 -53.5 -140.5 -95.5c-53.333 -53.333 -94.833 -119.333 -124.5 -198s-44.5 -160.667 -44.5 -246c0 -96 15.167 -182 45.5 -258s73.166 -140.333 128.499 -193c38 -36.667 83 -66.167 135 -88.5s107.667 -33.5 167 -33.5s114.833 10.833 166.5 32.5
s98.5 52.834 140.5 93.501c50 48 91 109.167 123 183.5s48 156.833 48 247.5zM1102 1506c-14 0 -62.8301 0.166992 -146.497 0.5s-144.834 0.5 -183.501 0.5c-56.667 0 -122.834 -0.166992 -198.501 -0.5s-121.834 -0.5 -138.501 -0.5v113
c16.667 0 58.5 -0.166992 125.5 -0.5s135.833 -0.5 206.5 -0.5c56.667 0 123.5 0.166992 200.5 0.5s121.833 0.5 134.5 0.5v-113z" />
    </font>
</defs>
</svg>
